<svg xmlns="http://www.w3.org/2000/svg" xmlns:xlink="http://www.w3.org/1999/xlink" viewBox="0 0 566.92913 369.1366"><defs><style>.a{isolation:isolate;}.b{opacity:0.1;mix-blend-mode:multiply;}.c{fill:url(#a);}.d{fill:url(#b);}.e{fill:url(#c);}.f{fill:url(#d);}.g{fill:url(#e);}.h{fill:url(#f);}.i{fill:url(#g);}.j{fill:url(#h);}.k{fill:url(#i);}.l{fill:url(#j);}.m{fill:url(#k);}.n{fill:url(#l);}.o{fill:url(#m);}.p{fill:url(#n);}.q{fill:url(#o);}.r{fill:url(#p);}.s{fill:url(#q);}.t{fill:url(#r);}.u{fill:url(#s);}.v{fill:url(#t);}.w{fill:url(#u);}.x{fill:url(#v);}.y{fill:url(#w);}.z{fill:#ccefff;}.aa{fill:#efefe6;}.ab{fill:url(#x);}.ac{fill:url(#y);}.ad{fill:url(#z);}.ae{fill:url(#aa);}.af{fill:url(#ab);}.ag{fill:url(#ac);}.ah{fill:url(#ad);}.ai{fill:url(#ae);}.aj{fill:url(#af);}.ak{fill:url(#ag);}.al{fill:url(#ah);}.am{fill:url(#ai);}.an{fill:url(#aj);}.ao{fill:url(#ak);}.ap{fill:url(#al);}.aq{fill:url(#am);}.ar{fill:url(#an);}.as{fill:url(#ao);}.at{fill:url(#ap);}.au{fill:url(#aq);}.av{fill:url(#ar);}.aw{fill:url(#as);}.ax{fill:url(#at);}.ay{fill:url(#au);}.az{fill:url(#av);}.ba{fill:url(#aw);}.bb{fill:url(#ax);}.bc{fill:url(#ay);}.bd{fill:url(#az);}.be{fill:url(#ba);}.bf{fill:url(#bb);}.bg{fill:url(#bc);}.bh{fill:url(#bd);}.bi{fill:url(#be);}.bj{opacity:0.4;fill:url(#bf);}.bk{fill:url(#bg);}.bl{fill:url(#bh);}.bm{fill:url(#bi);}.bn{fill:url(#bj);}.bo{fill:url(#bk);}.bp{fill:url(#bl);}.bq{fill:url(#bm);}.br{fill:url(#bn);}.bs{fill:url(#bo);}.bt{fill:url(#bp);}.bu{fill:url(#bq);}.bv{fill:url(#br);}.bw{fill:url(#bs);}.bx{fill:url(#bt);}.by{fill:url(#bu);}.bz{fill:url(#bv);}.ca{fill:url(#bw);}.cb{fill:url(#bx);}.cc{fill:url(#by);}.cd{fill:url(#bz);}.ce{fill:url(#ca);}.cf{fill:url(#cb);}.cg{fill:url(#cc);}.ch{fill:url(#cd);}.ci{fill:url(#ce);}.cj{fill:url(#cf);}.ck{fill:url(#cg);}.cl{fill:url(#ch);}.cm{fill:url(#ci);}.cn{fill:url(#cj);}.co{fill:url(#ck);}.cp{fill:url(#cl);}.cq{fill:url(#cm);}.cr{fill:url(#cn);}.cs{fill:url(#co);}.ct{fill:url(#cp);}.cu{fill:url(#cq);}.cv{fill:url(#cr);}.cw{fill:url(#cs);}.cx{fill:url(#ct);}.cy{fill:url(#cu);}.cz{fill:url(#cv);}.da{fill:url(#cw);}.db{fill:url(#cx);}.dc{fill:url(#cy);}.dd{fill:url(#cz);}.de{fill:url(#da);}.df{fill:url(#db);}.dg{fill:url(#dc);}.dh{fill:url(#dd);}.di{fill:url(#de);}.dj{fill:url(#df);}.dk{fill:url(#dg);}.dl{fill:url(#dh);}.dm{fill:url(#di);}.dn{fill:url(#dj);}.do{fill:url(#dk);}.dp{fill:#e5f7ff;}.dq{fill:url(#dl);}.dr{fill:url(#dm);}.ds{fill:url(#dn);}.dt{fill:url(#do);}.du{fill:url(#dp);}.dv{fill:url(#dq);}.dw{fill:url(#dr);}.dx{fill:url(#ds);}.dy{fill:url(#dt);}.dz{fill:url(#du);}.ea{fill:url(#dv);}.eb{fill:url(#dw);}.ec{fill:url(#dx);}.ed{fill:url(#dy);}.ee{fill:url(#dz);}.ef{fill:url(#ea);}.eg{fill:url(#eb);}.eh{fill:url(#ec);}.ei{fill:url(#ed);}.ej{fill:url(#ee);}.ek{fill:url(#ef);}.el{fill:url(#eg);}.em{fill:url(#eh);}.en{fill:url(#ei);}.eo{fill:url(#ej);}.ep{fill:url(#ek);}.eq{fill:url(#el);}.er{fill:url(#em);}.es{fill:url(#en);}.et{fill:url(#eo);}.eu{fill:url(#ep);}.ev{fill:url(#eq);}.ew{fill:url(#er);}.ex{fill:url(#es);}.ey{fill:url(#et);}.ez{fill:url(#eu);}.fa{fill:url(#ev);}.fb{fill:url(#ew);}.fc{fill:url(#ex);}.fd{fill:url(#ey);}</style><linearGradient id="a" x1="236.77547" y1="293.91529" x2="236.34258" y2="244.56589" gradientUnits="userSpaceOnUse"><stop offset="0" stop-color="#256280"/><stop offset="1" stop-color="#1a4559"/></linearGradient><linearGradient id="b" x1="369.18111" y1="268.86128" x2="369.18111" y2="307.74064" gradientUnits="userSpaceOnUse"><stop offset="0" stop-color="#d1864a"/><stop offset="0.99949" stop-color="#dab684"/></linearGradient><linearGradient id="c" x1="349.50355" y1="277.84192" x2="329.87265" y2="319.00348" xlink:href="#b"/><linearGradient id="d" x1="388.35258" y1="276.79789" x2="410.69666" y2="321.90765" xlink:href="#b"/><linearGradient id="e" x1="336.03233" y1="258.82317" x2="407.00545" y2="258.82317" xlink:href="#b"/><linearGradient id="f" x1="404.60179" y1="254.64176" x2="336.66669" y2="254.64176" xlink:href="#b"/><linearGradient id="g" x1="308.30393" y1="174.13871" x2="367.35225" y2="174.13871" gradientUnits="userSpaceOnUse"><stop offset="0" stop-color="#ff6378"/><stop offset="1" stop-color="#80313c"/></linearGradient><linearGradient id="h" x1="291.49907" y1="282.15659" x2="283.88376" y2="277.25751" gradientUnits="userSpaceOnUse"><stop offset="0" stop-color="#d1864a"/><stop offset="0.99949" stop-color="#e8c26b"/></linearGradient><linearGradient id="i" x1="311.97607" y1="298.21899" x2="302.20679" y2="291.93421" xlink:href="#h"/><linearGradient id="j" x1="284.61278" y1="271.38763" x2="326.17016" y2="234.15914" xlink:href="#a"/><linearGradient id="k" x1="334.21533" y1="233.28356" x2="347.85134" y2="231.11911" xlink:href="#a"/><linearGradient id="l" x1="362.14045" y1="138.51846" x2="364.02723" y2="138.51846" gradientUnits="userSpaceOnUse"><stop offset="0" stop-color="#3dffd3"/><stop offset="1" stop-color="#1e806a"/></linearGradient><linearGradient id="m" x1="513.47318" y1="12.23648" x2="588.36213" y2="12.23648" gradientTransform="translate(-180.63341 98.71578) rotate(7.58456)" xlink:href="#l"/><linearGradient id="n" x1="322.33981" y1="182.54004" x2="405.77303" y2="182.54004" xlink:href="#g"/><linearGradient id="o" x1="301.39541" y1="90.60301" x2="334.20606" y2="90.60301" gradientUnits="userSpaceOnUse"><stop offset="0" stop-color="#6f6d61"/><stop offset="1" stop-color="#3b3b32"/></linearGradient><linearGradient id="p" x1="363.90841" y1="131.66474" x2="315.22396" y2="107.04901" xlink:href="#h"/><linearGradient id="q" x1="-1914.4592" y1="108.03463" x2="-1920.20508" y2="108.66482" gradientTransform="matrix(-1, 0, 0, 1, -1593.94596, 0)" gradientUnits="userSpaceOnUse"><stop offset="0" stop-color="#e0b984"/><stop offset="1" stop-color="#f5e1be"/></linearGradient><linearGradient id="r" x1="-1920.3585" y1="103.61769" x2="-1911.32611" y2="103.61769" gradientTransform="matrix(-1, 0, 0, 1, -1593.94596, 0)" xlink:href="#o"/><linearGradient id="s" x1="-1918.27122" y1="109.66616" x2="-1912.66011" y2="109.66616" gradientTransform="matrix(-1, 0, 0, 1, -1593.94596, 0)" xlink:href="#o"/><linearGradient id="t" x1="-1916.06991" y1="110.61147" x2="-1913.61271" y2="110.61147" gradientTransform="matrix(-1, 0, 0, 1, -1593.94596, 0)" xlink:href="#o"/><linearGradient id="u" x1="352.48445" y1="114.79057" x2="391.69961" y2="114.79057" xlink:href="#o"/><linearGradient id="v" x1="310.33967" y1="95.45535" x2="406.10686" y2="95.45535" gradientUnits="userSpaceOnUse"><stop offset="0" stop-color="#e5f7ff"/><stop offset="1" stop-color="#80d6ff"/></linearGradient><linearGradient id="w" x1="338.14247" y1="103.41377" x2="352.59048" y2="103.41377" xlink:href="#o"/><linearGradient id="x" x1="228.14704" y1="91.22761" x2="236.20339" y2="91.22761" gradientTransform="translate(86.23728 52.96641) rotate(-2.70216)" xlink:href="#h"/><linearGradient id="y" x1="299.81207" y1="310.14044" x2="296.43215" y2="300.38331" xlink:href="#a"/><linearGradient id="z" x1="299.41067" y1="310.27949" x2="296.03075" y2="300.52235" xlink:href="#v"/><linearGradient id="aa" x1="-874.50916" y1="654.98875" x2="-879.09052" y2="641.76332" gradientTransform="translate(575.14784 -761.37885) rotate(-38.13967)" xlink:href="#a"/><linearGradient id="ab" x1="-875.76586" y1="653.32676" x2="-880.35874" y2="640.06809" gradientTransform="translate(575.14784 -761.37885) rotate(-38.13967)" xlink:href="#v"/><linearGradient id="ac" x1="298.66388" y1="273.66494" x2="354.72306" y2="238.16801" xlink:href="#a"/><linearGradient id="ad" x1="345.36648" y1="196.29323" x2="393.34778" y2="196.29323" xlink:href="#g"/><linearGradient id="ae" x1="246.25999" y1="307.48074" x2="196.58593" y2="275.01403" gradientUnits="userSpaceOnUse"><stop offset="0" stop-color="#ff6378"/><stop offset="0.88169" stop-color="#8f3743"/><stop offset="1" stop-color="#80313c"/></linearGradient><linearGradient id="af" x1="-1046.15221" y1="-1862.54352" x2="-1048.80676" y2="-1857.70286" gradientTransform="matrix(0.04348, -0.99905, 0.99905, 0.04348, 2157.90593, -655.58827)" gradientUnits="userSpaceOnUse"><stop offset="0" stop-color="#957a53"/><stop offset="1" stop-color="#725d3e"/></linearGradient><linearGradient id="ag" x1="-1052.67633" y1="-1853.07409" x2="-1048.91701" y2="-1857.17647" gradientTransform="matrix(0.04348, -0.99905, 0.99905, 0.04348, 2157.90593, -655.58827)" xlink:href="#l"/><linearGradient id="ah" x1="-1054.10477" y1="-1845.61184" x2="-1056.01064" y2="-1844.50643" gradientTransform="matrix(0.04348, -0.99905, 0.99905, 0.04348, 2157.90593, -655.58827)" xlink:href="#v"/><linearGradient id="ai" x1="-744.48832" y1="-2245.9871" x2="-736.32595" y2="-2245.9871" gradientTransform="matrix(-0.43016, -0.90275, 0.90275, -0.43016, 1975.63277, -1320.56451)" xlink:href="#a"/><linearGradient id="aj" x1="-1049.47551" y1="-1857.57276" x2="-1050.14363" y2="-1856.35443" gradientTransform="matrix(0.04348, -0.99905, 0.99905, 0.04348, 2157.90593, -655.58827)" xlink:href="#v"/><linearGradient id="ak" x1="-1049.88874" y1="-1856.69634" x2="-1050.48852" y2="-1855.60262" gradientTransform="matrix(0.04348, -0.99905, 0.99905, 0.04348, 2157.90593, -655.58827)" xlink:href="#v"/><linearGradient id="al" x1="253.24468" y1="309.08775" x2="250.08696" y2="307.02388" xlink:href="#ae"/><linearGradient id="am" x1="478.41227" y1="306.23651" x2="478.41227" y2="332.60996" xlink:href="#b"/><linearGradient id="an" x1="456.1362" y1="307.34071" x2="440.26334" y2="340.62252" xlink:href="#b"/><linearGradient id="ao" x1="500.31545" y1="306.49235" x2="518.4132" y2="343.02933" xlink:href="#b"/><linearGradient id="ap" x1="418.25873" y1="295.15735" x2="546.85312" y2="295.15735" xlink:href="#b"/><linearGradient id="aq" x1="542.49799" y1="287.58116" x2="419.40811" y2="287.58116" xlink:href="#b"/><linearGradient id="ar" x1="388.42383" y1="330.34915" x2="392.5626" y2="326.6415" xlink:href="#b"/><linearGradient id="as" x1="350.83096" y1="289.36791" x2="355.33251" y2="285.33527" xlink:href="#b"/><linearGradient id="at" x1="189.17933" y1="677.81473" x2="175.98594" y2="662.68114" gradientTransform="translate(90.42543 -348.44579) rotate(-6.42077)" xlink:href="#a"/><linearGradient id="au" x1="187.60597" y1="675.39736" x2="175.85835" y2="661.92215" gradientTransform="translate(90.42543 -348.44579) rotate(-6.42077)" xlink:href="#v"/><linearGradient id="av" x1="482.40463" y1="229.3598" x2="402.53653" y2="217.02245" xlink:href="#l"/><linearGradient id="aw" x1="-894.9709" y1="237.54424" x2="-868.74081" y2="237.54424" gradientTransform="matrix(-0.98453, 0.17522, 0.17522, 0.98453, -445.56482, -3.97972)" xlink:href="#b"/><linearGradient id="ax" x1="-1403.83473" y1="60.57503" x2="-1406.98243" y2="94.98996" gradientTransform="matrix(-0.99951, -0.03135, -0.03135, 0.99951, -948.92546, -85.65747)" xlink:href="#af"/><linearGradient id="ay" x1="-1424.00013" y1="100.84399" x2="-1360.08511" y2="100.84399" gradientTransform="matrix(-0.99951, -0.03135, -0.03135, 0.99951, -948.92546, -85.65747)" xlink:href="#b"/><linearGradient id="az" x1="-1377.71807" y1="89.519" x2="-1365.08486" y2="89.519" gradientTransform="matrix(-0.99951, -0.03135, -0.03135, 0.99951, -948.92546, -85.65747)" xlink:href="#af"/><linearGradient id="ba" x1="-1375.42386" y1="94.72426" x2="-1369.33429" y2="94.72426" gradientTransform="matrix(-0.99951, -0.03135, -0.03135, 0.99951, -948.92546, -85.65747)" xlink:href="#af"/><linearGradient id="bb" x1="-1375.42386" y1="96.452" x2="-1372.13832" y2="96.452" gradientTransform="matrix(-0.99951, -0.03135, -0.03135, 0.99951, -948.92546, -85.65747)" xlink:href="#af"/><linearGradient id="bc" x1="-1377.71807" y1="97.85402" x2="-1372.12169" y2="97.85402" gradientTransform="matrix(-0.99951, -0.03135, -0.03135, 0.99951, -948.92546, -85.65747)" xlink:href="#b"/><linearGradient id="bd" x1="-1376.50015" y1="94.39854" x2="-1370.86376" y2="94.39854" gradientTransform="matrix(-0.99951, -0.03135, -0.03135, 0.99951, -948.92546, -85.65747)" xlink:href="#b"/><linearGradient id="be" x1="-1365.68203" y1="61.95327" x2="-1445.97331" y2="50.90194" gradientTransform="matrix(-0.99951, -0.03135, -0.03135, 0.99951, -948.92546, -85.65747)" xlink:href="#af"/><linearGradient id="bf" x1="413.2392" y1="75.48473" x2="454.84925" y2="75.48473" gradientTransform="matrix(1, 0, 0, 1, 0, 0)" xlink:href="#af"/><linearGradient id="bg" x1="470.6463" y1="179.76751" x2="496.61966" y2="266.77828" xlink:href="#a"/><linearGradient id="bh" x1="476.24352" y1="78.98772" x2="472.98712" y2="87.92298" xlink:href="#v"/><linearGradient id="bi" x1="471.63268" y1="80.32218" x2="470.42968" y2="83.62309" xlink:href="#v"/><linearGradient id="bj" x1="-1373.92688" y1="95.48595" x2="-1372.19497" y2="95.48595" gradientTransform="matrix(-0.99951, -0.03135, -0.03135, 0.99951, -948.92546, -85.65747)" gradientUnits="userSpaceOnUse"><stop offset="0" stop-color="#769497"/><stop offset="1" stop-color="#576f71"/></linearGradient><linearGradient id="bk" x1="448.8709" y1="263.25846" x2="357.31478" y2="269.10247" xlink:href="#l"/><linearGradient id="bl" x1="376.86867" y1="263.41129" x2="384.71689" y2="322.92691" xlink:href="#l"/><linearGradient id="bm" x1="-1023.13301" y1="-580.90172" x2="-1036.3264" y2="-596.03532" gradientTransform="matrix(0.55096, -0.83453, 0.83453, 0.55096, 1453.67406, -193.86765)" xlink:href="#a"/><linearGradient id="bn" x1="-1024.70637" y1="-583.3191" x2="-1036.45399" y2="-596.79431" gradientTransform="matrix(0.55096, -0.83453, 0.83453, 0.55096, 1453.67406, -193.86765)" xlink:href="#v"/><linearGradient id="bo" x1="110.86373" y1="293.05068" x2="110.86373" y2="210.36427" xlink:href="#a"/><linearGradient id="bp" x1="255.96656" y1="235.00211" x2="449.50108" y2="235.00211" xlink:href="#b"/><linearGradient id="bq" x1="444.05046" y1="228.54086" x2="83.02067" y2="183.95325" xlink:href="#b"/><linearGradient id="br" x1="81.53517" y1="188.66334" x2="255.55672" y2="235.4154" xlink:href="#b"/><linearGradient id="bs" x1="285.7751" y1="345.4331" x2="285.34221" y2="245.00275" xlink:href="#a"/><linearGradient id="bt" x1="410.42898" y1="351.47159" x2="411.72765" y2="247.57813" xlink:href="#a"/><linearGradient id="bu" x1="495.12059" y1="143.0705" x2="472.28567" y2="160.16963" xlink:href="#a"/><linearGradient id="bv" x1="482.17974" y1="174.71459" x2="394.30318" y2="212.80886" xlink:href="#b"/><linearGradient id="bw" x1="466.5745" y1="161.52848" x2="490.43753" y2="177.1125" xlink:href="#v"/><linearGradient id="bx" x1="245.49167" y1="190.75261" x2="288.65612" y2="190.75261" xlink:href="#v"/><linearGradient id="by" x1="237.21479" y1="186.64156" x2="296.933" y2="186.64156" xlink:href="#v"/><linearGradient id="bz" x1="288.81775" y1="186.54661" x2="246.25924" y2="186.73245" xlink:href="#v"/><linearGradient id="ca" x1="247.43627" y1="187.42668" x2="286.71152" y2="187.42668" xlink:href="#g"/><linearGradient id="cb" x1="170.94469" y1="191.36284" x2="214.10914" y2="191.36284" xlink:href="#v"/><linearGradient id="cc" x1="162.66781" y1="187.25179" x2="222.38602" y2="187.25179" xlink:href="#v"/><linearGradient id="cd" x1="214.27077" y1="187.15684" x2="171.71226" y2="187.34269" xlink:href="#v"/><linearGradient id="ce" x1="172.88929" y1="188.03692" x2="212.16454" y2="188.03692" xlink:href="#g"/><linearGradient id="cf" x1="301.00322" y1="206.11475" x2="349.25487" y2="206.11475" xlink:href="#v"/><linearGradient id="cg" x1="291.75085" y1="201.51918" x2="358.50724" y2="201.51918" xlink:href="#v"/><linearGradient id="ch" x1="349.43556" y1="201.41304" x2="301.86125" y2="201.62079" xlink:href="#v"/><linearGradient id="ci" x1="303.177" y1="202.39684" x2="347.08109" y2="202.39684" xlink:href="#g"/><linearGradient id="cj" x1="219.2071" y1="204.72663" x2="193.66662" y2="207.75685" xlink:href="#l"/><linearGradient id="ck" x1="222.18976" y1="205.43259" x2="270.44141" y2="205.43259" xlink:href="#v"/><linearGradient id="cl" x1="212.93739" y1="200.83703" x2="279.69378" y2="200.83703" xlink:href="#v"/><linearGradient id="cm" x1="270.6221" y1="200.73089" x2="223.04779" y2="200.93864" xlink:href="#v"/><linearGradient id="cn" x1="224.36354" y1="201.71468" x2="268.26763" y2="201.71468" xlink:href="#g"/><linearGradient id="co" x1="64.04489" y1="216.0923" x2="66.85867" y2="164.14557" xlink:href="#v"/><linearGradient id="cp" x1="82.67626" y1="272.94017" x2="82.67626" y2="311.81953" xlink:href="#b"/><linearGradient id="cq" x1="62.9987" y1="281.92081" x2="43.3678" y2="323.08237" xlink:href="#b"/><linearGradient id="cr" x1="101.84773" y1="280.87678" x2="124.19181" y2="325.98654" xlink:href="#b"/><linearGradient id="cs" x1="49.52748" y1="262.90206" x2="120.5006" y2="262.90206" xlink:href="#b"/><linearGradient id="ct" x1="118.09694" y1="258.72065" x2="50.16184" y2="258.72065" xlink:href="#b"/><linearGradient id="cu" x1="-255.86781" y1="126.79374" x2="-255.47532" y2="134.56513" gradientTransform="translate(368.08261 112.51307) rotate(-12.8308)" xlink:href="#q"/><linearGradient id="cv" x1="-271.76514" y1="108.9707" x2="-271.52281" y2="113.76872" gradientTransform="translate(368.08261 112.51307) rotate(-12.8308)" xlink:href="#q"/><linearGradient id="cw" x1="-274.17846" y1="86.91876" x2="-272.40236" y2="122.08538" gradientTransform="translate(368.08261 112.51307) rotate(-12.8308)" xlink:href="#l"/><linearGradient id="cx" x1="-294.01948" y1="51.8417" x2="-272.68433" y2="80.04749" gradientTransform="translate(368.08261 112.51307) rotate(-12.8308)" xlink:href="#l"/><linearGradient id="cy" x1="-301.53222" y1="-40.1916" x2="-296.10803" y2="-28.9816" gradientTransform="translate(368.08261 112.51307) rotate(-12.8308)" xlink:href="#q"/><linearGradient id="cz" x1="-245.08106" y1="-80.23536" x2="-199.944" y2="-95.28105" gradientTransform="translate(315.23863 167.09446) rotate(-10.35804)" xlink:href="#q"/><linearGradient id="da" x1="-260.23095" y1="-115.31474" x2="-186.0118" y2="-73.79354" gradientTransform="translate(315.23863 167.09446) rotate(-10.35804)" xlink:href="#o"/><linearGradient id="db" x1="-616.92767" y1="996.16701" x2="-615.11121" y2="996.16701" gradientTransform="matrix(0.91577, -0.40169, 0.40169, 0.91577, 258.81381, -1045.74929)" xlink:href="#o"/><linearGradient id="dc" x1="-215.09612" y1="-91.77543" x2="-207.10353" y2="-96.45681" gradientTransform="translate(315.23863 167.09446) rotate(-10.35804)" xlink:href="#q"/><linearGradient id="dd" x1="-222.72225" y1="-87.87374" x2="-203.88705" y2="-91.30909" gradientTransform="translate(315.23863 167.09446) rotate(-10.35804)" xlink:href="#q"/><linearGradient id="de" x1="-620.82532" y1="994.33513" x2="-613.79866" y2="994.33513" gradientTransform="matrix(0.91577, -0.40169, 0.40169, 0.91577, 258.81381, -1045.74929)" xlink:href="#o"/><linearGradient id="df" x1="-620.82532" y1="996.70589" x2="-614.44168" y2="996.70589" gradientTransform="matrix(0.91577, -0.40169, 0.40169, 0.91577, 258.81381, -1045.74929)" gradientUnits="userSpaceOnUse"><stop offset="0" stop-color="#957a53"/><stop offset="1" stop-color="#f5e1be"/></linearGradient><linearGradient id="dg" x1="-281.42471" y1="-117.76255" x2="-249.80967" y2="-123.52881" gradientTransform="translate(315.23863 167.09446) rotate(-10.35804)" xlink:href="#df"/><linearGradient id="dh" x1="87.2517" y1="187.90401" x2="95.69304" y2="221.2365" xlink:href="#v"/><linearGradient id="di" x1="491.3865" y1="193.73142" x2="482.58725" y2="199.93911" gradientTransform="translate(-344.92432 -181.91349) rotate(11.54442)" xlink:href="#df"/><linearGradient id="dj" x1="-152.13771" y1="27.03065" x2="-141.78106" y2="27.03065" gradientTransform="translate(242.8779 84.50097) rotate(-8.77156)" xlink:href="#q"/><linearGradient id="dk" x1="-299.44505" y1="61.78446" x2="-256.79626" y2="100.81895" gradientTransform="translate(368.08261 112.51307) rotate(-12.8308)" xlink:href="#l"/><linearGradient id="dl" x1="-28.33964" y1="-44.03024" x2="-9.33792" y2="-44.03024" gradientTransform="translate(172.02522 346.88269) rotate(-4.62203)" xlink:href="#g"/><linearGradient id="dm" x1="2107.5078" y1="-571.50597" x2="2126.50951" y2="-571.50597" gradientTransform="translate(-1238.04107 -1437.20605) rotate(66.91103)" xlink:href="#g"/><linearGradient id="dn" x1="87.16394" y1="184.4233" x2="119.19776" y2="179.22862" xlink:href="#v"/><linearGradient id="do" x1="150.65987" y1="196.51275" x2="159.32718" y2="191.23053" gradientTransform="matrix(1, 0, 0, 1, 0, 0)" xlink:href="#q"/><linearGradient id="dp" x1="248.15049" y1="224.60501" x2="259.96506" y2="217.40472" gradientTransform="matrix(1, 0, 0, 1, 0, 0)" xlink:href="#af"/><linearGradient id="dq" x1="275.03517" y1="197.50126" x2="260.74982" y2="217.14362" xlink:href="#v"/><linearGradient id="dr" x1="169.89394" y1="113.66501" x2="192.02214" y2="100.17915" gradientTransform="matrix(-0.67078, -0.74166, -0.74166, 0.67078, 582.66438, 258.64482)" xlink:href="#v"/><linearGradient id="ds" x1="374.82977" y1="214.79428" x2="383.48756" y2="213.9285" xlink:href="#b"/><linearGradient id="dt" x1="179.87064" y1="292.75993" x2="179.87064" y2="331.63929" xlink:href="#b"/><linearGradient id="du" x1="160.19308" y1="301.74057" x2="140.56219" y2="342.90213" xlink:href="#b"/><linearGradient id="dv" x1="199.04211" y1="300.69654" x2="221.38619" y2="345.8063" xlink:href="#b"/><linearGradient id="dw" x1="146.72186" y1="282.72182" x2="217.69498" y2="282.72182" xlink:href="#b"/><linearGradient id="dx" x1="215.29132" y1="278.54041" x2="147.35622" y2="278.54041" xlink:href="#b"/><linearGradient id="dy" x1="216.43972" y1="309.10773" x2="212.77584" y2="315.78892" gradientTransform="matrix(1, 0, 0, 1, 0, 0)" xlink:href="#af"/><linearGradient id="dz" x1="208.26916" y1="320.83257" x2="212.02848" y2="316.73019" xlink:href="#l"/><linearGradient id="ea" x1="206.84072" y1="328.29482" x2="204.93485" y2="329.40022" xlink:href="#v"/><linearGradient id="eb" x1="-650.4119" y1="265.38768" x2="-642.24953" y2="265.38768" gradientTransform="translate(656.42115 -211.01702) rotate(-27.97)" xlink:href="#a"/><linearGradient id="ec" x1="211.46998" y1="316.3339" x2="210.80186" y2="317.55223" xlink:href="#v"/><linearGradient id="ed" x1="211.05675" y1="317.21031" x2="210.45697" y2="318.30403" xlink:href="#v"/><linearGradient id="ee" x1="212.19772" y1="310.21487" x2="219.80111" y2="310.21487" xlink:href="#g"/><linearGradient id="ef" x1="185.45124" y1="177.15843" x2="177.00989" y2="172.12609" gradientTransform="matrix(1, 0, 0, 1, 0, 0)" xlink:href="#af"/><linearGradient id="eg" x1="165.78448" y1="281.17473" x2="232.58392" y2="281.17473" xlink:href="#g"/><linearGradient id="eh" x1="157.97641" y1="252.2387" x2="212.3649" y2="252.2387" xlink:href="#l"/><linearGradient id="ei" x1="165.31637" y1="252.2387" x2="205.32979" y2="252.2387" xlink:href="#l"/><linearGradient id="ej" x1="155.50644" y1="252.2387" x2="205.06864" y2="252.2387" xlink:href="#l"/><linearGradient id="ek" x1="198.55128" y1="132.49165" x2="176.87517" y2="157.48294" gradientTransform="matrix(1, 0, 0, 1, 0, 0)" xlink:href="#af"/><linearGradient id="el" x1="195.67324" y1="108.46324" x2="159.27705" y2="132.0639" xlink:href="#o"/><linearGradient id="em" x1="-2934.89059" y1="-34.26906" x2="-2928.80102" y2="-34.26906" gradientTransform="matrix(0.97404, -0.22636, 0.22636, 0.97404, 3067.36208, -488.34532)" xlink:href="#o"/><linearGradient id="en" x1="-2934.89059" y1="-32.54132" x2="-2931.60505" y2="-32.54132" gradientTransform="matrix(0.97404, -0.22636, 0.22636, 0.97404, 3067.36208, -488.34532)" xlink:href="#o"/><linearGradient id="eo" x1="-2937.1848" y1="-31.1393" x2="-2931.58842" y2="-31.1393" gradientTransform="matrix(0.97404, -0.22636, 0.22636, 0.97404, 3067.36208, -488.34532)" xlink:href="#af"/><linearGradient id="ep" x1="-2935.96688" y1="-34.59478" x2="-2930.33049" y2="-34.59478" gradientTransform="matrix(0.97404, -0.22636, 0.22636, 0.97404, 3067.36208, -488.34532)" xlink:href="#af"/><linearGradient id="eq" x1="-2933.39361" y1="-33.50737" x2="-2931.6617" y2="-33.50737" gradientTransform="matrix(0.97404, -0.22636, 0.22636, 0.97404, 3067.36208, -488.34532)" xlink:href="#bj"/><linearGradient id="er" x1="203.45262" y1="142.72088" x2="203.89721" y2="142.72088" xlink:href="#o"/><linearGradient id="es" x1="200.96975" y1="138.37492" x2="207.99921" y2="138.37492" xlink:href="#o"/><linearGradient id="et" x1="375.36224" y1="221.94255" x2="384.72554" y2="221.94255" gradientTransform="matrix(-0.83837, -0.54511, -0.54511, 0.83837, 647.39644, 183.04707)" xlink:href="#af"/><linearGradient id="eu" x1="185.08485" y1="229.8368" x2="163.00748" y2="268.79685" xlink:href="#l"/><linearGradient id="ev" x1="174.12035" y1="184.60584" x2="174.44501" y2="195.42807" xlink:href="#l"/><linearGradient id="ew" x1="171.04573" y1="179.55266" x2="183.59953" y2="187.66934" xlink:href="#l"/><linearGradient id="ex" x1="179.06175" y1="181.42004" x2="164.99285" y2="178.38981" xlink:href="#l"/><linearGradient id="ey" x1="199.17365" y1="205.43644" x2="223.19901" y2="238.22782" xlink:href="#l"/></defs><g class="a"><path class="b" d="M544.63454,346.10491c0-3.36748-21.97653-6.25858-53.35726-7.51083,31.916-4.12031,50.71727-9.172,50.71727-14.6312,0-13.8715-121.32927-25.11651-270.9971-25.11651S0,310.09138,0,323.96288c0,9.43494,56.14073,17.65334,139.14043,21.94619-24.3893,1.45436-40.55807,3.99035-40.55807,6.878,0,4.51475,39.49,8.17472,88.2031,8.17472,19.80851,0,38.09091-.60525,52.81409-1.627,15.93225,1.45991,37.82791,2.362,62.00217,2.362q2.79743,0,5.54691-.01773c3.92241,4.1787,41.74173,7.45762,87.84528,7.45762,48.71277,0,88.20239-3.66,88.20239-8.17485,0-2.80833-15.28388-5.28519-38.55786-6.75693q5.79022.07169,11.793.07494C505.14492,354.27976,544.63454,350.61979,544.63454,346.10491Z"/><rect class="c" x="233.48049" y="194.6963" width="5.84401" height="113.39887"/><rect class="d" x="366.39745" y="262.92179" width="5.56731" height="50.00797"/><polygon class="e" points="334.141 324.027 357.837 260.26 352.877 256.796 327.893 324.027 334.141 324.027"/><polygon class="f" points="410.711 324.027 385.728 256.796 380.767 260.26 404.464 324.027 410.711 324.027"/><path class="g" d="M395.19267,254.64174a198.26247,198.26247,0,0,0-50.05191,0h-11.3333v4.18141c0,3.18519,16.27873,5.76727,36.35906,5.76727,20.08072,0,36.35905-2.58208,36.35905-5.76727v-4.18141Z"/><ellipse class="h" cx="370.16666" cy="254.64176" rx="36.359" ry="5.76724"/><ellipse class="b" cx="369.23194" cy="253.98904" rx="28.84724" ry="3.42681"/><path class="i" d="M364.05642,154.33726s-22.9089,32.4254-55.75249,37.99457l6.09478,1.60088s9.468.449,36.20008-5.62634S364.05642,154.33726,364.05642,154.33726Z"/><polygon class="j" points="288.233 272.588 289.863 279.961 291.767 281.023 290.522 283.999 286.248 286.245 285.006 283.549 282.722 273.72 288.233 272.588"/><path class="k" d="M301.02124,286.92308s4.17546,8.80529,1.65415,11.92329c0,0-.81271,3.49677-.42245,3.49677s4.28627,1.25552,4.50271,1.00654,3.24667-1.43943,3.24667-1.65587a26.48452,26.48452,0,0,0-1.2994-2.501l-2.17159-14.867Z"/><path class="l" d="M380.59393,221.41591s-20.75521,26.22083-54.52059,19.2946-47.36441-4.26853-37.84084,31.87774L282.72241,273.72s-13.60562-44.85049,17.07384-45.33533c32.195-.50878,32.33755-2.80267,33.63621-10.17308S380.59393,221.41591,380.59393,221.41591Z"/><path class="m" d="M322.361,216.63755s1.115,25.37163,29.68571,29.48408,43.9148-11.5026,43.9148-11.5026l-15.777-27.241Z"/><path class="n" d="M362.14045,137.823c.64551.46006,1.26346.926,1.88678,1.39093A7.36833,7.36833,0,0,0,362.14045,137.823Z"/><path class="o" d="M343.984,209.26657c-1.59337,2.39775-3.0479,4.77349-4.39867,7.13008,12.202.97989,29.9906,4.50486,50.42887,15.018,7.842-21.61889,14.62477-61.89473-25.987-92.20075C368.49245,143.53593,377.00568,159.58322,343.984,209.26657Z"/><path class="p" d="M371.764,130.46105l-9.62354,7.362a7.36833,7.36833,0,0,1,1.88678,1.39093c-.62332-.4649-1.24127-.93087-1.88678-1.39093,0,0,14.7239,19.24717-22.27888,43.39316-12.57627,8.20657-17.90348,20.648-17.50057,35.42139.00966-.00169,6.43823-1.10709,17.22433-.2409,12.202.97989,29.9906,4.50486,50.42887,15.018,1.96156,1.009,3.93958,2.06246,5.94731,3.20435C427.86179,193.38173,371.764,130.46105,371.764,130.46105Z"/><path class="q" d="M309.77322,93.20584s-.52527,6.4639-8.37781,6.72565c0,0,10.2083,5.57666,17.53734-3.36283,0,0,4.188,1.53057,0,4.14808,0,0,12.61488,2.06,13.63647-3.28892S339.0876,71.9241,321.812,82.6559,309.77322,93.20584,309.77322,93.20584Z"/><path class="r" d="M314.70946,100.1317s4.41451,13.14911,0,18.38413,4.22329,4.71153,4.74679,6.80554a3.94037,3.94037,0,0,1-1.19059,3.62142c5.86028-.63321,8.09254,1.65012,7.93572,2.7179-.32137,2.18821-7.00258,3.89069-3.86157,5.723s-.78955,7.30732,5.75423,6.52207,20.77719-22.75623,29.47515-12.56406c3.69055,4.32454,4.57126,6.48135,4.57126,6.48135l9.62354-7.362s-3.14374-3.96239.67427-11.09482-17.64559-23.88451-17.64559-23.88451S326,83.96466,325.21478,84.48816,314.70946,100.1317,314.70946,100.1317Z"/><path class="s" d="M320.89623,105.37827s-.76327,2.789-1.20982,2.87548c0,0-.57085,1.09952,4.43953,2.87548"/><path class="t" d="M326.41254,105.58558s-10.72564-8.452-8.80128-.58441C317.61126,105.00117,317.94048,100.82931,326.41254,105.58558Z"/><polygon class="u" points="319.689 108.336 318.714 109.196 324.325 110.996 319.689 108.336"/><polygon class="v" points="321.485 110.094 319.667 110.309 320.393 111.129 322.124 110.218 321.485 110.094"/><path class="w" d="M365.79344,98.2395s21.19465,30.74638,25.90617,31.53164c0,0-8.63779-.3503-11.51706-2.66179v4.2323a80.73553,80.73553,0,0,1-19.50709-16.55108c-9.73692-11.17288-8.085-15.88719-8.085-15.88719Z"/><path class="x" d="M313.45756,88.218s1.21915-15.40112,18.32125-22.47785,37.265-1.129,42.75524,25.53093a31.07942,31.07942,0,0,0,2.34134,6.96852c10.1431,21.56906,42.03528,30.336,23.60667,29.63833-20.29951-.76854-41.87065-15.25444-42.16551-27.93358,0,0-42.95182-7.72349-46.68676-9.3413S313.45756,88.218,313.45756,88.218Z"/><path class="y" d="M338.14247,96.21606s1.92174,5.70037,14.342,14.39541c0,0-2.09616-8.28643.106-11.70809Z"/><path class="z" d="M353.16009,64.65574c-2.55941,1.01758-7.33779-1.44912-4.49142-2.79124S355.71951,63.63816,353.16009,64.65574Z"/><path class="aa" d="M320.51044,131.2041s.37516,2.90176,1.00927,2.58549a7.80186,7.80186,0,0,0,4.12039-3.32854l.56128,1.19964-.91716-1.63656-2.63456-.41015Z"/><path class="ab" d="M318.26566,128.94279s-.22311,2.14851.95852,2.5127,4.08688-2.38813,5.82412-1.17206.29188,2.54416-.78316,3.22484-3.6659,2.00557-2.89319,4.22161,4.99225-5.04607,5.03591-5.33446a2.668,2.668,0,0,0-1.93781-3.03916C322.30715,128.8284,318.84853,127.54087,318.26566,128.94279Z"/><path class="ac" d="M311.74463,303.34968l-2.00266-4.15689h-1.039s1.31638,2.70193-2.2864,2.28625-3.74113-2.63267-3.74113-2.63267l-6.6512,2.9791c-10.04568-.2771-11.98542,4.0183-11.98542,4.0183S311.87657,307.71441,311.74463,303.34968Z"/><path class="ad" d="M284.03877,305.84377l-1.31638.485.90833,1.73206H309.742c6.37388,0,2.00266-4.71116,2.00266-4.71116C311.87657,307.71441,284.03877,305.84377,284.03877,305.84377Z"/><path class="ae" d="M294.93352,281.48256c-1.39124-.74222-2.81556-1.42061-4.227-2.1246-.27639.20815-.56722.39025-.84316.60326,1.72682.89718.99022,2.39011-.30264,3.31872s-3.28241,1.54987-4.55488.26926a45.76738,45.76738,0,0,0-2.84061,6.52794c-3.27307,1.47164-7.93127,2.1293-8.72274,6.29392C281.32471,293.45985,294.223,294.7904,294.93352,281.48256Z"/><path class="af" d="M273.43737,296.37563c-.3511.30985-.7129.6241-1.08023.94894.571.33887.75649,1.02134,1.57444,1.1398,9.34242-2.61076,15.17752-4.55884,21.62648-10.86137s.76842-3.36583-.469-6.25912C290.65789,294.1233,281.4182,293.37484,273.43737,296.37563Z"/><path class="ag" d="M395.96151,234.619s-20.75522,26.22084-54.52059,19.29461-44.43316-5.73416-34.90959,30.41211l-5.51009,2.59733s-16.53687-44.85048,14.14258-45.33532c32.195-.50879,32.33755-2.80268,33.63622-10.17308S395.96151,234.619,395.96151,234.619Z"/><path class="ah" d="M376.898,169.66386s1.22107,35.33144-31.5315,50.13909l3.88839,3.11964s35.43512-16.39433,44.09291-38.3912"/><path class="ai" d="M188.08842,277.29841,250.53626,310.306l1.13633-4.58233s-20.72567-11.688-52.48839-36.84972Z"/><polygon class="aj" points="250.502 310.24 254.658 313.226 258.542 311.234 252.91 306.547 250.502 310.24"/><path class="ak" d="M254.65778,313.2262s-.074.21382.08168.29411c.0586.03022.2938-.10515.36824-.06464.81669.44444,2.48423,1.49026,2.75747,2.74582.36432,1.67409,3.27164,1.59091,3.55091,1.45784a31.28075,31.28075,0,0,0,1.94427-3.68639l-2.32472-1.88927s-.73715.39959-2.66066-.96231c-.07448-.05273.07081-.27395-.00422-.33462-.07105-.05745-.3624.04606-.43379-.01888Z"/><path class="al" d="M258.8872,322.149a.30267.30267,0,0,0-.1998.456c.16313.37317.473,1.59086.473,1.59086s.68919,1.012,1.07853.884,9.31661-6.30288,9.31661-6.30288l6.35055-4.35595a18.44673,18.44673,0,0,0,1.72913-2.01994c.09595-.30744.31334-1.6043-.58609-1.872l-.24206.15917-2.13271,2.37735-15.48713,8.31215Z"/><path class="am" d="M261.03563,312.08367l.76941,1.70013a3.81522,3.81522,0,0,1-1.05176,1.93248c-.736.51507-1.30921,1.43926-2.88811.48521s-.50787,3.08118-.50787,3.08118l.06123.08146s.44835,2.18329,1.12142,2.70888l.34725.076s7.04723-3.71521,7.1737-3.77748,7.69849-3.86281,7.69849-3.86281,2.94561-1.97061,3.24366-2.69884.14568-1.34786-.62391-1.44715-7.0377,1.65524-7.0377,1.65524l-.922-.26839-2.92456.1737-1.296-.39558-.54617.45329a3.15089,3.15089,0,0,0-1.92044-.20381Z"/><polygon class="an" points="255.482 313.669 258.542 311.234 258.978 311.492 255.839 313.903 255.482 313.669"/><polygon class="ao" points="256.284 314.218 259.36 311.517 259.771 311.688 256.632 314.53 256.284 314.218"/><path class="ap" d="M251.67259,303.938c-.64933.64933-2.27267,7.06151-2.27267,7.06151a13.676,13.676,0,0,0,2.27267,1.05516c-.16233-.2435,1.7045-7.305,1.7045-7.305Z"/><rect class="aq" x="475.49026" y="302.20751" width="5.84401" height="33.92243"/><polygon class="ar" points="441.63 342.972 466.505 294.137 461.298 291.485 435.072 342.972 441.63 342.972"/><polygon class="as" points="522.007 342.972 495.781 291.485 490.574 294.137 515.449 342.972 522.007 342.972"/><path class="at" d="M525.44985,287.58111a319.12446,319.12446,0,0,0-45.34425-2.87328,319.12123,319.12123,0,0,0-45.34355,2.87328H414.22754v7.57619c0,5.77118,29.495,10.44957,65.87806,10.44957,36.38375,0,65.87806-4.67839,65.87806-10.44957v-7.57619Z"/><ellipse class="au" cx="480.10586" cy="287.58116" rx="65.87795" ry="10.44952"/><ellipse class="b" cx="478.41227" cy="286.39851" rx="52.26758" ry="6.20896"/><path class="av" d="M386.22781,323.88717s5.64468,6.17556,5.81416,10.39623,5.68882-9.19228,5.68882-9.19228l-3.21584-1.47938L390.186,321.388Z"/><path class="aw" d="M350.73088,280.38178l-.13209,9.20818,6.747,3.01751,2.55124-7.29335a5.92391,5.92391,0,0,1-2.45637-4.92926C357.43142,276.97584,350.73088,280.38178,350.73088,280.38178Z"/><path class="ax" d="M326.95705,300.73178c-.08016.30064-1.77326,1.36833.13114,2.83242s20.03292,3.10689,33.931-4.15906C373.86642,292.6886,363.128,288.438,363.128,288.438l-2.28879,3.25992s-21.63513,5.63545-21.80088,5.6541S326.95705,300.73178,326.95705,300.73178Z"/><path class="ay" d="M348.83719,288.45357s-5.78111,8.47287-10.70028,7.9718-10.25713,2.6859-10.25713,2.6859-2.54892,3.19608.34816,3.09384,21.75476.40474,30.79345-4.78616,4.58838-8.942.87565-12.10483a4.85054,4.85054,0,0,1-4.44527,4.248C351.4554,289.8447,351.337,285.81513,348.83719,288.45357Z"/><path class="az" d="M392.042,218.47574s-1.26882,18.40066,10.4192,30.08867L534.6994,269.28515l3.68905-43.66388L422.807,188.30637Z"/><path class="ba" d="M477.8563,76.8599s-6.98264-4.52416-6.41463-8.5981-16.14424-1.09963-16.14424-1.09963l-4.28107,8.587s18.90178-6.13947,21.25758,3.80351S477.8563,76.8599,477.8563,76.8599Z"/><path class="bb" d="M462.41856,70.89518s.883-.219-2.33754-2.34278S471.0679,57.867,471.0679,57.867L444.597,60.87145,427.68683,47.08536,418.1209,25.01582s-3.72643,1.35666-3.99156-1.032-.48241-9.64988,8.53052-13.44778,33.41023-15.50114,47.79779-8.02214,19.42292,9.56388,20.78365,24.002-.787,31.76117-10.66656,42.7541C472.42008,78.34363,462.41856,70.89518,462.41856,70.89518Z"/><path class="bc" d="M418.1209,25.01582c-.38458.29926-1.91859,5.15392-2.14371,8.71738s-3.775,8.32617-.74307,14.65553c0,0,.36238,2.90179-.59148,4.4021s-4.94627,7.72268-5.35326,8.05-2.688,2.57941-2.07068,4.5824,1.36909,3.3301,3.50287,3.96378,2.53366.53287,2.51768,1.04244a7.18765,7.18765,0,0,0,3.27795,5.71365s-4.5994,3.65849-.1403,4.47292c1.79709.32823,1.61866,2.60115,1.35312,3.83967s-.25773,10.0234,6.273,9.60482,21.98271-1.57747,30.47261-21.09076l.37346-1.06511s1.32512,1.11839,2.23813.92033,3.86787-.44543,5.33131-1.92975,8.86919-9.92331,8.90513-14.68288-2.52728-9.7707-5.74037-10.32489a12.26165,12.26165,0,0,0-9.49471,2.76264c-2.33226,2.08049-11.13041,9.739-11.13041,9.739l-6.2395-8.867s1.50606-2.84319-.64349-4.78089-13.07665-5.90765-11.26974-9.30815,7.53143-8.83177,7.53143-8.83177S426.312,18.64177,418.1209,25.01582Z"/><path class="bd" d="M425.24508,49.04279s-7.9726-1.98807-9.18278-1.76159-.82818,1.10753-.82818,1.10753-2.6398-.76291-2.54944-1.8369a1.90108,1.90108,0,0,1,2.495-1.84869,36.43961,36.43961,0,0,1,5.59958,2.16555l4.48179,1.66452Z"/><path class="be" d="M422.82324,53.07576c-.11235-.03186-4.32939-2.00607-4.32939-2.00607l-1.70835.25812,2.84507.54264Z"/><polygon class="bf" points="422.823 53.076 419.5 54.218 419.73 54.566 422.823 53.076"/><path class="bg" d="M419.73022,54.56564s-1.20958,1.974,1.31342,2.84662l4.04071-3.24542-2.26111-1.09108Z"/><polygon class="bh" points="422.823 53.076 418.332 50.81 418.543 50.419 423.911 52.741 422.823 53.076"/><path class="bi" d="M418.1209,25.01582s.05228-4.90342,5.68356-3.22223,7.33156,5.67077,13.0006,5.62189,24.51764-11.92617,33.48083-8.58457,9.28117,7.65887,9.28117,7.65887,2.3145-1.5143,1.12571-3.36519c0,0,3.23064,1.80158,2.3918,3.24882,0,0,3.0401-2.96509,1.94679-4.24624,0,0,3.49619.56307,2.83764,3.48951,0,0,3.10592-10.08149-3.25026-15.6309A40.33955,40.33955,0,0,0,457.61446.00444C446.38755.172,421.8557,9.06116,417.77,12.775s-5.893,10.6848-4.40959,12.20489S417.075,25.74929,418.1209,25.01582Z"/><path class="bj" d="M450.66492,69.78977c-1.85386-4.1388-5.7065-11.40065-5.7065-11.40065l-1.0892-1.54739c-1.44129,2.84466-4.18219,11.539-6.6905,12.865-2.10541,1.11308-5.53725,4.12341-8.41018,6.82083-.13454-1.16336-.88238-2.66253-3.07653-4.40985-1.27383-1.01433-7.12346-1.74785-9.49615-1.99233s-2.95666.304-2.95666.304.26049,2.71549,1.32894,3.89907c0,0,10.40967-3.50663,10.26189-.93418-.09625,1.68014-.62976,5.26271-1.07024,8.03241l-.04186.043-.56858,3.666s-.82692,1.44756-1.88034,1.41455-3.02428-.43493-3.02393-2.24853c0-1.81361.15244-3.0556-.858-3.37066l-1.01012-.31515a3.277,3.277,0,0,1,1.47314,3.03109c-.287,1.918-.4258,6.36292,2.08859,8.99065,1.91183,1.99761,3.58893,1.52127,6.97211,1.1893,3.21393-.31542,20.10442-1.63282,27.9385-21.92241C454.84925,71.90457,452.51842,73.92849,450.66492,69.78977Z"/><path class="aa" d="M416.5172,76.14306a20.02488,20.02488,0,0,0,5.19472-1.40211,6.1363,6.1363,0,0,1-4.22067,3.81605C414.13636,79.47689,416.5172,76.14306,416.5172,76.14306Z"/><path class="bk" d="M477.85627,76.85992l-5.58233,2.69276s14.65877,39.4814-53.26709,89.16385c-17.81795,13.0324-26.41778,30.246-26.96488,49.75921.23508-.13016,24.11843-13.27124,58.53275-6.209,22.27316,4.57078,48.95179,17.61561,76.48811,48.13659,2.53944,2.81487,5.08532,5.7625,7.63657,8.88179a153.32756,153.32756,0,0,0,20.29406-21.97286C605.82309,179.47687,477.85627,76.85992,477.85627,76.85992Z"/><polygon class="bl" points="477.856 76.86 472.274 79.553 470.813 87.235 480.106 78.718 477.856 76.86"/><polygon class="bm" points="472.274 79.553 469.622 83.367 471.685 82.65 472.274 79.553"/><polygon class="aa" points="419.631 51.87 419.984 54.052 422.823 53.076 419.631 51.87"/><path class="bn" d="M421.315,52.50636s.08165,1.05994-.15324,1.14071-.51756.2388-.821-.02575a6.45077,6.45077,0,0,1-.71019-1.75087Z"/><path class="bo" d="M534.6994,269.28515s-38.71639,32.09177-83.9622,19.10509-94.5952-61.46416-93.29653-8.00538l-6.70979-.00308s-2.81378-33.54893,17.532-39.60938,61.90319-5.62756,80.95033,0Z"/><path class="bp" d="M402.62276,266.87338c-8.35794-4.21081-16.06393-7.829-22.65853-9.70127-.00072,0-25.76981.26718-26.20277,21.04519-.433,20.77873,32.46635,45.66987,32.46635,45.66987l3.9582-2.49918S331.4673,265.66354,402.62276,266.87338Z"/><path class="bq" d="M385.24212,358.77938c.17944.25419-.08589,2.23816,2.25845,1.71441s15.22272-13.388,18.551-28.71365c3.07661-14.16676-7.068-8.64692-7.068-8.64692l1.03589,3.84611s-9.53808,20.22035-9.63,20.35954S385.24212,358.77938,385.24212,358.77938Z"/><path class="br" d="M389.83764,334.11409s2.79983,9.86771-.73716,13.323-4.51109,9.59546-4.51109,9.59546.82018,4.00489,2.59821,1.71533,14.2517-16.44148,16.05893-26.70682-3.92434-9.25274-8.73158-8.42931a4.85056,4.85056,0,0,1,.41249,6.1348C392.5834,332.99559,389.4141,330.50421,389.83764,334.11409Z"/><rect class="bs" x="107.94173" y="194.6963" width="5.84401" height="113.39887"/><rect class="bt" x="255.96656" y="229.41936" width="193.53452" height="11.1655"/><polygon class="bu" points="255.967 229.419 81.263 183.531 274.797 183.531 449.501 229.419 255.967 229.419"/><polygon class="bv" points="81.263 183.531 81.263 194.696 255.967 240.585 255.967 229.419 81.263 183.531"/><rect class="bw" x="282.64556" y="240.58486" width="5.84401" height="113.39887"/><rect class="bx" x="408.18432" y="240.58486" width="5.84401" height="113.39887"/><path class="by" d="M506.29049,163.60866l-19.87184-47.09327a169.73156,169.73156,0,0,1-20.75923,46.80872l24.21576,16.74548A215.78209,215.78209,0,0,0,506.29049,163.60866Z"/><path class="bz" d="M386.2279,212.05781l.6269,6.96879s48.9067,9.63186,103.02038-38.957l-24.21576-16.74548C450.34477,187.08481,425.25379,211.167,386.2279,212.05781Z"/><polygon class="ca" points="468.188 159.258 493.591 176.648 489.875 180.07 465.659 163.324 468.188 159.258"/><ellipse class="b" cx="268.82545" cy="198.19625" rx="22.98174" ry="3.39336"/><path class="cb" d="M288.65612,186.07991c0,6.84035-4.48448,12.38556-21.58223,12.38556s-21.58222-5.54521-21.58222-12.38556,9.66269,0,21.58222,0S288.65612,179.23956,288.65612,186.07991Z"/><ellipse class="cc" cx="267.07389" cy="186.64156" rx="29.8591" ry="5.38951"/><ellipse class="cd" cx="267.07389" cy="186.64156" rx="21.58222" ry="2.7204"/><ellipse class="ce" cx="267.07389" cy="187.42668" rx="19.63763" ry="1.64103"/><ellipse class="b" cx="194.27847" cy="198.80648" rx="22.98174" ry="3.39336"/><path class="cf" d="M214.10914,186.69015c0,6.84035-4.48448,12.38555-21.58223,12.38555s-21.58222-5.5452-21.58222-12.38555,9.66269,0,21.58222,0S214.10914,179.84979,214.10914,186.69015Z"/><ellipse class="cg" cx="192.52691" cy="187.25179" rx="29.8591" ry="5.38951"/><ellipse class="ch" cx="192.52691" cy="187.25179" rx="21.58222" ry="2.7204"/><ellipse class="ci" cx="192.52691" cy="188.03692" rx="19.63763" ry="1.64103"/><ellipse class="b" cx="327.08704" cy="214.43567" rx="25.69028" ry="3.79329"/><path class="cj" d="M349.25487,200.89134c0,7.64653-5.013,13.84527-24.12583,13.84527s-24.12582-6.19874-24.12582-13.84527,10.8015,0,24.12582,0S349.25487,193.24481,349.25487,200.89134Z"/><ellipse class="ck" cx="325.12904" cy="201.51918" rx="33.37819" ry="6.02469"/><ellipse class="cl" cx="325.12904" cy="201.51918" rx="24.12583" ry="3.04102"/><ellipse class="cm" cx="325.12904" cy="202.39684" rx="21.95205" ry="1.83443"/><path class="cn" d="M187.03929,202.39684s3.319,5.45956,32.84121,1.48121l4.483.68216,1.23958,2.81781s-8.58082,7.01851-37.51467,4.68"/><ellipse class="b" cx="248.27358" cy="213.75351" rx="25.69028" ry="3.79329"/><path class="co" d="M270.44141,200.20919c0,7.64653-5.013,13.84527-24.12582,13.84527s-24.12583-6.19874-24.12583-13.84527,10.8015,0,24.12583,0S270.44141,192.56265,270.44141,200.20919Z"/><ellipse class="cp" cx="246.31559" cy="200.83703" rx="33.37819" ry="6.02469"/><ellipse class="cq" cx="246.31559" cy="200.83703" rx="24.12583" ry="3.04102"/><ellipse class="cr" cx="246.31559" cy="201.71468" rx="21.95205" ry="1.83443"/><path class="cs" d="M66.64757,154.55775s-29.30791,43.14108,6.76469,68.1484l.64792-4.47719s-16.63287-20.545-3.731-46.34463S66.64757,154.55775,66.64757,154.55775Z"/><rect class="ct" x="79.8926" y="267.00067" width="5.56731" height="50.00797"/><polygon class="cu" points="47.636 328.106 71.332 264.338 66.372 260.875 41.388 328.106 47.636 328.106"/><polygon class="cv" points="124.207 328.106 99.223 260.875 94.262 264.338 117.959 328.106 124.207 328.106"/><path class="cw" d="M108.68782,258.72062a176.13,176.13,0,0,0-25.02615-1.5858,176.12812,176.12812,0,0,0-25.02576,1.5858H47.30261V262.902c0,3.1852,16.27873,5.76727,36.35906,5.76727,20.08072,0,36.35906-2.58207,36.35906-5.76727v-4.18141Z"/><ellipse class="cx" cx="83.66182" cy="258.72065" rx="36.359" ry="5.76724"/><ellipse class="b" cx="82.72709" cy="258.06793" rx="28.84724" ry="3.42681"/><path class="cy" d="M149.58761,288.02309s-1.21415,6.41056,1.2623,9.826-5.73,3.41979-6.07213,3.00322.78184-6.996.78184-6.996l.2671-4.97664Z"/><path class="cz" d="M134.11061,278.98024a18.916,18.916,0,0,1-9.53324,6.1019c-5.9322,1.44774-.2298-6.774-.2298-6.774l2.34127.49139,3.20867-3.09837Z"/><path class="da" d="M89.15691,248.24681s22.21445-10.17423,42.79332-8.7576c22.5076,1.54939,17.63738,48.53388,17.63738,48.53388l-3.76089.85658s.09258-39.96236-15.06611-41.9493-41.6037,1.31644-41.6037,1.31644Z"/><path class="db" d="M114.97956,234.40027s-2.369,10.376-5.4947,13.3132S69.52229,241.9804,69.1333,232.67353s.2349-20.61553.2349-20.61553l21.10835-12.18473,22.51059,25.77911Z"/><path class="dc" d="M65.75017,151.37861s-6.16979-12.806-6.39189-18.91708,17.07893,11.5872,17.07893,11.5872-8.87759.46437-3.43307,4.39266"/><path class="dd" d="M86.63428,86.01423s8.87687,2.89363,11.9069,11.23521-1.7062,16.871,3.0412,20.38252,4.08988,5.54767,2.44142,8.31231c0,0,2.00633,2.59353,1.9144,3.97886s-6.703,1.03006-7.664,2.124c-2.05454,2.33873,7.62188,4.17782,6.68348,5.0336s-1.05462,2.98135-.55912,4.94357-.12315,4.12256-4.17369,4.86842c-18.82862,3.46705-40.9172-10.53884-46.47739-15.437C45.75474,124.41469,53.55587,83.98594,86.63428,86.01423Z"/><path class="de" d="M70.53322,109.485c-1.083,3.53439-.8446,11.10255-.8446,11.10255l-2.40372,4.81861a53.179,53.179,0,0,0-3.03142-9.84669c-1.76137-3.64678-10.3792.118-6.76482,8.55865s1.55685,23.59555.52158,17.38146-13.4904,1.61589-21.73493-7.55167-2.1135-20.54809-2.1135-20.54809c-1.02171,1.14871-7.41668,1.35161-7.41668,1.35161,2.14306-.25485,4.84864-4.17068,4.84864-4.17068a5.05985,5.05985,0,0,1-2.76959-.178c6.01908-1.51071,6.67423-9.15733,5.5664-9.22855S33.727,99.79,33.727,99.79s-2.17726,2.31389-6.556,6.80923-11.326-8.05693-12.25393-16.12877,2.74236-8.95576,9.79526-12.29766S36.339,88.62328,36.339,88.62328a3.13317,3.13317,0,0,1,2.25128-.41148,1.60842,1.60842,0,0,1,1.0735,1.38083C47.17681,78.286,67.3,76.82085,77.94036,78.13167s8.92456,9.89319,8.92456,9.89319,1.07484,11.87047-7.0275,15.46064S70.9815,108.022,70.53322,109.485Z"/><polygon class="aa" points="89.875 114.625 93.13 112.654 94.747 112.004 94.081 114.409 95.47 115.203 92.429 116.213 89.875 114.625 89.875 114.625"/><path class="df" d="M94.20286,112.7265a1.12627,1.12627,0,0,0-.12182,1.683c.75557,1.08629,1.38929.79381,1.38929.79381s.46485-.385.37426-.79787-.42631-1.75154-.76829-1.75153A8.2762,8.2762,0,0,0,94.20286,112.7265Z"/><path class="dg" d="M94.06162,111.47577s.06516-1.38652-1.06734-1.70452-1.036-1.12986-2.48442.72764a16.33382,16.33382,0,0,0-2.25509,4.35268h0s1.90642-.39995,2.01188-.46381l2.8633-1.73382Z"/><path class="dh" d="M88.25477,114.85157l1.40755,2.89933a14.91137,14.91137,0,0,0,3.17879.64256c.58141-.11924,1.85426.04668,2.26641-.58676s1.36049-1.77364,1.04878-2.58747-.86577.60608-.86577.60608l-3.15453-.00374-2.26068-1.19684Z"/><path class="di" d="M89.87532,114.62473l3.25463-1.97079,2.58-.00009a1.03311,1.03311,0,0,0,.55108-.80753c-.00168-.51981-.70966-1.20509-.70966-1.20509s-.77051.92642-1.48979.83454a5.33483,5.33483,0,0,0-2.19241.78062Z"/><path class="dj" d="M89.87532,114.62473a11.64794,11.64794,0,0,0,2.75657.9183c.56009-.06462,2.40223.21369,2.83844-.33976a1.9592,1.9592,0,0,1,1.39358-.5379l-.2394,1.20851s-3.80342,1.442-4.7558.81867A10.01,10.01,0,0,1,89.87532,114.62473Z"/><path class="dk" d="M36.339,88.62328,33.727,99.79s.21788,2.61058,1.09723,2.47049,4.83949-12.66791,4.83949-12.66791,3.32282-4.61028.58543-3.49727A10.399,10.399,0,0,0,36.339,88.62328Z"/><path class="dl" d="M105.74052,181.11259l.00165-.00262c-3.155-5.51409,1.52313-12.54475-7.88106-17.2203-14.58043-7.249-22.01764-13.56584-24.857-15.44828a52.77716,52.77716,0,0,0-7.254,2.93722,163.25818,163.25818,0,0,1,5.8472,31.04078c1.08051,13.76068-2.14192,28.99239-2.22917,29.63861.19328-.01639.39508-.02973.59931-.04207.1198-.00724.24395-.01258.36752-.01826.1222-.00561.24413-.01125.36991-.01518.1273-.004.2585-.00586.38932-.008.12946-.00208.259-.00417.3919-.00436.13457-.00015.27271.00192.4107.00388.13557.0019.27129.004.41014.00806.14272.00422.28889.01086.43505.01753.14056.0064.28127.013.42484.02177.15107.00924,8.2634-1.79154,8.41779-1.77956.14523.01126.29077.023.43889.03685.15925.01489.32133.03245.48387.05049.1491.0165.29866.03363.45046.05288.16742.02127.33741.04526.508.07.15314.02218.30691.04517.46256.07025.17509.02827.35255.05935.53092.09146.15624.02811.31326.05729.47183.08848.18373.03616.36948.07516.55625.11555q.23843.05151.47972.10757.28665.0668.57805.14118.243.06159.489.1281.29833.08076.60117.1695.24555.07167.49394.14867.30991.09591.62394.20014.24869.08244.50006.17059.32127.11234.64676.23342c.16679.06212.33455.12675.50294.1925q.33156.1296.667.26827c.1693.0702.33967.14328.51052.21728.22734.09858.45572.19967.68568.30511.16993.07795.34109.15907.51243.24086.23449.11194.46987.22633.70689.34569.17073.086.34271.17572.51486.26566.24079.12592.48232.25416.72548.388.17168.09443.34445.193.51721.29145.24667.14059.49386.28327.74272.4322.17254.10329.34626.21107.51981.31845.25241.15612.50526.31414.75977.47917.17239.11186.346.22872.51945.34473.25817.17273.51661.34714.77678.52926.17287.1211.34688.24776.52064.37309.26313.18975.52645.381.79142.58068.17292.1303.34676.2668.52045.40145.2679.20779.536.41676.80568.635.173.14.34693.28672.52058.43114.27231.22654.54483.45388.81865.6914.17292.14989.34664.3071.52.46148.27645.246.55293.49262.83065.75017.17212.15958.345.3271.51763.49116.281.26719.562.53459.84422.81389.16977.16808.34036.34458.51063.51714.28629.29025.57259.58047.85992.88353.16742.17662.33558.36229.50336.54337.29075.31382.58155.62734.87326.95471.16532.18558.33122.38085.49683.57083.2954.339.59083.67736.88691,1.03059.16155.19269.32344.39559.48513.59258.30042.36592.60076.731.90157,1.112.15847.20066.31712.41207.47565.61693.305.39411.60992.78716.91522,1.19722.15246.20487.30513.42093.45764.6298.3113.42627.62264.85142.93408,1.29475.14539.207.29082.42565.43631.63643.33054.47914.66107.95648.99155,1.45532.29977-1.42375.58321-2.88219.84524-4.3854C119.204,210.63255,113.92221,194.21419,105.74052,181.11259Z"/><path class="dm" d="M88.99128,111.812s1.67391-3.49177,8.79557-4.0158l.17449-1.37515s-3.11126-1.03268-5.45379.4319S88.99128,111.812,88.99128,111.812Z"/><path class="aa" d="M104.95822,131.36347s.80558,2.01261.23626,2.27708a52.54617,52.54617,0,0,1-6.20654.22454s-2.03124-.543-2.21235-.88436-.35749-.86.00079-.93138a31.31459,31.31459,0,0,1,3.89407-.77747A34.65836,34.65836,0,0,1,104.95822,131.36347Z"/><path class="aa" d="M104.87123,133.83493a.91741.91741,0,0,1,.22459.41492,5.16741,5.16741,0,0,1-.32744,1.624c-.02249.00347-4.14592-1.271-4.14592-1.271s1.75114-.51372,1.7996-.51183S104.87123,133.83493,104.87123,133.83493Z"/><path class="dn" d="M106.38262,129.76676c.07948.28648.37069,1.3854-.80793,1.5512s-1.45869-.19238-2.91234.064-4.51808.16729-5.52769.596-.1008,1.21977.63648,1.52347,5.43534,1.98286,6.5403,1.6518.78438-.90343.78438-.90343a1.35183,1.35183,0,0,1,1.40958,1.01882c.20983,1.11851-.15483,2.15255-2.39058,1.71078s-6.88765-3.1532-7.52985-3.98536.09713-1.34765.6255-1.46129,3.03931-.37263,4.0379-.67122,3.20442-1.71344,3.93551-1.762A1.10318,1.10318,0,0,1,106.38262,129.76676Z"/><path class="do" d="M69.3682,212.058S47.75472,267.20721,89.778,258.87494s73.35386-20.6958,40.11956,16.82621l4.2131,3.27909s26.86856-31.02047,12.751-35.46978-32.579,3.852-46.96268-2.26742S69.3682,212.058,69.3682,212.058Z"/><path class="dp" d="M139.68152,298.49884l-2.62679,1.01726a14.71744,14.71744,0,0,0,3.49357,4.03143c2.26434,1.776,8.61918,7.28205,10.39625,8.4261s5.81552,3.1002,8.00078,2.7974L155.0094,311.213s-10.221-9.22269-10.363-9.33771S139.68152,298.49884,139.68152,298.49884Z"/><path class="dq" d="M145.55962,293.85631s.30292,2.89077,1.51125,3.576a14.84017,14.84017,0,0,0,2.84057,1.13743l.93847-.72058,2.14569.0339s.09334,3.77907.92317,5.45083,2.57295,4.67139,2.57295,4.67139l3.46785,5.5141-1.01424,1.25169a9.64772,9.64772,0,0,1-2.68779-1.25343c-1.193-.84915-4.04-2.39183-5.87353-4.34783s-3.5538-4.25837-5.207-5.55526-5.30823-4.25854-5.49547-5.11567C139.68152,298.49884,142.34275,293.83621,145.55962,293.85631Z"/><path class="dp" d="M120.42344,274.69466l-1.79694-2.16931a14.71731,14.71731,0,0,0-2.71722,4.59067c-.96731,2.7103-4.17688,10.482-4.69912,12.52994s-1.09845,6.49806-.119,8.47488l2.1281-4.8603s5.51019-12.61608,5.57432-12.78715S120.42344,274.69466,120.42344,274.69466Z"/><path class="dr" d="M126.68884,278.79952s-2.646,1.203-2.91312,2.56614a14.84,14.84,0,0,0-.17909,3.05459l.98074.66189.64751,2.046s-3.55491,1.28558-4.87772,2.60222-3.61585,3.92015-3.61585,3.92015l-4.1317,5.03591-1.50849-.56553a9.64755,9.64755,0,0,1,.3375-2.94642c.42752-1.40058.989-4.58958,2.26347-6.94829s2.9134-4.71966,3.61983-6.69856,2.35783-6.38381,3.11152-6.83291C120.42344,274.69466,125.68894,275.74193,126.68884,278.79952Z"/><path class="ds" d="M81.42072,165.13185s18.04676,23.4497,66.07648,24.84035l1.02138,4.7241s-43.6519,7.41426-63.05867-8.91064"/><path class="dt" d="M147.4972,189.9722l6.48661-.29426s5.68167,1.41548,7.62967,4.26222-1.29866,7.262-5.357,5.13554-3.27957-4.99167-7.7379-4.3794Z"/><path class="du" d="M244.04292,219.3622a100.6468,100.6468,0,0,1,10.02977-1.91369c2.28728-.09439,10.86926,2.28152,8.92126,5.25764s-5.51668,2.70223-9.33285,1.37817a12.66958,12.66958,0,0,0-7.34551-.17678Z"/><path class="dv" d="M259.44291,218.64982l9.38254-15.77542s-1.74984-3.21453.6735-5.38152,14.11546-4.54,10.2174,1.3136-7.06356,5.735-8.36222,5.75373-9.88194,15.05591-9.88194,15.05591Z"/><path class="dw" d="M379.41619,212.129l5.40638-17.54045s3.55783-.85845,3.53948-4.10931-6.10122-13.51417-7.82785-6.69669.48464,9.08568,1.3419,10.06139-4.53777,17.42819-4.53777,17.42819Z"/><path class="dx" d="M386.2279,212.05781s-5.65036-.60679-6.73258-.60679-4.11337-4.23918-6.602-1.14559-3.26443,8.32588-.92854,9.49752,9.70286-.22549,14.89-.77635S386.2279,212.05781,386.2279,212.05781Z"/><rect class="dy" x="177.08699" y="286.82044" width="5.56731" height="50.00797"/><polygon class="dz" points="144.83 347.926 168.527 284.158 163.566 280.695 138.582 347.926 144.83 347.926"/><polygon class="ea" points="221.401 347.926 196.417 280.695 191.456 284.158 215.153 347.926 221.401 347.926"/><path class="eb" d="M205.8822,278.54039a176.12837,176.12837,0,0,0-25.02615-1.58581,176.12646,176.12646,0,0,0-25.02576,1.58581H144.497v4.18141c0,3.18519,16.27873,5.76727,36.35906,5.76727,20.08072,0,36.35906-2.58208,36.35906-5.76727v-4.18141Z"/><ellipse class="ec" cx="180.8562" cy="278.54041" rx="36.359" ry="5.76724"/><ellipse class="b" cx="179.92147" cy="277.88769" rx="28.84724" ry="3.42681"/><polygon class="ed" points="213.088 310.306 210.285 314.587 212.445 318.382 218.932 310.306 213.088 310.306"/><path class="ee" d="M210.28532,314.58737s-.21683-.06466-.29028.09439c-.02765.05986.11783.28895.08059.36508-.4085.83524-1.38082,2.54668-2.62332,2.87426-1.65666.43678-1.44713,3.33773-1.302,3.61094a31.27874,31.27874,0,0,0,3.76745,1.78214l1.78639-2.40468s-.43127-.71908.8457-2.7c.04945-.0767.27677.05884.33412-.01877.0543-.07347-.06178-.36005,0-.43419Z"/><path class="ef" d="M201.55484,319.2008a.30268.30268,0,0,0-.46425-.17979c-.36572.1792-1.56879.5417-1.56879.5417s-.98112.73255-.8363,1.116,6.702,9.03372,6.702,9.03372l4.628,6.15512a18.44591,18.44591,0,0,0,2.09322,1.63965c.31132.08249,1.61641.24328,1.84474-.66693l-.16954-.23492-2.46784-2.02731-8.97774-15.111Z"/><path class="eg" d="M211.70411,320.9095l-1.66507.84262a3.81517,3.81517,0,0,1-1.97638-.96674c-.54659-.71295-1.49483-1.24539-.61035-2.86428s-3.10034-.3734-3.10034-.3734l-.07873.06471s-2.16173.54287-2.65755,1.23815l-.06085.35024s4.01814,6.879,4.08584,7.00265,4.19393,7.52323,4.19393,7.52323,2.09684,2.85714,2.83734,3.12324,1.35292.08692,1.41864-.68626-1.9597-6.95906-1.9597-6.95906l.228-.93277-.30072-2.91424.33886-1.31194-.47662-.526a3.1509,3.1509,0,0,0,.12012-1.92748Z"/><polygon class="eh" points="209.878 315.43 212.445 318.382 212.206 318.828 209.661 315.796 209.878 315.43"/><polygon class="ei" points="209.365 316.255 212.198 319.211 212.044 319.629 209.069 316.616 209.365 316.255"/><polygon class="ej" points="218.932 311.351 212.198 311.351 212.899 309.079 219.801 309.079 219.801 310.648 218.932 311.351"/><path class="ek" d="M187.03929,195.6223a190.51226,190.51226,0,0,1-1.72612-24.63727c-.014-1.775,2.77525-.816,2.77525-.816l-3.54563-6.56034-1.837,2.2098-2.90227-3.42451c-4.36862-18.08829-4.18613.803-4.18613.803s4.96259,6.15538,4.30814,17.69254h.00179Z"/><path class="el" d="M229.64623,262.26072c-5.553-8.3692-14.92212-10.95463-24.34708-10.04416-.07693.00743-.15386.014-.23043.02183l-.0068.00063a58.24979,58.24979,0,0,0-22.19158,6.58539,52.43225,52.43225,0,0,0-17.08586,14.53917c15.5086,16.34392,44.90414-11.02083,56.06953-3.08646,12.0127,8.53613-8.76585,40.02886-8.76585,40.02886h5.8439S240.198,278.1639,229.64623,262.26072Z"/><polygon class="em" points="205.069 252.238 205.069 252.238 205.062 252.239 205.069 252.238"/><polygon class="en" points="205.069 252.238 205.069 252.238 205.062 252.239 205.069 252.238"/><polygon class="eo" points="205.069 252.238 205.069 252.238 205.062 252.239 205.069 252.238"/><path class="ep" d="M200.14761,113.336s13.36423,8.67253,9.3834,22.3211,2.55911,14.35944,3.83866,16.77637-1.84825,3.98084-3.27,4.54953,1.5639,1.99041,1.42172,2.98562c-3.19857.29924-4.04188,1.35041-4.24527,2.89318a.88606.88606,0,0,1,.38851.74726c.11084,1.14134.0003,3.196.16286,3.57529.47984,1.11961.3173,5.84638-3.14815,6.69942s-23.32859-2.6747-35.83978-17.60282S160.19711,98.83441,200.14761,113.336Z"/><path class="eq" d="M197.30416,115.61077a6.99547,6.99547,0,0,0,5.40256-4.94379c1.42173-4.4396,3.41215-16.80862-8.10384-20.07859S180.90252,79.78327,170.33656,84.475s-18.52764.42652-23.9302,8.38819-14.07509,7.67732-14.64378,16.77636-13.93291,14.07509-7.96166,27.155-2.13259,18.909,6.11342,26.15976,9.80991,2.27476,17.6294,10.66294,22.60545,2.55911,24.738-2.70128,6.96646-13.07988,2.98563-17.20288-5.40256-9.52557.14217-11.9425,4.83387,5.40256,5.54473,6.53994,5.97125,1.44375,6.82429-5.67589-3.41215-11.66917,2.98562-12.80655S201.14282,125.27851,197.30416,115.61077Z"/><path class="er" d="M201.10777,143.54091c.10394-.05324,3.853-2.81461,3.853-2.81461l1.72583-.08122-2.68384,1.089Z"/><polygon class="es" points="201.108 143.541 204.59 144.011 204.433 144.397 201.108 143.541"/><path class="et" d="M204.43256,144.39662s1.57255,1.69911-.73089,3.04862l-4.59774-2.39182,2.00384-1.51251Z"/><polygon class="eu" points="201.108 143.541 205.069 140.44 204.786 140.098 199.976 143.426 201.108 143.541"/><polygon class="aa" points="204.003 141.734 204.083 143.943 201.108 143.541 204.003 141.734"/><path class="ev" d="M202.47542,142.68733s.12738,1.05542.37353,1.08866.55429.13288.80006-.18594a6.45055,6.45055,0,0,0,.35379-1.856Z"/><ellipse class="ew" cx="203.67491" cy="142.72088" rx="0.22229" ry="0.44642"/><ellipse class="aa" cx="203.72723" cy="142.55752" rx="0.09931" ry="0.16337"/><path class="ex" d="M201.483,140.09818a11.43519,11.43519,0,0,1,5.20365-1.701c2.83186-.12175.63466-3.08434-2.36566-1.05517S200.2249,140.257,201.483,140.09818Z"/><path class="aa" d="M208.18369,161.30769l-1.31359,2.301a13.96029,13.96029,0,0,1-1.93776-1.28695,3.36687,3.36687,0,0,0-1.566-.72718l.0288-1.186,1.2931-.49726,3.47336.55512Z"/><path class="ey" d="M211.47576,160.42838c-1.07665.7855-2.48151,1.64057-6.53136-.073,0,0-1.534-.36072-1.40976.42744s3.20932,3.00633,3.85077,2.999c.3955-.00454-.10926-.91993-.10926-.91993s2.3641,1.13,2.87816,2.80744a1.58493,1.58493,0,0,1-2.16772,2.02442c-1.02673-.59684-2.69235-3.97493-4.18-5.31168-1.59052-1.42921-.54594-2.48342.72111-2.47376s4.24675-.05594,5.57247-1.084A1.05892,1.05892,0,1,1,211.47576,160.42838Z"/><path class="ez" d="M198.46732,229.01728a3.65683,3.65683,0,0,0-.54926-1.07972c-.04007-.0602-.06941-.1128-.10842-.1722q-.79381-1.49089-1.66171-2.993c-1.93794-4.40457-.31559-6.31765-3.35383-11.14347-3.62972-5.76446-5.69935-17.68261-5.75481-18.00661l-7.112-14.73284h-.00179a44.30119,44.30119,0,0,1-2.226,11.32667c-4.21761,12.85268-16.40994,32.17535-19.16121,51.16919l-.00644.00394s-8.96694,55.84106,3.9743,34.7377a56.19,56.19,0,0,1,3.27833-4.76338,52.43225,52.43225,0,0,1,17.08586-14.53917,58.24979,58.24979,0,0,1,22.19158-6.58539l.0068-.00063c.07657-.00787.1535-.0144.23043-.02183C205.31812,245.50817,202.808,237.46208,198.46732,229.01728Z"/><path class="fa" d="M169.04482,179.59506s-1.62333.96943-.56817,2.34926,3.65251.81167,3.896,2.51617-1.13634,3.57134.56817,5.03234,1.78567,1.05517,1.78567,2.1915,1.05516,4.95118,1.86683,4.87,4.05834-8.60368,3.32784-12.662S169.04482,179.59506,169.04482,179.59506Z"/><path class="fb" d="M187.03929,195.6223s-4.42189-14.237-7.06868-16.02724-10.76346-2.2681-10.92579,0,6.95579,4.7031,8.99724,3.89143S187.03929,195.6223,187.03929,195.6223Z"/><path class="fc" d="M170.74932,178.94115s-3.1655,2.59734,0,2.435,5.357-.16234,6.331.40583,2.7821,2.087,3.32255.487-1.45571-1.461-1.69921-2.11034-.81167-.974-2.59734-1.2175A36.88125,36.88125,0,0,0,170.74932,178.94115Z"/><path class="fd" d="M184.30417,210.30543s7.792,14.90078,59.73875,9.05677l2.27267,4.54534s-36.22767,20.454-68.2749,0"/></g></svg>