<svg xmlns="http://www.w3.org/2000/svg" xmlns:xlink="http://www.w3.org/1999/xlink" viewBox="0 0 627.43893 379.62615"><defs><style>.a{isolation:isolate;}.b{opacity:0.1;mix-blend-mode:multiply;}.c{fill:url(#a);}.d{fill:url(#b);}.e{fill:url(#c);}.f{fill:url(#d);}.g{fill:url(#e);}.h{fill:url(#f);}.i{fill:url(#g);}.j{fill:url(#h);}.k{fill:#fff;}.l{fill:#9a9326;}.m{fill:#1d1d1b;}.n{fill:url(#i);}.o{fill:url(#j);}.p{fill:url(#k);}.q{fill:url(#l);}.r{fill:url(#m);}.s{fill:url(#n);}.t{fill:url(#o);}.u{fill:url(#p);}.v{fill:url(#q);}.w{fill:url(#r);}.x{fill:url(#s);}.y{fill:url(#t);}.z{fill:url(#u);}.aa{fill:url(#v);}.ab{fill:url(#w);}.ac{fill:url(#x);}.ad{fill:url(#y);}.ae{fill:url(#z);}.af{fill:url(#aa);}.ag{fill:url(#ab);}.ah{fill:url(#ac);}.ai{fill:url(#ad);}.aj{fill:url(#ae);}.ak{fill:url(#af);}.al{fill:url(#ag);}.am{fill:#efefe6;}.an{fill:#e5f7ff;}.ao{fill:url(#ah);}.ap{fill:url(#ai);}.aq{fill:url(#aj);}.ar{fill:url(#ak);}.as{fill:url(#al);}.at{fill:url(#am);}.au{fill:url(#an);}.av{fill:url(#ao);}.aw{fill:url(#ap);}.ax{fill:url(#aq);}.ay{fill:url(#ar);}.az{fill:url(#as);}.ba{fill:url(#at);}.bb{fill:url(#au);}.bc{fill:url(#av);}.bd{fill:url(#aw);}.be{fill:url(#ax);}.bf{fill:url(#ay);}.bg{fill:url(#az);}.bh{fill:url(#ba);}.bi{fill:url(#bb);}.bj{fill:url(#bc);}.bk{fill:url(#bd);}.bl{fill:url(#be);}.bm{fill:url(#bf);}.bn{fill:url(#bg);}.bo{fill:url(#bh);}.bp{fill:url(#bi);}.bq{fill:url(#bj);}.br{fill:url(#bk);}.bs{fill:url(#bl);}.bt{fill:url(#bm);}.bu{fill:url(#bn);}.bv{fill:url(#bo);}.bw{fill:url(#bp);}.bx{fill:url(#bq);}.by{fill:url(#br);}.bz{fill:url(#bs);}.ca{fill:url(#bt);}.cb{fill:url(#bu);}.cc{fill:url(#bv);}.cd{fill:url(#bw);}.ce{fill:url(#bx);}.cf{fill:url(#by);}.cg{fill:url(#bz);}.ch{fill:url(#ca);}.ci{fill:url(#cb);}.cj{fill:url(#cc);}.ck{fill:url(#cd);}.cl{fill:url(#ce);}.cm{fill:url(#cf);}.cn{fill:url(#cg);}.co{fill:url(#ch);}.cp{fill:url(#ci);}.cq{fill:url(#cj);}.cr{fill:url(#ck);}.cs{fill:url(#cl);}.ct{fill:url(#cm);}.cu{fill:url(#cn);}.cv{fill:url(#co);}.cw{fill:url(#cp);}.cx{fill:url(#cq);}.cy{fill:url(#cr);}.cz{fill:url(#cs);}.da{fill:url(#ct);}.db,.dw{opacity:0.4;}.db{fill:url(#cu);}.dc{fill:url(#cv);}.dd{fill:url(#cw);}.de{fill:url(#cx);}.df{fill:url(#cy);}.dg{fill:url(#cz);}.dh{fill:url(#da);}.di{fill:url(#db);}.dj{fill:url(#dc);}.dk{fill:url(#dd);}.dl{fill:url(#de);}.dm{fill:url(#df);}.dn{fill:url(#dg);}.do{fill:url(#dh);}.dp{fill:url(#di);}.dq{fill:url(#dj);}.dr{fill:url(#dk);}.ds{fill:url(#dl);}.dt{fill:url(#dm);}.du{fill:url(#dn);}.dv{fill:url(#do);}.dw{fill:url(#dp);}.dx{fill:url(#dq);}.dy{fill:url(#dr);}.dz{fill:url(#ds);}.ea{fill:url(#dt);}.eb{fill:url(#du);}.ec{fill:url(#dv);}.ed{fill:url(#dw);}.ee{fill:url(#dx);}.ef{fill:url(#dy);}.eg{fill:url(#dz);}.eh{fill:url(#ea);}.ei{fill:url(#eb);}.ej{fill:url(#ec);}.ek{fill:url(#ed);}.el{fill:url(#ee);}.em{fill:url(#ef);}.en{fill:url(#eg);}.eo{fill:url(#eh);}.ep{fill:url(#ei);}.eq{fill:url(#ej);}.er{fill:url(#ek);}.es{fill:url(#el);}.et{fill:url(#em);}.eu{fill:url(#en);}.ev{fill:url(#eo);}.ew{fill:url(#ep);}.ex{fill:url(#eq);}.ey{fill:url(#er);}.ez{fill:#ccefff;}.fa{fill:url(#es);}.fb{fill:url(#et);}.fc{fill:url(#eu);}.fd{fill:url(#ev);}.fe{fill:url(#ew);}.ff{fill:url(#ex);}.fg{fill:url(#ey);}.fh{fill:url(#ez);}.fi{fill:url(#fa);}.fj{fill:url(#fb);}.fk{fill:url(#fc);}.fl{fill:url(#fd);}.fm{fill:url(#fe);}.fn{fill:url(#ff);}.fo{fill:url(#fg);}.fp{fill:url(#fh);}.fq{fill:url(#fi);}.fr{fill:url(#fj);}.fs{fill:url(#fk);}.ft{fill:url(#fl);}.fu{fill:url(#fm);}.fv{fill:url(#fn);}.fw{fill:url(#fo);}.fx{fill:url(#fp);}</style><linearGradient id="a" x1="233.82119" y1="123.9222" x2="233.82119" y2="199.43007" gradientUnits="userSpaceOnUse"><stop offset="0" stop-color="#3dffd3"/><stop offset="1" stop-color="#1e806a"/></linearGradient><linearGradient id="b" x1="235.91171" y1="195.72365" x2="276.61105" y2="195.72365" gradientUnits="userSpaceOnUse"><stop offset="0" stop-color="#ff6378"/><stop offset="1" stop-color="#80313c"/></linearGradient><linearGradient id="c" x1="187.95898" y1="238.03193" x2="295.95063" y2="238.03193" xlink:href="#b"/><linearGradient id="d" x1="340.6297" y1="149.98119" x2="382.44482" y2="123.80914" gradientUnits="userSpaceOnUse"><stop offset="0" stop-color="#e5f7ff"/><stop offset="1" stop-color="#80d6ff"/></linearGradient><linearGradient id="e" x1="198.20674" y1="260.88914" x2="261.68452" y2="260.88914" xlink:href="#b"/><linearGradient id="f" x1="227.18544" y1="43.00012" x2="267.20577" y2="43.00012" gradientUnits="userSpaceOnUse"><stop offset="0" stop-color="#e0b984"/><stop offset="1" stop-color="#f5e1be"/></linearGradient><linearGradient id="g" x1="-105.10183" y1="-73.74661" x2="-101.421" y2="-73.74661" gradientTransform="translate(375.92764 81.01675) rotate(-12.32032)" xlink:href="#f"/><linearGradient id="h" x1="264.07375" y1="32.37448" x2="258.03838" y2="33.6154" xlink:href="#f"/><linearGradient id="i" x1="-190.38096" y1="61.83775" x2="-182.55221" y2="61.83775" gradientTransform="matrix(-1, 0, 0, 1, 203.2884, 0)" gradientUnits="userSpaceOnUse"><stop offset="0.00881" stop-color="#e6b3a8"/><stop offset="1" stop-color="#cfa38e"/></linearGradient><linearGradient id="j" x1="-194.96383" y1="62.25762" x2="-190.38096" y2="62.25762" gradientTransform="matrix(-1, 0, 0, 1, 203.2884, 0)" gradientUnits="userSpaceOnUse"><stop offset="0" stop-color="#dcc2ae"/><stop offset="1" stop-color="#e8ceba"/></linearGradient><linearGradient id="k" x1="-204.84665" y1="65.35027" x2="-217.46763" y2="73.19058" gradientTransform="matrix(-1, 0, 0, 1, 203.2884, 0)" xlink:href="#d"/><linearGradient id="l" x1="-174.88487" y1="299.82977" x2="-172.93755" y2="306.92591" gradientTransform="matrix(-1, 0, 0, 1, 203.2884, 0)" gradientUnits="userSpaceOnUse"><stop offset="0" stop-color="#e1b552"/><stop offset="1" stop-color="#f6dea0"/></linearGradient><linearGradient id="m" x1="-301.19841" y1="230.57268" x2="-299.34845" y2="237.31407" gradientTransform="matrix(-1, 0, 0, 1, 203.2884, 0)" xlink:href="#f"/><linearGradient id="n" x1="-278.95495" y1="247.03536" x2="-208.07973" y2="208.47924" gradientTransform="matrix(-1, 0, 0, 1, 203.2884, 0)" gradientUnits="userSpaceOnUse"><stop offset="0" stop-color="#256280"/><stop offset="1" stop-color="#1a4559"/></linearGradient><linearGradient id="o" x1="-208.2155" y1="201.30379" x2="-181.43893" y2="298.87946" xlink:href="#n"/><linearGradient id="p" x1="-203.19007" y1="111.9315" x2="-205.09051" y2="207.90364" gradientTransform="matrix(-1, 0, 0, 1, 203.2884, 0)" xlink:href="#d"/><linearGradient id="q" x1="-175.71256" y1="297.85067" x2="-175.05705" y2="300.23941" gradientTransform="matrix(-1, 0, 0, 1, 203.2884, 0)" gradientUnits="userSpaceOnUse"><stop offset="0" stop-color="#1a3140"/><stop offset="0.8652" stop-color="#314d62"/><stop offset="1" stop-color="#345067"/></linearGradient><linearGradient id="r" x1="-296.49531" y1="231.27715" x2="-294.5358" y2="238.41771" xlink:href="#q"/><linearGradient id="s" x1="2159.91012" y1="-1344.79745" x2="2161.85743" y2="-1337.70131" gradientTransform="translate(-1631.9359 -1471.38483) rotate(75.82352)" xlink:href="#f"/><linearGradient id="t" x1="141.74858" y1="-339.65719" x2="148.07804" y2="-339.65719" gradientTransform="matrix(-0.2326, -0.97257, -0.97257, 0.2326, 105.95601, 258.04313)" xlink:href="#j"/><linearGradient id="u" x1="397.22857" y1="39.45268" x2="369.4625" y2="39.45268" gradientTransform="matrix(1, 0, 0, 1, 0, 0)" xlink:href="#l"/><linearGradient id="v" x1="-175.10113" y1="34.68483" x2="-179.49771" y2="35.16703" gradientTransform="matrix(-1, 0, 0, 1, 203.2884, 0)" xlink:href="#f"/><linearGradient id="w" x1="-180.66121" y1="31.30511" x2="-173.74989" y2="31.30511" xlink:href="#q"/><linearGradient id="x" x1="-179.68698" y1="47.52868" x2="-174.58252" y2="47.21798" xlink:href="#l"/><linearGradient id="y" x1="-178.01797" y1="35.93322" x2="-173.72452" y2="35.93322" xlink:href="#q"/><linearGradient id="z" x1="-176.3336" y1="36.65655" x2="-174.45342" y2="36.65655" xlink:href="#q"/><linearGradient id="aa" x1="-206.04351" y1="59.43848" x2="-182.28803" y2="76.06732" xlink:href="#n"/><linearGradient id="ab" x1="411.59006" y1="83.68587" x2="408.20574" y2="56.94976" gradientUnits="userSpaceOnUse"><stop offset="0" stop-color="#6f6d61"/><stop offset="1" stop-color="#3b3b32"/></linearGradient><linearGradient id="ac" x1="-184.4698" y1="61.79662" x2="-190.14281" y2="32.14572" gradientTransform="matrix(-1, 0, 0, 1, 203.2884, 0)" xlink:href="#ab"/><linearGradient id="ad" x1="-184.69033" y1="20.23556" x2="-187.6403" y2="17.20996" gradientTransform="matrix(-1, 0, 0, 1, 203.2884, 0)" xlink:href="#ab"/><linearGradient id="ae" x1="-190.47766" y1="46.87993" x2="-190.47766" y2="36.29032" gradientTransform="matrix(-1, 0, 0, 1, 203.2884, 0)" xlink:href="#ab"/><linearGradient id="af" x1="-192.26135" y1="48.62512" x2="-192.41263" y2="36.37144" gradientTransform="matrix(-1, 0, 0, 1, 203.2884, 0)" xlink:href="#ab"/><linearGradient id="ag" x1="405.37652" y1="63.63375" x2="408.64803" y2="51.22459" xlink:href="#ab"/><linearGradient id="ah" x1="2164.7013" y1="-1342.90585" x2="2169.7107" y2="-1324.65127" gradientTransform="translate(-1631.9359 -1471.38483) rotate(75.82352)" xlink:href="#n"/><linearGradient id="ai" x1="278.22813" y1="294.68703" x2="281.77437" y2="307.60976" xlink:href="#f"/><linearGradient id="aj" x1="289.06283" y1="316.7863" x2="280.97992" y2="310.05054" gradientTransform="matrix(1, 0, 0, 1, 0, 0)" xlink:href="#n"/><linearGradient id="ak" x1="243.83593" y1="113.31103" x2="285.65104" y2="161.74437" xlink:href="#a"/><linearGradient id="al" x1="338.05786" y1="163.59386" x2="339.89111" y2="165.87233" gradientTransform="matrix(1, 0, 0, 1, 0, 0)" xlink:href="#l"/><linearGradient id="am" x1="164.53353" y1="194.37279" x2="169.04078" y2="199.97466" gradientTransform="translate(145.72983 -14.2061) rotate(-5.34068)" xlink:href="#f"/><linearGradient id="an" x1="444.59074" y1="142.5552" x2="446.76247" y2="145.25435" gradientTransform="translate(-101.60718 -2.09943) rotate(3.77364)" xlink:href="#l"/><linearGradient id="ao" x1="335.86457" y1="166.10131" x2="337.09743" y2="167.63358" gradientTransform="matrix(1, 0, 0, 1, 0, 0)" xlink:href="#l"/><linearGradient id="ap" x1="107.69476" y1="176.46404" x2="147.70491" y2="116.59924" gradientUnits="userSpaceOnUse"><stop offset="0" stop-color="#957a53"/><stop offset="1" stop-color="#725d3e"/></linearGradient><linearGradient id="aq" x1="178.14614" y1="299.69888" x2="167.31632" y2="228.4026" xlink:href="#d"/><linearGradient id="ar" x1="149.42685" y1="93.61357" x2="152.30214" y2="84.67964" xlink:href="#ap"/><linearGradient id="as" x1="-879.62999" y1="886.31357" x2="-825.79256" y2="886.31357" gradientTransform="translate(379.75567 -1151.74779) rotate(-32.35126)" xlink:href="#f"/><linearGradient id="at" x1="173.13971" y1="60.24997" x2="152.61811" y2="80.77157" xlink:href="#ap"/><linearGradient id="au" x1="-831.15859" y1="903.56115" x2="-820.51335" y2="903.56115" gradientTransform="translate(379.75567 -1151.74779) rotate(-32.35126)" xlink:href="#ab"/><linearGradient id="av" x1="-258.60358" y1="1023.92374" x2="-257.05788" y2="1023.92374" gradientTransform="translate(185.5499 -995.95721) rotate(-13.32611)" xlink:href="#ab"/><linearGradient id="aw" x1="-273.19259" y1="1019.63135" x2="-254.09193" y2="1021.58904" gradientTransform="translate(185.5499 -995.95721) rotate(-13.32611)" xlink:href="#ap"/><linearGradient id="ax" x1="-273.91938" y1="1021.59063" x2="-256.45894" y2="1026.45838" gradientTransform="translate(185.5499 -995.95721) rotate(-13.32611)" xlink:href="#ap"/><linearGradient id="ay" x1="-821.17615" y1="923.29052" x2="-818.33395" y2="923.29052" gradientTransform="translate(379.75567 -1151.74779) rotate(-32.35126)" xlink:href="#ab"/><linearGradient id="az" x1="7.19423" y1="1184.22717" x2="0.68625" y2="1183.75097" gradientTransform="matrix(0.89006, -0.0871, 0.0896, 0.91559, 73.73751, -1011.41144)" xlink:href="#ap"/><linearGradient id="ba" x1="17.4348" y1="1034.5152" x2="11.17748" y2="1031.90345" gradientTransform="translate(89.31277 -951.74305) rotate(-4.36374)" xlink:href="#ap"/><linearGradient id="bb" x1="-261.92027" y1="1022.3649" x2="-255.94096" y2="1022.3649" gradientTransform="translate(185.5499 -995.95721) rotate(-13.32611)" xlink:href="#ab"/><linearGradient id="bc" x1="-261.92027" y1="1024.38229" x2="-256.48814" y2="1024.38229" gradientTransform="translate(185.5499 -995.95721) rotate(-13.32611)" xlink:href="#ab"/><linearGradient id="bd" x1="159.74584" y1="242.13125" x2="207.50256" y2="244.94047" xlink:href="#d"/><linearGradient id="be" x1="106.22911" y1="323.92876" x2="122.63838" y2="323.92876" xlink:href="#ap"/><linearGradient id="bf" x1="154.40516" y1="134.28563" x2="159.36882" y2="148.95101" xlink:href="#ap"/><linearGradient id="bg" x1="116.17163" y1="146.94988" x2="209.83556" y2="146.94988" xlink:href="#b"/><linearGradient id="bh" x1="128.7097" y1="332.60702" x2="105.59622" y2="331.47594" xlink:href="#d"/><linearGradient id="bi" x1="116.51306" y1="332.09878" x2="117.7425" y2="327.32855" xlink:href="#a"/><linearGradient id="bj" x1="122.39362" y1="328.2839" x2="122.88313" y2="328.2839" gradientUnits="userSpaceOnUse"><stop offset="0" stop-color="#769497"/><stop offset="1" stop-color="#576f71"/></linearGradient><linearGradient id="bk" x1="123.5628" y1="328.78716" x2="124.05231" y2="328.78716" xlink:href="#bj"/><linearGradient id="bl" x1="124.67398" y1="329.30352" x2="125.16349" y2="329.30352" xlink:href="#bj"/><linearGradient id="bm" x1="1021.25706" y1="-110.46242" x2="1021.74657" y2="-110.46242" gradientTransform="translate(-746.42707 -113.32441) rotate(31.45161)" xlink:href="#bj"/><linearGradient id="bn" x1="1022.42623" y1="-109.95917" x2="1022.91574" y2="-109.95917" gradientTransform="translate(-746.42707 -113.32441) rotate(31.45161)" xlink:href="#bj"/><linearGradient id="bo" x1="1023.53741" y1="-109.44281" x2="1024.02692" y2="-109.44281" gradientTransform="translate(-746.42707 -113.32441) rotate(31.45161)" xlink:href="#bj"/><linearGradient id="bp" x1="154.30333" y1="105.96876" x2="185.75737" y2="106.84248" xlink:href="#ap"/><linearGradient id="bq" x1="173.66266" y1="130.26404" x2="206.31804" y2="130.26404" xlink:href="#b"/><linearGradient id="br" x1="115.96367" y1="45.82182" x2="143.36811" y2="45.82182" xlink:href="#ab"/><linearGradient id="bs" x1="1027.57314" y1="-106.1393" x2="1004.45966" y2="-107.27039" gradientTransform="translate(-746.42707 -113.32441) rotate(31.45161)" xlink:href="#d"/><linearGradient id="bt" x1="1015.37649" y1="-106.64754" x2="1016.60593" y2="-111.41777" gradientTransform="translate(-746.42707 -113.32441) rotate(31.45161)" xlink:href="#a"/><linearGradient id="bu" x1="175.70041" y1="322.08183" x2="177.83148" y2="313.8133" xlink:href="#ap"/><linearGradient id="bv" x1="1232.47634" y1="-566.6085" x2="1232.96585" y2="-566.6085" gradientTransform="translate(-1093.83289 -132.02678) rotate(44.43566)" xlink:href="#bj"/><linearGradient id="bw" x1="1233.64551" y1="-566.10524" x2="1234.13502" y2="-566.10524" gradientTransform="translate(-1093.83289 -132.02678) rotate(44.43566)" xlink:href="#bj"/><linearGradient id="bx" x1="1234.75669" y1="-565.58888" x2="1235.2462" y2="-565.58888" gradientTransform="translate(-1093.83289 -132.02678) rotate(44.43566)" xlink:href="#bj"/><linearGradient id="by" x1="158.25547" y1="134.90225" x2="200.44663" y2="208.90598" xlink:href="#ap"/><linearGradient id="bz" x1="515.55753" y1="236.53907" x2="511.00498" y2="238.53401" xlink:href="#d"/><linearGradient id="ca" x1="-627.93451" y1="-3528.38375" x2="-607.08201" y2="-3528.38375" gradientTransform="matrix(0.26965, 0.96296, 0.96296, -0.26965, 4077.37806, -119.55039)" xlink:href="#b"/><linearGradient id="cb" x1="370.05389" y1="308.96445" x2="372.58302" y2="318.1808" xlink:href="#d"/><linearGradient id="cc" x1="-177.68491" y1="310.61627" x2="-156.72421" y2="310.61627" gradientTransform="matrix(-1, 0, 0, 1, 203.2884, 0)" xlink:href="#b"/><linearGradient id="cd" x1="106.00575" y1="186.08129" x2="112.99339" y2="186.08129" xlink:href="#ap"/><linearGradient id="ce" x1="213.62706" y1="206.67205" x2="226.99743" y2="206.67205" xlink:href="#ab"/><linearGradient id="cf" x1="223.16125" y1="208.72125" x2="219.27108" y2="206.69743" xlink:href="#d"/><linearGradient id="cg" x1="203.86412" y1="210.27856" x2="218.65298" y2="210.27856" xlink:href="#ap"/><linearGradient id="ch" x1="223.3468" y1="53.96089" x2="243.42708" y2="11.76974" gradientUnits="userSpaceOnUse"><stop offset="0" stop-color="#d1864a"/><stop offset="0.99949" stop-color="#dab684"/></linearGradient><linearGradient id="ci" x1="208.32079" y1="34.00725" x2="262.24424" y2="1.74342" xlink:href="#ch"/><linearGradient id="cj" x1="488.14934" y1="114.05657" x2="499.27998" y2="119.17065" gradientTransform="matrix(1, 0, 0, 1, 0, 0)" xlink:href="#n"/><linearGradient id="ck" x1="438.87498" y1="89.18452" x2="484.90169" y2="124.98308" xlink:href="#ch"/><linearGradient id="cl" x1="855.3253" y1="94.46237" x2="873.5534" y2="94.46237" gradientTransform="matrix(-0.98453, 0.17522, 0.17522, 0.98453, 1336.84863, -161.35259)" xlink:href="#ch"/><linearGradient id="cm" x1="350.65079" y1="112.39993" x2="348.46335" y2="136.31592" gradientTransform="matrix(-0.99951, -0.03135, -0.03135, 0.99951, 848.03159, -57.48208)" xlink:href="#ap"/><linearGradient id="cn" x1="336.63723" y1="140.38407" x2="381.05374" y2="140.38407" gradientTransform="matrix(-0.99951, -0.03135, -0.03135, 0.99951, 848.03159, -57.48208)" xlink:href="#ch"/><linearGradient id="co" x1="368.80006" y1="132.51399" x2="377.57926" y2="132.51399" gradientTransform="matrix(-0.99951, -0.03135, -0.03135, 0.99951, 848.03159, -57.48208)" xlink:href="#ap"/><linearGradient id="cp" x1="370.39437" y1="136.13128" x2="374.6262" y2="136.13128" gradientTransform="matrix(-0.99951, -0.03135, -0.03135, 0.99951, 848.03159, -57.48208)" xlink:href="#ap"/><linearGradient id="cq" x1="370.39437" y1="137.33194" x2="372.67759" y2="137.33194" gradientTransform="matrix(-0.99951, -0.03135, -0.03135, 0.99951, 848.03159, -57.48208)" xlink:href="#ap"/><linearGradient id="cr" x1="368.80006" y1="138.30625" x2="372.68915" y2="138.30625" gradientTransform="matrix(-0.99951, -0.03135, -0.03135, 0.99951, 848.03159, -57.48208)" xlink:href="#ch"/><linearGradient id="cs" x1="369.64642" y1="135.90493" x2="373.56332" y2="135.90493" gradientTransform="matrix(-0.99951, -0.03135, -0.03135, 0.99951, 848.03159, -57.48208)" xlink:href="#ch"/><linearGradient id="ct" x1="377.16427" y1="113.35771" x2="321.36739" y2="105.67781" gradientTransform="matrix(-0.99951, -0.03135, -0.03135, 0.99951, 848.03159, -57.48208)" xlink:href="#ap"/><linearGradient id="cu" x1="466.87079" y1="83.19184" x2="495.7869" y2="83.19184" xlink:href="#ap"/><linearGradient id="cv" x1="501.45428" y1="151.26603" x2="536.65118" y2="216.54574" gradientTransform="matrix(1, 0, 0, 1, 0, 0)" xlink:href="#n"/><linearGradient id="cw" x1="471.63437" y1="188.4674" x2="466.21946" y2="240.20985" xlink:href="#a"/><linearGradient id="cx" x1="560.50004" y1="296.08588" x2="519.58741" y2="249.15669" xlink:href="#a"/><linearGradient id="cy" x1="512.20198" y1="230.28678" x2="501.97383" y2="310.30707" xlink:href="#a"/><linearGradient id="cz" x1="501.21936" y1="334.86397" x2="497.3838" y2="326.85442" xlink:href="#ch"/><linearGradient id="da" x1="572.5716" y1="309.60201" x2="565.69016" y2="305.31521" xlink:href="#ch"/><linearGradient id="db" x1="-605.23442" y1="105.54483" x2="-612.52756" y2="97.17917" gradientTransform="translate(971.65797 -149.66556) rotate(-39.96621)" xlink:href="#n"/><linearGradient id="dc" x1="-605.53615" y1="104.59788" x2="-612.45976" y2="96.6561" gradientTransform="translate(971.65797 -149.66556) rotate(-39.96621)" xlink:href="#d"/><linearGradient id="dd" x1="-5.22846" y1="348.08313" x2="-14.39695" y2="337.56633" gradientTransform="translate(408.0159 9.84191) rotate(-16.46105)" xlink:href="#n"/><linearGradient id="de" x1="-6.32184" y1="346.40323" x2="-14.48562" y2="337.03889" gradientTransform="translate(408.0159 9.84191) rotate(-16.46105)" xlink:href="#d"/><linearGradient id="df" x1="522.4389" y1="217.8669" x2="485.43704" y2="230.20085" xlink:href="#a"/><linearGradient id="dg" x1="520.52413" y1="211.11373" x2="539.77713" y2="163.28205" xlink:href="#ch"/><linearGradient id="dh" x1="528.23809" y1="136.80612" x2="541.77535" y2="152.44919" gradientTransform="matrix(1, 0, 0, 1, 0, 0)" xlink:href="#n"/><linearGradient id="di" x1="425.64684" y1="74.87582" x2="441.50914" y2="74.87582" xlink:href="#ab"/><linearGradient id="dj" x1="429.72321" y1="71.17063" x2="436.68252" y2="76.58342" xlink:href="#d"/><linearGradient id="dk" x1="439.24773" y1="83.85388" x2="438.3367" y2="80.45271" xlink:href="#ch"/><linearGradient id="dl" x1="425.67492" y1="75.37665" x2="430.51191" y2="79.13875" xlink:href="#ch"/><linearGradient id="dm" x1="427.08505" y1="73.2551" x2="431.92204" y2="77.0172" xlink:href="#ch"/><linearGradient id="dn" x1="428.21614" y1="71.13355" x2="433.05313" y2="74.89565" xlink:href="#ch"/><linearGradient id="do" x1="259.07663" y1="30.71588" x2="262.53276" y2="30.71588" gradientUnits="userSpaceOnUse"><stop offset="0" stop-color="#f1894c"/><stop offset="1" stop-color="#896d66"/></linearGradient><linearGradient id="dp" x1="268.75051" y1="46.93306" x2="261.7313" y2="48.27716" xlink:href="#ap"/><linearGradient id="dq" x1="371.80081" y1="52.42211" x2="378.39783" y2="52.42211" gradientTransform="matrix(1, 0, 0, 1, 0, 0)" xlink:href="#l"/><linearGradient id="dr" x1="264.67616" y1="52.6617" x2="271.05776" y2="52.6617" xlink:href="#f"/><linearGradient id="ds" x1="413.32596" y1="157.14244" x2="414.65756" y2="182.33346" gradientTransform="matrix(1, 0, 0, 1, 0, 0)" xlink:href="#l"/><linearGradient id="dt" x1="408.87377" y1="112.47976" x2="428.72843" y2="140.45678" xlink:href="#d"/><linearGradient id="du" x1="538.9453" y1="156.0293" x2="536.36372" y2="163.11291" xlink:href="#d"/><linearGradient id="dv" x1="488.10658" y1="116.06532" x2="481.91912" y2="133.04312" xlink:href="#d"/><linearGradient id="dw" x1="510.65443" y1="85.62618" x2="508.39146" y2="91.83556" xlink:href="#d"/><linearGradient id="dx" x1="507.45022" y1="86.55353" x2="506.61422" y2="88.84743" xlink:href="#d"/><linearGradient id="dy" x1="371.43467" y1="136.6606" x2="372.63823" y2="136.6606" gradientTransform="matrix(-0.99951, -0.03135, -0.03135, 0.99951, 848.03159, -57.48208)" xlink:href="#bj"/><linearGradient id="dz" x1="573.11074" y1="371.41115" x2="565.57864" y2="366.56559" gradientUnits="userSpaceOnUse"><stop offset="0" stop-color="#d1864a"/><stop offset="0.99949" stop-color="#e8c26b"/></linearGradient><linearGradient id="ea" x1="576.8492" y1="239.57998" x2="578.16039" y2="239.57998" xlink:href="#a"/><linearGradient id="eb" x1="596.05283" y1="344.37969" x2="580.56018" y2="329.93994" gradientTransform="matrix(1, 0, 0, 1, 0, 0)" xlink:href="#n"/><linearGradient id="ec" x1="554.6039" y1="296.28133" x2="551.14438" y2="311.02191" gradientTransform="matrix(1, 0, 0, 1, 0, 0)" xlink:href="#n"/><linearGradient id="ed" x1="763.07284" y1="236.42354" x2="804.33931" y2="236.42354" gradientTransform="translate(-172.07927 -19.84622) rotate(7.58456)" xlink:href="#b"/><linearGradient id="ee" x1="574.07665" y1="309.7122" x2="585.65853" y2="361.45465" gradientTransform="matrix(1, 0, 0, 1, 0, 0)" xlink:href="#n"/><linearGradient id="ef" x1="755.9049" y1="189.17643" x2="807.94753" y2="189.17643" gradientTransform="translate(-172.07927 -19.84622) rotate(7.58456)" xlink:href="#a"/><linearGradient id="eg" x1="549.19052" y1="270.17193" x2="607.17082" y2="270.17193" xlink:href="#b"/><linearGradient id="eh" x1="567.11976" y1="377.78277" x2="564.77095" y2="371.00224" gradientTransform="matrix(1, 0, 0, 1, 0, 0)" xlink:href="#n"/><linearGradient id="ei" x1="566.84082" y1="377.8794" x2="564.49201" y2="371.09886" xlink:href="#d"/><linearGradient id="ej" x1="534.63561" y1="206.28206" x2="557.43673" y2="206.28206" xlink:href="#ab"/><linearGradient id="ek" x1="578.0503" y1="234.87153" x2="544.21798" y2="217.7653" xlink:href="#dz"/><linearGradient id="el" x1="-344.63278" y1="218.39583" x2="-348.62576" y2="218.83377" gradientTransform="matrix(-1, 0, 0, 1, 203.2884, 0)" xlink:href="#f"/><linearGradient id="em" x1="-349.68246" y1="215.32636" x2="-343.40558" y2="215.32636" gradientTransform="matrix(-1, 0, 0, 1, 203.2884, 0)" xlink:href="#ab"/><linearGradient id="en" x1="-347.28186" y1="219.52963" x2="-343.38253" y2="219.52963" gradientTransform="matrix(-1, 0, 0, 1, 203.2884, 0)" xlink:href="#ab"/><linearGradient id="eo" x1="-345.75211" y1="220.18656" x2="-344.04452" y2="220.18656" gradientTransform="matrix(-1, 0, 0, 1, 203.2884, 0)" xlink:href="#ab"/><linearGradient id="ep" x1="570.13895" y1="223.09074" x2="597.39077" y2="223.09074" xlink:href="#ab"/><linearGradient id="eq" x1="540.85125" y1="209.6541" x2="607.40281" y2="209.6541" xlink:href="#d"/><linearGradient id="er" x1="560.17227" y1="215.18465" x2="570.21264" y2="215.18465" xlink:href="#ab"/><linearGradient id="es" x1="588.28082" y1="363.03096" x2="594.60207" y2="363.03096" xlink:href="#dz"/><linearGradient id="et" x1="-489.72661" y1="350.03665" x2="-492.91033" y2="340.84589" gradientTransform="translate(763.75669 -205.29062) rotate(-38.13967)" xlink:href="#n"/><linearGradient id="eu" x1="-490.59993" y1="348.88168" x2="-493.79166" y2="339.66782" gradientTransform="translate(763.75669 -205.29062) rotate(-38.13967)" xlink:href="#d"/><linearGradient id="ev" x1="571.7287" y1="285.70735" x2="599.40214" y2="285.70735" xlink:href="#b"/><linearGradient id="ew" x1="65.56215" y1="268.96069" x2="53.26377" y2="285.84801" gradientTransform="matrix(1, 0, 0, 1, 0, 0)" xlink:href="#n"/><linearGradient id="ex" x1="56.02431" y1="290.65717" x2="67.15495" y2="255.15944" gradientTransform="matrix(1, 0, 0, 1, 0, 0)" xlink:href="#n"/><linearGradient id="ey" x1="72.64838" y1="231.94366" x2="76.0327" y2="238.93791" xlink:href="#f"/><linearGradient id="ez" x1="142.5664" y1="217.62494" x2="170.72877" y2="208.23748" gradientTransform="translate(-62.58248 2.71782) rotate(2.47276)" xlink:href="#f"/><linearGradient id="fa" x1="133.11392" y1="195.73786" x2="179.4215" y2="221.64419" gradientTransform="translate(-62.58248 2.71782) rotate(2.47276)" xlink:href="#ab"/><linearGradient id="fb" x1="-298.10067" y1="1168.77806" x2="-296.96733" y2="1168.77806" gradientTransform="translate(165.76469 -984.30655) rotate(-10.85335)" xlink:href="#ab"/><linearGradient id="fc" x1="160.2822" y1="210.14933" x2="165.54669" y2="207.06584" gradientTransform="translate(-62.58248 2.71782) rotate(2.47276)" xlink:href="#f"/><linearGradient id="fd" x1="155.77551" y1="212.43642" x2="167.52736" y2="210.293" gradientTransform="translate(-62.58248 2.71782) rotate(2.47276)" xlink:href="#f"/><linearGradient id="fe" x1="-300.53253" y1="1167.63509" x2="-296.14839" y2="1167.63509" gradientTransform="translate(165.76469 -984.30655) rotate(-10.85335)" xlink:href="#ab"/><linearGradient id="ff" x1="-300.53253" y1="1169.11428" x2="-296.54958" y2="1169.11428" gradientTransform="translate(165.76469 -984.30655) rotate(-10.85335)" gradientUnits="userSpaceOnUse"><stop offset="0" stop-color="#957a53"/><stop offset="1" stop-color="#f5e1be"/></linearGradient><linearGradient id="fg" x1="119.8905" y1="194.2106" x2="139.61608" y2="190.61285" gradientTransform="translate(-62.58248 2.71782) rotate(2.47276)" xlink:href="#ff"/><linearGradient id="fh" x1="272.47552" y1="194.10205" x2="275.12057" y2="192.16829" gradientTransform="translate(-233.25321 56.72712) rotate(8.20878)" xlink:href="#f"/><linearGradient id="fi" x1="278.77031" y1="184.30521" x2="342.68277" y2="200.98618" gradientTransform="translate(-233.25321 56.72712) rotate(8.20878)" xlink:href="#a"/><linearGradient id="fj" x1="77.5184" y1="263.69284" x2="93.61271" y2="281.59211" gradientTransform="matrix(1, 0, 0, 1, 0, 0)" xlink:href="#n"/><linearGradient id="fk" x1="262.57412" y1="189.52752" x2="278.05244" y2="189.52752" gradientTransform="translate(-233.25321 56.72712) rotate(8.20878)" xlink:href="#b"/><linearGradient id="fl" x1="372.99219" y1="249.00772" x2="375.8414" y2="251.50901" gradientTransform="translate(-233.25321 56.72712) rotate(8.20878)" xlink:href="#f"/><linearGradient id="fm" x1="367.92927" y1="255.8482" x2="379.78502" y2="255.8482" gradientTransform="translate(-233.25321 56.72712) rotate(8.20878)" xlink:href="#b"/><linearGradient id="fn" x1="334.45429" y1="190.21389" x2="386.50218" y2="235.9061" gradientTransform="translate(-233.25321 56.72712) rotate(8.20878)" xlink:href="#a"/><linearGradient id="fo" x1="88.64725" y1="276.77986" x2="78.56951" y2="290.61796" gradientTransform="matrix(1, 0, 0, 1, 0, 0)" xlink:href="#n"/><linearGradient id="fp" x1="98.62381" y1="314.50813" x2="100.95435" y2="307.07562" xlink:href="#f"/></defs><g class="a"><ellipse class="b" cx="100.68601" cy="370.30048" rx="47.53125" ry="4.21159"/><ellipse class="b" cx="579.90769" cy="375.41456" rx="47.53125" ry="4.21159"/><ellipse class="b" cx="409.91506" cy="317.95638" rx="61.29492" ry="4.21159"/><ellipse class="b" cx="150.09979" cy="332.99778" rx="61.44729" ry="4.21159"/><ellipse class="b" cx="248.2676" cy="317.65555" rx="74.78156" ry="4.21159"/><ellipse class="b" cx="509.08563" cy="347.43754" rx="74.78156" ry="4.21159"/><path class="c" d="M187.95905,189.64753C183.05829,142.49374,223.27056,70.7102,223.27056,70.7102s9.91289-2.54862,6.88012,5.00717,14.36446,27.17691,20.8754,34.89318c17.886,21.19714,37.10129,41.12372,25.585,83.53723-6.50828-5.01471-57.712-4.81284-77.40971-5.67923C196.06163,189.28522,191.30912,188.60033,187.95905,189.64753Z"/><path class="d" d="M270.96921,210.27448a123.88282,123.88282,0,0,0,5.64184-16.12668,66.42281,66.42281,0,0,0-36.77151-12.9441c-1.37981-.04637-2.68179-.038-3.92783.00833C247.19339,201.469,252.38167,201.27593,270.96921,210.27448Z"/><path class="e" d="M282.98916,216.51328c-4.56688-2.5357-8.52827-4.54841-12.02-6.2388-18.58754-8.99855-23.77582-8.80553-35.0575-29.06245l-.003-.00509c-11.90432.21931-35.38847,4.51416-47.94975,8.44062,2.16185,20.79974,12.8823,33.07562,40.01776,37.35592a166.44983,166.44983,0,0,0,25.70766,1.73328c1.6419-.00006,4.5808-.38915,8.00012-.31493,12.85.27881,32.50749,7.1254,15.82095,65.98129l5.655.4538C283.524,288.226,311.86847,232.549,282.98916,216.51328Z"/><path class="f" d="M397.64842,92.9369s2.12051,33.22931-55.23673,67.42007l2.61491,5.25109s36.89735-14.05817,58.62317-41.06665"/><path class="g" d="M253.6844,228.73676a166.44983,166.44983,0,0,1-25.70766-1.73328c3.11794,9.20668,1.97262,15.99178-1.261,24.52615-11.86379,31.311-28.509,41.6982-28.509,41.6982l3.758,1.547c18.37021-15.31481,32.86283-30.02345,44.12735-44.06979a197.602,197.602,0,0,0,15.59244-22.28318C258.2652,228.34761,255.3263,228.7367,253.6844,228.73676Z"/><path class="h" d="M273.24843,37.32991s-7.38071-4.46959-7.77882-4.81323a.85533.85533,0,0,1-.36254-.67431l-.77408-3.54445s-3.8025-9.77188-3.86989-10.08009-5.45061-11.40334-24.90349-6.83174-20.18095,16.517-20.08795,22.363c.09275,5.84611-.83127,9.00794,1.33928,12.78564,1.31939,2.29618,9.95234,7.568,10.50337,13.05623.238,2.37029-2.091,7.22623-2.091,7.22623l-1.95273,3.893,6.88016,5.00713c.9454-2.74794,4.01486-17.41238,25.643-13.41748,3.08984.57074,5.40734,2.428,10.2751,3.02345.4461.05452,4.02928-.7724,4.70538-1.61971s.77806-3.82966.51995-5.01117c-.25786-1.18144-2.01215-1.82087-2.01215-1.82087l.3613-.56334a9.52911,9.52911,0,0,1,.65422-2.6724,1.51666,1.51666,0,0,0-.091-1.64849l-.66417-.82368A1.66509,1.66509,0,0,0,270.6,48.766c.33793-.76649.37473-2.16557-.10816-4.59094C278.46207,41.73461,273.24843,37.32991,273.24843,37.32991Z"/><path class="i" d="M259.4069,31.53559l2.4624-1.27335-.50864-.26325s-2.28221.691-3.08795,1.04626Z"/><path class="j" d="M259.07663,31.70638l2.65913,1.94874-.1265.28327a.59433.59433,0,0,1,.58411.51826l-2.94972-.1477-1.07929-.274Z"/><path class="k" d="M260.95473,30.73518a1.6018,1.6018,0,0,1-.23519,2.1752l-1.64291-1.204Z"/><path class="l" d="M260.95473,30.73518a2.26528,2.26528,0,0,0-.23519,2.1752A1.53029,1.53029,0,0,0,260.95473,30.73518Z"/><path class="m" d="M261.05059,31.1766a1.07957,1.07957,0,0,0-.16928.63653c.06674.2491.3249.41474.35438.211S261.337,31.28069,261.05059,31.1766Z"/><polygon class="n" points="385.841 63.237 390.568 64.717 393.669 60.802 391.173 58.959 385.841 63.237"/><path class="o" d="M398.25223,62.94785s-2.14347-2.40544-3.07952-3.36985-1.50335,1.2236-1.50335,1.2236a16.214,16.214,0,0,1,1.33854,3.81281C395.37359,66.54208,398.25223,62.94785,398.25223,62.94785Z"/><path class="p" d="M398.2476,62.94238l14.58717-7.23769s3.25086-.38246,1.91227,2.10349,5.06752,2.86841,3.68112,7.0754.63447,3.05964.19772,4.97191-4.26129,5.54558-2.73147,9.9438-6.07956,0-6.07956,0S398.00246,68.2678,398.2476,62.94238Z"/><path class="q" d="M380.00431,300.55581l-.36416,1.22-.02836.97386-.17019,3.45108s-3.85765.5673-4.22639.5673-1.50335-1.67354-1.50335-1.67354l1.53171-2.77977,1.32749-3.18948Z"/><path class="r" d="M502.58656,231.18531l-1.34557.614-1.8115.47709-.28751,2.56742.43493,1.74917,3.30925-1.10623,3.54929.74762a13.92694,13.92694,0,0,0,1.61314-1.939c-.05673-.17019-2.60958-3.71582-2.723-3.74418S502.58656,231.18531,502.58656,231.18531Z"/><polyline class="s" points="414.217 193.544 444.461 255.423 499.577 236.867 498.123 232.505 448.822 242.843 434.3 192.013"/><polygon class="t" points="403.77 197.156 376.571 298.211 380.444 299.422 420.684 200.182 403.77 197.156"/><path class="u" d="M394.9289,64.2188c12.96369,64.31011-26.37149,142.15734-26.37149,142.15734l40.14333,7.74006,37.63885,7.25716c12.20113-80.32409-48.08736-158.42551-48.08736-158.42551Z"/><polygon class="v" points="382.259 298.968 375.679 296.85 375.679 297.909 374.922 298.438 381.276 301.086 381.276 300.254 382.259 300.254 381.578 299.422 382.259 298.968"/><path class="w" d="M497.3077,231.459c.07564.11346,1.09679,4.08456,1.09679,4.08456l.34038,3.25252.832-.79422.7564.11346-.7564-3.27143-.22692-3.95219h-.34038l-.64294.60512-.52948-.60512Z"/><path class="x" d="M199.71576,292.14389l-2.00986.57043-3.3043,1.01021s.39475,3.8791.48506,4.23661,1.99075,1.0477,1.99075,1.0477l2.32-2.16586,2.76724-2.06819Z"/><ellipse class="y" cx="402.59012" cy="38.09977" rx="4.31958" ry="3.0847" transform="matrix(0.02303, -0.99973, 0.99973, 0.02303, 355.22771, 439.70554)"/><path class="z" d="M391.35623,14.18857s-10.35429,1.394-14.288,15.32412a18.19808,18.19808,0,0,0-.27129,3.53063c.13564,1.08517-6.33013,7.05358-6.33013,7.05358s-3.79808,3.70765,3.02942,6.05884a6.97747,6.97747,0,0,1-.76866,2.98421l.49737,1.71818s-1.53732.85909-.09044,4.38588c0,0,.36173.27129-.22607.99473s-6.511,7.68659,7.82224,8.45525,17.40786-18.08609,15.46361-27.31S391.35623,14.18857,391.35623,14.18857Z"/><path class="aa" d="M378.68258,32.65226s-.584,2.134-.92572,2.20023c0,0-.43679.84132,3.397,2.20023"/><path class="ab" d="M383.94961,32.81088s-8.20694-6.46722-6.73448-.44717C377.21513,32.36371,377.467,29.17152,383.94961,32.81088Z"/><path class="ac" d="M380.494,38.09977s-7.17461,6.89512-2.75213,10.40857c4.27326,3.3949,1.41783,8.066,1.41783,8.066"/><polygon class="ad" points="377.759 34.916 377.013 35.574 381.306 36.951 377.759 34.916"/><polygon class="ae" points="379.133 36.26 377.742 36.425 378.298 37.053 379.622 36.356 379.133 36.26"/><path class="af" d="M412.16335,51.83435S385.9044,67.038,381.05045,66.92454s-.30342,5.89993,2.01645,3.51727-2.25635,2.38266.88271,1.92882,6.65633-2.198,6.76979-3.65185-7.71529,6.60181-5.21916,6.82873,4.65186,3.63072,5.21916.79422.68076,1.02114,1.81536,1.92882,1.475.5673,2.38266,1.58844,2.90464.67751,3.32642.45384-2.14736-7.82874-2.28305-9.6441.59393-4.9828,2.55505-5.95193,8.20143-6.28222,10.69755-5.38431,4.64655,1.13051,4.71154,1.33255S412.16335,51.83435,412.16335,51.83435Z"/><path class="ag" d="M405.67563,56.14584l6.94156.45384,5.18432,16.11648a5.41294,5.41294,0,0,0-.38115,1.62107c-.148,2.3461-.1513,6.05122,1.26867,7.41679s1.9953,7.86254,1.9953,7.86254,2.48465-5.14354,0-6.64013c-2.484-1.49625-.00133-5.36459-.00011-5.36647a20.26065,20.26065,0,0,0,1.58162,2.55429c-.26232.9638-.47722,1.58977-.47722,1.58977s.30709-.46337.74874-1.23211a9.25225,9.25225,0,0,0,2.73506,2.45452c5.28033,2.89052.97145,11.93491.97145,11.93491s7.21214-11.1947,0-14.35768a6.40037,6.40037,0,0,1-2.5913-2.14189c1.57913-3.26758,3.24209-8.13971.87793-10.88214a9.10831,9.10831,0,0,1-1.8994-4.92083c3.35693-6.5567,9.23353-11.94921,3.71476-23.15611-6.92106-14.05453-4.5384-28.237-19.40167-29.37164s-17.2143,1.10263-17.58631,2.95c-.208,1.03277.4904,2.68321,1.14668,3.93847-.72436,2.81944-1.399,7.06378.3283,9.2229,2.723,3.4038,6.62517,15.99787,5.12792,20.08243s-2.6318,12.59407-7.624,17.92669S405.67563,56.14584,405.67563,56.14584Zm17.24449,21.07864c-1.363-2.62315-1.77553-6.14911-1.819-9.20423a20.24044,20.24044,0,0,0,1.1602,1.92988C423.48266,71.70582,423.35025,74.69351,422.92012,77.22448Z"/><path class="ah" d="M391.17324,25.17124s3.74418,10.4324-.22692,12.92853-.5673,3.25844-.45384,9.9904c.07391,4.38552-5.52172,18.98565-5.52172,18.98565a22.74559,22.74559,0,0,0,6.76978-19.89333c-1.7019-12.821,4.42494-10.55179,4.42494-10.55179Z"/><path class="ai" d="M390.7211,16.165s-3.83965,1.02618-3.112,4.24088c0,0,.095-3.68091,3.38018-2.559S390.7211,16.165,390.7211,16.165Z"/><path class="aj" d="M394.8796,35.723s-3.83311,3.10122-1.21024,5.59737,1.891,8.58514,1.891,8.58514.373-5.831-1.73972-7.79092-2.554-3.782-1.069-5.40827S394.8796,35.723,394.8796,35.723Z"/><path class="ak" d="M396.16548,34.21022s-3.06342,6.765-2.04228,9.81188a43.27732,43.27732,0,0,0,3.63072,7.20713S389.131,42.68191,396.16548,34.21022Z"/><path class="al" d="M413.63833,51.69253s-.68076,3.68745-2.29756,3.82928-4.47223,2.32416-2.87433,6.73581-1.69244,4.8182-1.69244,4.8182,2.01392-1.059.22692-5.14352a5.98221,5.98221,0,0,1,.82259-6.65632s-2.29757.64294-2.46776,1.86263-2.49612,1.38989-2.49612,1.38989,2.04228-.17019,2.07064-1.50335-3.098.57546-3.098.57546l5.62252-6.759Z"/><path class="am" d="M269.54238,51.16364a6.52583,6.52583,0,0,1-4.86622-.77359s.34109,2.77285,4.647,3.11665c0,0,.76793-.271.76793-.96538A2.60871,2.60871,0,0,0,269.54238,51.16364Z"/><path class="an" d="M194.58566,292.09821s-2.2054-1.32452-3.22854.04568-5.1314,8.28924-6.34877,12.35042-.16389,9.96793,2.91931,10.6621l-.67716-8.10506Z"/><path class="ao" d="M197.7059,292.71432l-3.12024-.61611-2.12676.53722-6.39442,10.82113-1.05613,3.23139,1.81545,7.187,1.10386,1.28148s1.37639.19843,1.24672-.31493-.51086-6.34628-.51086-6.34628l8.21389-9.48636S193.84293,295.95258,197.7059,292.71432Z"/><path class="ap" d="M283.16044,294.85693s-4.03865,7.46494.12946,11.21673c0,0-.67686,3.08349-3.94837,1.27852a7.95812,7.95812,0,0,1-3.88963-5.0015s.64708-.43272,1.013-2.38759l1.04063-5.56Z"/><path class="an" d="M272.17923,305.641s-1.97536.72406-.98826,2.16239,4.90726,8.771,9.87092,9.13766,14.206.81558,11.75646-1.48178S272.17923,305.641,272.17923,305.641Z"/><path class="aq" d="M273.96423,302.915s-3.1587,3.15869-1.35373,4.66283,5.71573,6.95988,7.67112,7.61633,10.82981.65645,11.88271.65645,1.35373-1.95538-1.0529-3.1587-3.76035-3.30911-7.82153-6.61822c0,0-3.76035,1.50414-5.71574-.75207S277.12292,299.15461,273.96423,302.915Z"/><path class="ar" d="M218.15046,124.486s32.397,59.91906,106.52444,46.22955l.54488-6.22179s-48.60872,8.25506-83.26493-56.0755"/><path class="am" d="M373.22492,50.85813a7.97549,7.97549,0,0,0,5.17291-.3192,5.753,5.753,0,0,1-4.07754,3.04588C371.33081,54.14887,372.9743,51.83435,373.22492,50.85813Z"/><path class="as" d="M342.41169,160.357s-5.20424,2.98963-6.72423,4.48582,1.97713,6.91109,1.97713,6.91109,6.085-5.63407,7.362-6.14582S342.41169,160.357,342.41169,160.357Z"/><path class="at" d="M325.21978,164.49371l7.62082-.71242s3.75546,1.38829,6.10688,2.3015,2.89272,9.12761-3.25108,8.85522-3.30132-3.80237-5.60648-4.2208a21.11028,21.11028,0,0,0-5.415-.00171Z"/><path class="au" d="M334.241,169.12684c-.02317.98769,1.98389.21087,2.07476,1.57591s1.8966.12747,2.26118,1.0277-.09131,3.527-2.46076,3.45547-6.61551-.97336-5.07393-4.34814S334.26418,168.13915,334.241,169.12684Z"/><path class="av" d="M339.21574,168.67979a2.03038,2.03038,0,0,1-1.664,0c-.93069-.39483-2.67925,1.38193-3.44072,1.32553s-.31023-2.62285,1.43833-4.11759a3.77546,3.77546,0,0,1,5.16109,0"/><path class="aw" d="M147.78715,111.141s-40.14588,13.46489-39.97895,68.51644h5.18386s-2.37975-43.83959,41.41469-49.3934"/><path class="ax" d="M127.49786,220.65821s5.0377,14.59034,35.7557,28.49054c46.53593,21.058,10.84262,61.551,10.84262,61.551l2.53656,1.94643s29.61294-25.8128,18.13132-62.29417,7.29067-47.64882,7.29067-47.64882Z"/><path class="ay" d="M156.57812,88.0819s-5.6182,8.21319.77592,11.50186l-8.44243-3.64108-6.5959-10.83486,3.15768-3.2347,9.70409-.9242Z"/><path class="az" d="M157.354,41.16769s-.06876-3.33857-4.32121-3.526a81.8376,81.8376,0,0,0-11.78807.95316s1.91007-5.03247.6475-6.45514,1.14061-3.32071-.11328-4.53068-1.88882-4.18992-4.23408-4.3328-.76156-2.58658-2.43857-3.05879-1.18464-3.65-2.38009-4.153-5.79012-2.41723-8.459-1.88443-7.422-.84065-9.55858.13693-3.26307.188-4.70232,1.47541-5.41336,3.91247-5.93214,7.44408S101.946,27.589,103.849,29.80233s-.415,8.44161,2.2805,9.92844-2.33477.6647-.37673,3.55813,2.63934,8.51739,8.62833,8.08451.533,4.401.86381,5.31882-2.83078,3.04573-1.50454,5.33725S112.638,65.233,113.559,67.28022s.55,6.20772,2.63847,8.1205,1.37643,4.74381,4.59492,6.463,2.53138,5.57836,5.046,5.59309,2.38378,4.35658,4.84229,4.67825,3.99631,2.35392,6.15675,1.61176,5.0599-1.70191,6.21915-1.05831,5.56376,1.86212,5.76352,3.364-1.25037-6.97435-3.686-8.81369,3.39871-9.04235,3.39871-9.04235l7.99615-31.87144Z"/><path class="ba" d="M154.52449,40.39209s13.61539-2.2359,18.35751,12.172c0,0,.92264,5.11508,4.68052,6.99371s9.2066,3.50045,5.23469,7.39427c0,0,.69427,3.48511,2.03043,3.32033a36.4957,36.4957,0,0,1-1.04936,5.445,16.30673,16.30673,0,0,1,2.12654,3.73424c.43518,1.478,2.30395,6.307-1.5073,8.59586s-22.4046,5.86162-32.08118-2.79011l-1.04758-1.65382s-4.79918,1.2236-7.52455-1.49694-7.37735-5.91179-5.54932-8.76078,3.79775-3.5956,6.98046-2.22949c0,0,4.12583.58082,4.85424-2.32322s-.74385-5.22833-1.22216-5.489c0,0,2.17971-2.1949,1.299-4.07968s1.97261-2.12635.75516-4.04836-2.0131-1.79381-1.69889-4.56075,2.862-4.38076,1.68031-5.94964S154.52449,40.39209,154.52449,40.39209Z"/><polygon class="am" points="166.781 59.479 169.443 58.466 170.896 58.169 169.971 60.081 171.012 60.958 168.953 61.445 166.781 59.479"/><path class="bb" d="M161.47789,56.90669l4.02425-3.238s4.5057-.59928,4.81858-.79747.93866-.59457.33963-1.34251a3.75567,3.75567,0,0,0-2.092-.92961l-4.4222,1.42324S161.45837,54.60167,161.47789,56.90669Z"/><path class="bc" d="M170.3302,58.69042a.9584.9584,0,0,0-.35946,1.39014c.46626,1.02491,1.04149.877,1.04149.877s.448-.25112.43535-.61062-.08887-1.5314-.37513-1.58371A7.04235,7.04235,0,0,0,170.3302,58.69042Z"/><path class="bd" d="M170.40333,57.62186s.26668-1.15066-.63266-1.59013-.69431-1.10427-2.191.229a23.716,23.716,0,0,1-3.44408,2.447l.89043.85147s1.657-.04311,1.75507-.08043l2.66208-1.01326Z"/><path class="be" d="M165.03259,60.199l.72809,2.00253a12.68808,12.68808,0,0,0,2.56259,1.02422c.50492-.01085,1.545.32278,1.98694-.1444s1.4102-1.27653,1.27379-2.00546-.81745.37488-.81745.37488l-3.93961-.71618Z"/><path class="bf" d="M180.20731,67.82012s.79356-1.71354,1.60511-1.68479,1.198.24328.453.71516S180.43076,67.05226,180.20731,67.82012Z"/><path class="bg" d="M178.78938,74.31948s4.74493-3.65967,6.03826-4.04708a1.00631,1.00631,0,0,1,1.36525.97128s-.09469,2.29533-1.21839,2.79656S178.78938,74.31948,178.78938,74.31948Z"/><path class="bh" d="M179.34181,76.39922s2.86807,3.68641,4.96367,3.75706c1.91093.06443,3.28011-2.00918,2.563-2.99521C185.42673,75.17885,179.34181,76.39922,179.34181,76.39922Z"/><path class="bi" d="M166.41728,59.61728l3.02591-1.15174,2.15971.39466s.50673-.15628.58485-.59165-.40966-1.11733-.40966-1.11733-.78673.6576-1.37476.47064a4.53962,4.53962,0,0,0-1.95465.318Z"/><path class="bj" d="M166.41728,59.61728a9.912,9.912,0,0,0,2.167,1.19045c.47873.0316,1.97816.54642,2.428.14987a1.66713,1.66713,0,0,1,1.24883-.237l-.38529.975s-3.40439.62516-4.10625-.04234A8.518,8.518,0,0,1,166.41728,59.61728Z"/><path class="bk" d="M128.18449,184.06629q-1.56629,1.30071-2.99758,2.59618c-3.48832,11.75785-4.71794,22.91769-.33092,29.5747,12.702,19.27469,5.61171,30.63452-4.80454,48.47222-12.84971,22.0053-12.23864,52.38367-12.23864,52.38367h4.25379c8.60006-48.1598,38.97366-64.48092,63.64274-84.30858,16.798-13.50142,30.95141-28.62845,33.78186-56.54232.1528-1.50694.24433-2.98532.29829-4.44571C172.28549,156.933,144.61787,170.41983,128.18449,184.06629Z"/><path class="bl" d="M107.81275,317.09307s.66857,5.48233-1.58364,7.56057l.83821,3.16015,9.5974,2.95065,5.97366-.78684-.1755-2.67327a20.04144,20.04144,0,0,0-2.50326-1.28552c-3.36056-1.41727-8.88028-4.14237-7.893-8.92574Z"/><path class="bm" d="M154.62984,147.4505c22.72006-.47159,18.19571-17.23238,18.19571-25.49422,0-5.893-15.3601-15.48746-24.16946-20.5057-.48416,9.85293-2.76282,30.43568-13.03519,44.73577C136.84493,146.90248,141.09413,147.73145,154.62984,147.4505Z"/><path class="bn" d="M183.82369,116.81129c-8.79178.52594-35.066-18.06842-35.066-18.06842h0c-.01869.771-.05143,1.68708-.10157,2.70771,8.80936,5.01824,24.16946,14.61271,24.16946,20.5057,0,8.26184,4.52435,25.02263-18.19571,25.49422-13.53571.28095-17.78491-.548-19.00894-1.26415a41.09145,41.09145,0,0,1-4.67408,5.48062c-7.71172,7.514-13.39134,20.221-14.18107,33.79249-.18264,3.13873-1.3894,8.34124.27206,9.50137s6.21241-2.97415,8.42541-8.54545c.771-1.941-1.76523,1.58211,0,0q.12312-.11037.247-.22083c.34574-.30774.69541-.616,1.05272-.92467l.00735-.00627q.54481-.47064,1.109-.94207.08532-.07147.17084-.14289,1.16787-.97316,2.41146-1.94271l.10416-.08111q1.27875-.99228,2.63683-1.97084l.05835-.04207q1.38258-.99272,2.8466-1.9609l.02139-.01415q1.47751-.97461,3.03761-1.91357l.00735-.00443q1.56384-.93923,3.21013-1.832l.00584-.00317q1.63965-.88731,3.36066-1.71777l.02935-.01423q1.70367-.81977,3.48683-1.5733l.0737-.03137q.88092-.37064,1.781-.72308l.08267-.03187q.85294-.33265,1.72342-.64755c.048-.0174.09563-.03523.14372-.05252q.88968-.32016,1.79737-.62071c.06768-.0224.136-.044.20383-.06627q.82107-.26939,1.65683-.5217c.08072-.02438.16078-.04956.24172-.07373q.88844-.26517,1.79348-.51c.11656-.03155.23409-.06177.351-.09282q.77088-.20482,1.55363-.39412c.1229-.02971.24486-.06069.36819-.08983q.87806-.2078,1.77118-.39491c13.3-2.79462,29.01092-2.18331,46.98093,4.9385C210.70187,147.14978,197.91938,129.11551,183.82369,116.81129Z"/><path class="bo" d="M105.67411,330.69805s-.48078.41792-.18761.6513a49.49876,49.49876,0,0,0,5.23852.76611l.00442-.47641,3.30493.30346s4.17773,1.07671,6.20016,1.3214,5.81033.64165,7.43473-.02519,1.7844-1.49875,1.7844-1.49875l-3.15913.5172s-11.42987-1.54106-11.46887-1.54464-8.67087-.32427-8.701-.3172S105.67411,330.69805,105.67411,330.69805Z"/><path class="bp" d="M106.22911,324.65364c-.44647-.27694-1.55722,2.82605-1.47642,3.65929s.05116,2.22656.92142,2.38512,7.20912.50465,8.70311.93677,8.64544,1.99324,11.42549,1.48167,4.07289-1.10071,3.56653-1.79607-3.78624-2.23525-3.78624-2.23525l-3.12012-1.78084a4.75793,4.75793,0,0,1-4.13066,1.944C115.6169,329.05488,112.352,328.63712,106.22911,324.65364Z"/><circle class="bq" cx="122.63838" cy="328.2839" r="0.24475"/><circle class="br" cx="123.80756" cy="328.78716" r="0.24475"/><circle class="bs" cx="124.91873" cy="329.30352" r="0.24475"/><circle class="bt" cx="182.63373" cy="325.43969" r="0.24475"/><circle class="bu" cx="183.36854" cy="326.47906" r="0.24475"/><circle class="bv" cx="184.04704" cy="327.49935" r="0.24475"/><path class="bw" d="M183.5966,116.81705a3.48852,3.48852,0,0,0,2.14455-.63461c-6.407-4.00886-12.42312-7.46507-12.42312-7.46507l.00083.01192a120.19512,120.19512,0,0,0-24.54293-12.95894s.02751,1.08514-.01827,2.97252h0s13.93552,9.86133,24.90485,15.01763l.00011.00173c.051.024.10078.04607.15164.06984q.345.16122.68569.31577c.13827.06278.27539.124.41252.18507q.28284.126.56247.24741.189.08185.37618.16126c.17616.07474.35064.14721.52443.21867q.23562.09691.46828.18992.28813.11493.57162.22372c.12491.04776.24835.09375.37168.1395q.22254.0825.44112.16c.11853.04225.23787.08558.35478.12574q.334.11481.65828.21748c.1216.03869.24071.07449.36022.11061q.19051.05766.3773.11073c.11955.03407.23924.0684.35644.09966q.30223.08067.5941.14923c.113.02636.22227.04851.33267.07193.11057.02341.22025.04585.3282.06627.11252.02129.2244.04189.334.05983.11933.01948.23527.03515.351.05057q.237.0316.46338.05125c.0987.00861.19692.01679.29251.022q.1489.00811.29276.01067C183.417,116.8209,183.50687,116.8191,183.5966,116.81705Z"/><path class="bx" d="M198.20119,124.71024a136.18413,136.18413,0,0,0-12.46-8.5278c-1.9153,1.54272-6.63166.14065-12.07849-2.42021l2.11354,30.93871s4.72105,4.10632,20.85133.73766S205.47951,130.68579,198.20119,124.71024Z"/><path class="by" d="M141.24476,38.59482s-1.63121,3.64007-8.5585,5.02553-12.175,8.54645-15.24,8.14975-.73348,2.9061,1.22246,1.98278,9.0899-7.27908,12.279-7.93106,11.51833-3.91292,12.2518-6.27635S142.08728,37.41385,141.24476,38.59482Z"/><path class="bz" d="M166.90217,318.64757s-.6282.10566-.49987.45772a49.49565,49.49565,0,0,0,4.06914,3.3869l.25235-.40411,2.661,1.98332s3.00214,3.09836,4.59977,4.36236,4.62188,3.57909,6.35557,3.8578,2.30425-.34749,2.30425-.34749l-2.96486-1.20716s-8.94651-7.2785-8.97791-7.30191-7.22776-4.8009-7.25716-4.8106S166.90217,318.64757,166.90217,318.64757Z"/><path class="ca" d="M170.52948,313.78078c-.23637-.46921-2.803,1.59833-3.16885,2.35131s-1.11812,1.92614-.45846,2.51548,5.88665,4.19207,6.93568,5.34023,6.33523,6.2114,8.97377,7.22556,4.04883,1.18615,3.97969.32875-2.06367-3.88243-2.06367-3.88243l-1.73251-3.14722a4.758,4.758,0,0,1-4.53813-.49688C176.24155,322.43375,173.67428,320.37379,170.52948,313.78078Z"/><path class="cb" d="M176.63274,312.64623s-1.61053,1.4062-.85846,2.87274,6.85945,8.26423,6.85945,9.09248-3.28711.82824-3.28711.82824l-9.51369-9.6951s.18979-1.93462.69655-1.96381,3.5667-3.081,3.5667-3.081Z"/><circle class="cc" cx="183.06277" cy="326.43146" r="0.24475"/><circle class="cd" cx="183.54527" cy="327.60936" r="0.24475"/><circle class="ce" cx="183.97718" cy="328.756" r="0.24475"/><path class="cf" d="M166.194,124.4786s3.7711,51.11766,40.124,79.54592l-2.45392,3.60994s-41.17284-24.36708-55.10646-70.845"/><path class="cg" d="M506.80053,228.197a3.14456,3.14456,0,0,1,1.88488-.86509c1.12811-.07521,11.20585,6.24218,13.16123,8.94964s3.35987,7.73176,2.48184,8.19756-1.30053,1.97523-2.11629.81254,1.51463-5.325-3.37383-9.61176c-1.962-1.72055-4.98743-2.37692-7.06946-3.60994A23.72218,23.72218,0,0,1,506.80053,228.197Z"/><path class="ch" d="M502.58656,231.18531l2.40072-2.08615,1.81325-.90218,1.24948.59566,4.25144,2.67015,5.727,3.25344,2.52317,2.27834,3.21931,6.2896-.32046,1.66072s-1.09548.85661-1.23825.34674-3.9331-4.91148-3.9331-4.91148l-11.84364-4.14574S507.54834,232.07384,502.58656,231.18531Z"/><path class="ci" d="M360.24793,317.72643s-.24685,1.358,2.46061,1.50847,8.04715.44259,10.45378-1.50847,11.33518-9.24293,7.811-12.1024l-5.32916,5.71413s-10.45378,5.03887-10.82981,5.18928S360.24793,317.72643,360.24793,317.72643Z"/><path class="cj" d="M379.61179,302.7497l1.36152,2.87433v2.19356l-8.92553,8.84988-2.87432,1.81536h-7.41273l-1.5128-.7564s-.52948-1.28588,0-1.28588,6.27813-1.059,6.27813-1.059l7.1858-10.28705S377.41822,307.28811,379.61179,302.7497Z"/><path class="am" d="M184.0746,74.32749a12.207,12.207,0,0,1-5.24791,0s-.87125,2.45106,5.80687,2.63349a3.20553,3.20553,0,0,0-.09051-1.62253C184.25277,74.70633,184.0746,74.32749,184.0746,74.32749Z"/><path class="ck" d="M107.8082,179.65744s1.17861,3.82874-.00052,5.18247-3.63864,6.65782.52419,9.30787,4.5629-9.98056,4.66019-14.49034S107.8082,179.65744,107.8082,179.65744Z"/><polygon class="cl" points="213.627 207.071 221.695 199.731 226.997 207.071 218.15 213.613 213.627 207.071"/><polygon class="cm" points="216.28 206.672 221.583 201.987 225.192 206.672 218.15 212.027 213.627 208.53 216.28 206.672"/><path class="cn" d="M203.86412,207.63446s6.42869,2.92626,5.92537,4.28.62478,4.91092,3.55786,4.59886,6.67315-3.24513,4.80311-6.1782-11.83242-6.31058-11.83242-6.31058Z"/><path class="co" d="M235.64414,19.208c7.583-2.44064,18.65008.67012,18.65008.67012s-4.95851.41262-4.95851,3.99861,3.43676,10.40636-2.96986,11.106c0,0-3.49413,3.903-2.0522,7.10634s-.99861,2.92018-.99861,2.92018-2.62274-8.073-8.57053-7.36507a22.1657,22.1657,0,0,0-6.07085,3.277q-.46433.4205-.84743.73765a7.97971,7.97971,0,0,0-2.49678,7.94636c2.42642,10.63622,1.98486,9.98583,1.98486,9.98583a159.84167,159.84167,0,0,1-13.82143-15.57909C214.5771,27.40207,228.36222,21.55168,235.64414,19.208Z"/><path class="cp" d="M266.9588,10.36067C262.3123.72759,255.3082-1.24339,243.21445.646c-.85529.13362,1.12289,1.04429.21572,1.21518-3.20937.60457-10.54728.47305-14.891,1.35373-.43516.08822.58119.51814.18158.621a29.87281,29.87281,0,0,0-5.53184,1.99321c-15.49931,7.46689-13.5813,25.37434-13.54272,30.61591a14.474,14.474,0,0,0,3.77077,9.67736c0-.72457.031-1.42341.076-2.11057C214.577,27.40208,228.36229,21.55168,235.64405,19.208c7.58313-2.44064,18.65009.67013,18.65009.67013S273.21293,23.3266,266.9588,10.36067Z"/><path class="cq" d="M507.74068,101.62906a52.59,52.59,0,0,1-18.58331,11.68749c-.23921,4.93944-2.12405,12.19153-9.90435,18.08146a58.27112,58.27112,0,0,0,12.16715,2.73824C530.52783,138.64867,507.74068,101.62906,507.74068,101.62906Z"/><path class="cr" d="M489.15737,113.31655c-13.73545,4.76264-32.81186,3.20616-49.17887-27.87814L436.36871,88.805S448.97326,121.06889,479.253,131.398C487.03332,125.50808,488.91816,118.256,489.15737,113.31655Z"/><path class="cs" d="M511.7752,84.14749s-4.85245-3.144-4.45772-5.97509-11.21913-.76417-11.21913-.76417l-2.97505,5.96736s13.13543-4.26651,14.77255,2.64318S511.7752,84.14749,511.7752,84.14749Z"/><path class="ct" d="M501.047,80.00242s.61362-.1522-1.62443-1.62807,7.63512-7.42565,7.63512-7.42565l-18.39546,2.08792-11.75138-9.58038-6.64765-15.3368s-2.58962.94279-2.77386-.71717-.33524-6.706,5.92812-9.34528,23.2178-10.77222,33.21616-5.57483,13.49758,6.64623,14.44319,16.67974S520.53,71.23371,513.66433,78.873C507.99741,85.17858,501.047,80.00242,501.047,80.00242Z"/><path class="cu" d="M470.26324,48.11944a18.75168,18.75168,0,0,0-1.48974,6.058c-.15644,2.47636-2.62337,5.78611-.51638,10.18457a5.78663,5.78663,0,0,1-.411,3.05916c-.66286,1.0426-3.43731,5.36672-3.72014,5.59416s-1.86794,1.79252-1.439,3.18445a3.43868,3.43868,0,0,0,2.43425,2.75455c1.48283.44037,1.76072.37031,1.74962.72443a4.99493,4.99493,0,0,0,2.27795,3.97059s-3.19627,2.5424-.0975,3.10837c1.24885.2281,1.12486,1.80762.94032,2.66831s-.1791,6.96556,4.35932,6.67468,15.27647-1.09623,21.17635-14.65661l.25953-.74018s.92087.7772,1.55535.63956,2.6879-.30954,3.70489-1.341,6.16347-6.896,6.18845-10.20359-1.75628-6.79-3.98916-7.17508a8.521,8.521,0,0,0-6.59816,1.91984c-1.62076,1.4458-7.73487,6.76795-7.73487,6.76795l-4.336-6.16194a2.84338,2.84338,0,0,0-.44718-3.32239c-1.49379-1.34656-9.08737-4.1054-7.83169-6.46852s5.23382-6.13746,5.23382-6.13746S475.95549,43.68991,470.26324,48.11944Z"/><path class="cv" d="M475.21405,64.81652s-5.54041-1.38157-6.38139-1.22418-.57554.76965-.57554.76965-1.83447-.53016-1.77168-1.27651a1.32112,1.32112,0,0,1,1.73386-1.28471,25.32317,25.32317,0,0,1,3.89132,1.5049l3.11454,1.15673Z"/><path class="cw" d="M473.531,67.61916c-.07808-.02215-3.00863-1.39409-3.00863-1.39409l-1.18718.17938,1.97712.3771Z"/><polygon class="cx" points="473.531 67.619 471.222 68.413 471.382 68.655 473.531 67.619"/><path class="cy" d="M471.38161,68.65452s-.84058,1.37181.91273,1.9782l2.808-2.25534-1.57132-.75822Z"/><polygon class="cz" points="473.531 67.619 470.41 66.044 470.556 65.773 474.287 67.387 473.531 67.619"/><path class="da" d="M470.26324,48.11944s.03633-3.40754,3.94968-2.23923,5.09493,3.94079,9.03451,3.90683,17.03807-8.28786,23.26686-5.96569,6.44978,5.32239,6.44978,5.32239,1.60841-1.05234.78228-2.33858c0,0,2.24507,1.252,1.66214,2.25771,0,0,2.11266-2.06053,1.35288-2.95084,0,0,2.42961.39129,1.972,2.425,0,0,2.1584-7.00594-2.25871-10.8624a28.03323,28.03323,0,0,0-18.7661-6.93634c-7.80193.11644-24.84987,6.2938-27.68913,8.87463s-4.09524,7.4252-3.06436,8.48155A2.617,2.617,0,0,0,470.26324,48.11944Z"/><path class="db" d="M492.87908,79.23424c-1.28831-2.87619-3.96562-7.92267-3.96562-7.92267l-.75692-1.07532c-1.0016,1.97684-2.90633,8.01883-4.64944,8.9403a36.01484,36.01484,0,0,0-5.84449,4.74,4.87406,4.87406,0,0,0-2.138-3.06454c-.88523-.70488-4.95031-1.21464-6.59918-1.38453s-2.05467.21123-2.05467.21123a5.89456,5.89456,0,0,0,.92352,2.70958s7.234-2.43686,7.13131-.64918c-.06689,1.16758-.43764,3.65722-.74374,5.582l-.0291.0299-.39512,2.54764s-.57465,1.006-1.3067.983-2.10167-.30225-2.10142-1.56258c0-1.26033.10593-2.12342-.59629-2.34237l-.702-.219a2.27728,2.27728,0,0,1,1.02373,2.10639c-.19943,1.33288-.29591,4.42179,1.45142,6.24788,1.32859,1.3882,2.49406,1.05717,4.84513.82648,2.23346-.21919,13.97118-1.13469,19.41533-15.23455C495.7869,80.70388,494.16713,82.11035,492.87908,79.23424Z"/><path class="am" d="M469.14878,83.64933a13.91568,13.91568,0,0,0,3.61-.97437,4.2643,4.2643,0,0,1-2.93308,2.65189C467.49425,85.96611,469.14878,83.64933,469.14878,83.64933Z"/><path class="dc" d="M511.77518,84.1475l-3.87933,1.87128s10.18683,27.43684-37.01694,61.9627c-12.38224,9.05661-18.35852,21.01887-18.73872,34.57921.16336-.09045,16.76064-9.2226,40.6762-4.31481,15.47831,3.17638,34.01811,12.24163,53.15394,33.4516,1.76474,1.95614,3.534,4.00454,5.30689,6.17222a106.55163,106.55163,0,0,0,14.103-15.26961C600.70326,155.45917,511.77518,84.1475,511.77518,84.1475Z"/><path class="dd" d="M492.81639,178.24588c-23.91556-4.90779-40.51284,4.22436-40.6762,4.31481-.45978,16.40033,7.27478,35.13955,21.81837,53.92092a120.10888,120.10888,0,0,1,5.76641-26.47508A283.96991,283.96991,0,0,1,492.81639,178.24588Z"/><path class="de" d="M535.90733,230.07838c-15.05061,10.81967-29.9366,19.40607-38.64466,31.26874,17.89279,16.17151,40.576,31.58025,67.105,44.6514l2.69572-4.07344S499.48047,261.01728,535.90733,230.07838Z"/><path class="df" d="M545.97033,211.69748c-19.13583-21.21-37.67563-30.27522-53.15394-33.4516A283.96991,283.96991,0,0,0,479.725,210.00653a120.10888,120.10888,0,0,0-5.76641,26.47508c-5.13556,49.60675,20.44627,91.0673,20.44627,91.0673l5.19127-2.58146c-15.758-31.02629-12.40438-49.90092-2.33343-63.62033,8.70806-11.86267,23.594-20.44907,38.64466-31.26874a178.09174,178.09174,0,0,0,15.36989-12.20868C549.50428,215.702,547.73507,213.65362,545.97033,211.69748Z"/><path class="dg" d="M494.40483,327.54891s4.108,4.33413,3.49473,7.06544,4.32587.52153,5.55369.92633.5218-2.13347-.19034-3.84939-3.66681-6.72384-3.66681-6.72384Z"/><path class="dh" d="M564.36765,305.99852s5.61859,2.1668,4.84154,4.72384,4.69013,1.5046,5.57509,0-2.11223-4.84021-2.11223-4.84021l-5.60868-3.95707Z"/><path class="di" d="M561.52614,330.0999c.069.20491-.50159,1.47348,1.16365,1.59014s10.6901-8.00153,14.84438-17.17953-1.79115-8.05979-1.79115-8.05979l-.07378,2.767s-8.35481,14.21073-8.44364,14.28518S561.52614,330.0999,561.52614,330.0999Z"/><path class="dj" d="M567.47191,311.94766a34.65369,34.65369,0,0,1-2.57956,9.19233c-1.92142,3.96279-3.45408,7.667-3.45408,7.667s-.249,2.83,1.38974,1.65822,10.74363-10.75826,13.98533-17.23579-.77636-6.94115-4.14129-7.34725a3.37079,3.37079,0,0,1-.94335,4.16745C569.52257,311.748,567.90658,309.45952,567.47191,311.94766Z"/><path class="dk" d="M482.59038,346.23224c-.01843.21543-1.04764,1.15117.43289,1.9223s14.08471-.30107,22.71472-6.95689c7.97745-6.15255.11431-7.76018.11431-7.76018l-1.17124,2.508S490.55915,342.423,490.448,342.4558,482.59038,346.23224,482.59038,346.23224Z"/><path class="dl" d="M496.07514,335.17953s-2.92942,6.49829-6.35625,6.75139-6.69343,3.08063-6.69343,3.08063-1.357,2.49585.61308,2.07489,14.93555-2.35872,20.49172-7.00587,2.05641-6.67484-.86735-8.38928a3.37079,3.37079,0,0,1-2.52719,3.44541C498.03529,335.81425,497.46609,333.0712,496.07514,335.17953Z"/><path class="dm" d="M509.46981,209.04244l5.41491,4.362,6.44884,4.46525,9.19422,4.25876s-16.84637,15.04141-24.21666,13.086S509.46981,209.04244,509.46981,209.04244Z"/><path class="dn" d="M528.44059,160.30828c1.91691,26.84869-13.55592,53.09618-13.55592,53.09618l6.449,4.46524c20.9242-20.05084,26.51829-40.91678,26.48994-57.56142Z"/><path class="do" d="M540.15419,127.30769l-18.82054,9.69038a51.66885,51.66885,0,0,1,7.10694,23.31021h19.383A73.78864,73.78864,0,0,0,540.15419,127.30769Z"/><polygon class="dp" points="426.93 77.848 425.647 80.39 432.879 84.197 441.509 67.705 432.654 65.555 426.93 77.848"/><path class="dq" d="M432.87914,66.56839,426.78737,79.861s5.30209,2.40079,5.47131,2.50114S440.04261,68.223,440.04261,68.223Z"/><path class="dr" d="M435.377,79.42349s.23959.14355-.2493-.87659-.71454-2.18909.33836-2.78428c2.1058-1.19038-3.91077-2.61328-1.65455-3.782s10.529.45125,7.82153,4.22889-1.65456,9.22891-1.65456,9.22891L436.36871,88.805l-2.7994-5.927Z"/><path class="ds" d="M425.90687,74.87582s-2.1434,1.3749.45125,3.01479,5.07647,1.63562,4.62523,0S425.90687,74.87582,425.90687,74.87582Z"/><path class="dt" d="M427.317,72.75427s-2.14341,1.3749.45124,3.01479,5.07647,1.63562,4.62523,0S427.317,72.75427,427.317,72.75427Z"/><path class="du" d="M428.44809,70.63272s-2.1434,1.3749.45124,3.01478,5.07648,1.63563,4.62524,0S428.44809,70.63272,428.44809,70.63272Z"/><polygon class="dv" points="259.077 31.706 262.193 29.725 262.533 30.177 259.077 31.706"/><path class="dw" d="M270.49172,44.17505s-7.49486-.02112-9.231,3.162,2.69447.92688,4.61552,1.22771S272.13329,52.42014,270.49172,44.17505Z"/><path class="dx" d="M372.30953,52.09738a1.18241,1.18241,0,0,0-.46334,1.31822c.22563.90248,1.46654,1.01529,3.04589.78967s3.50575-3.66634,3.50575-3.66634a7.671,7.671,0,0,1-2.09613,1.88318C375.51254,52.68233,373.11131,51.79445,372.30953,52.09738Z"/><path class="dy" d="M264.67616,50.39005s.50764,2.75651,4.93546,3.11665c0,0,.92194-.77022.83351-1.01916s.54842.54621.60482,1.01916-.179,1.06289-1.16119,1.34607S264.95818,54.8946,264.67616,50.39005Z"/><path class="dz" d="M414.83907,158.40855l-6.30989,5.37274s-.43169.88425,0,4.54123,5.41945,4.67491,6.30989,1.68411-.29509-5.96848,3.0814-9.11984S414.83907,158.40855,414.83907,158.40855Z"/><polyline class="ea" points="414.217 108.241 436.682 132.408 414.839 158.409 417.92 160.887 449.163 131.728 413.248 85.859"/><polygon class="eb" points="528.123 157.084 547.746 157.084 547.824 160.308 528.441 160.308 528.123 157.084"/><path class="ec" d="M489.15737,113.31655l1.85439-1.35227s-.29522,14.91407-9.32006,20.93064l-2.43868-.62474V131.398S488.13026,124.67136,489.15737,113.31655Z"/><polygon class="ed" points="511.775 84.147 507.896 86.019 506.88 91.358 513.338 85.438 511.775 84.147"/><polygon class="ee" points="507.896 86.019 506.053 88.67 507.486 88.171 507.896 86.019"/><polygon class="am" points="471.312 66.782 471.558 68.298 473.531 67.619 471.312 66.782"/><path class="ef" d="M472.4829,67.22346s.05674.73659-.10649.79272-.35967.16595-.57052-.0179a4.48284,4.48284,0,0,1-.49354-1.21673Z"/><path class="eg" d="M571.93544,366.21741l1.36285,3.9575,1.17146,1.90185a12.81467,12.81467,0,0,0-1.57935.9869c-.30083.29162-4.109,0-4.109,0l-.47868-1.66376.8068-1.46573s1.2499-1.03861-1.03242-3.71676S571.93544,366.21741,571.93544,366.21741Z"/><path class="eh" d="M576.8492,239.09668c.44859.31972.878.64353,1.31119.9666A5.12061,5.12061,0,0,0,576.8492,239.09668Z"/><path class="ei" d="M568.78145,340.01866a184.53839,184.53839,0,0,0,19.49937,22.36865l2.15133-2.97353s-23.33114-26.60295.91639-44.67011C578.2785,323.79009,571.71215,332.45885,568.78145,340.01866Z"/><path class="ej" d="M549.20524,293.86734a58.00062,58.00062,0,0,0,4.2185,19.019,72.326,72.326,0,0,1,7.75122-19.18638A52.87455,52.87455,0,0,0,549.20524,293.86734Z"/><path class="ek" d="M561.175,293.69993a72.326,72.326,0,0,0-7.75122,19.18638,119.842,119.842,0,0,0,15.35771,27.13235c2.9307-7.55981,9.49705-16.22857,22.56709-25.275a63.85767,63.85767,0,0,0,4.871-10.60725A93.27046,93.27046,0,0,0,561.175,293.69993Z"/><path class="el" d="M596.21953,304.13642A93.27046,93.27046,0,0,0,561.175,293.69993a72.326,72.326,0,0,0-7.75122,19.18638c-7.31357,30.61874,14.65341,53.3311,14.65341,53.3311h3.85829s-9.1248-10.79716-3.154-26.19875c2.9307-7.55981,9.49705-16.22857,22.56709-25.275a40.07775,40.07775,0,0,0,9.004-8.38045C598.95727,305.56969,597.58268,304.83757,596.21953,304.13642Z"/><path class="em" d="M564.23173,288.745c-1.10728,1.66627-2.11808,3.31724-3.05677,4.95491a93.27046,93.27046,0,0,1,35.04457,10.43649c5.44962-15.02363,10.1632-43.01255-18.05914-64.07314C581.26341,243.06678,587.17951,254.21853,564.23173,288.745Z"/><path class="en" d="M583.5369,233.98064l-6.6877,5.116a5.12061,5.12061,0,0,1,1.31119.9666c-.43317-.32307-.8626-.64688-1.31119-.9666,0,0,10.23209,13.37545-15.48228,30.15524-8.73963,5.703-12.44167,14.349-12.16168,24.61542a52.87455,52.87455,0,0,1,11.96972-.16741,93.27046,93.27046,0,0,1,35.04457,10.43649c1.36315.70115,2.73774,1.43327,4.133,2.2268C622.521,277.70616,583.5369,233.98064,583.5369,233.98064Z"/><path class="eo" d="M575.41207,373.06366l-1.39171-2.88875h-.72207s.91479,1.87766-1.58889,1.58879-2.59983-1.82953-2.59983-1.82953l-4.62212,2.07027c-6.981-.19256-8.329,2.79244-8.329,2.79244S575.50376,376.09685,575.41207,373.06366Z"/><path class="ep" d="M556.15841,374.79688l-.91479.33705.63123,1.20366h18.14551c4.4294,0,1.39171-3.27393,1.39171-3.27393C575.50376,376.09685,556.15841,374.79688,556.15841,374.79688Z"/><path class="eq" d="M540.45761,208.09085s-.365,4.492-5.822,4.67386c0,0,7.09406,3.87539,12.18723-2.33693,0,0,2.91039,1.06364,0,2.88263,0,0,8.76647,1.43151,9.47641-2.28558s4.52982-17.72332-7.47552-10.26546S540.45761,208.09085,540.45761,208.09085Z"/><path class="er" d="M543.888,212.90384s3.06778,9.13772,0,12.7757,2.93489,3.27418,3.29869,4.72937-1.63709,3.09229,0,4.18368,1.38227,1.25886,1.27329,2.00089c-.22333,1.52066-1.79139,1.75.3914,3.02333s-.2095,4.25263,4.338,3.70694,14.4387-15.814,20.48318-8.73116a19.98456,19.98456,0,0,1,3.17671,4.50409l6.6877-5.116s-2.18469-2.75359.46857-7.71013S571.743,209.67243,571.743,209.67243s-20.0089-8.00356-20.55459-7.63976S543.888,212.90384,543.888,212.90384Z"/><path class="es" d="M548.18733,216.54984s-.53042,1.93813-.84074,1.99826c0,0-.3967.7641,3.08516,1.99826"/><path class="et" d="M552.97086,216.69391s-7.45357-5.87356-6.11628-.40613C546.85458,216.28778,547.08337,213.38863,552.97086,216.69391Z"/><polygon class="eu" points="547.348 218.605 546.671 219.203 550.57 220.454 547.348 218.605"/><polygon class="ev" points="548.597 219.827 547.333 219.976 547.838 220.546 549.041 219.913 548.597 219.827"/><path class="ew" d="M579.38778,211.58889s14.72881,21.36661,18.003,21.91231c0,0-6.00267-.24343-8.00356-1.84976v2.94115a56.10559,56.10559,0,0,1-13.55608-11.50185c-6.76648-7.76438-5.61849-11.0405-5.61849-11.0405Z"/><path class="ex" d="M543.018,204.62462s.84722-10.70271,12.732-15.62055,25.89656-.78459,29.71193,17.74223a21.59756,21.59756,0,0,0,1.62707,4.84263c7.04874,14.989,29.2116,21.08144,16.405,20.59659-14.10676-.53408-29.09721-10.60078-29.30211-19.41191,0,0-29.84854-5.36728-32.44407-6.49155S543.018,204.62462,543.018,204.62462Z"/><path class="ey" d="M560.17227,210.18274s1.33548,3.96137,9.96668,10.00382c0,0-1.45668-5.7585.07369-8.13632Z"/><path class="ez" d="M570.60848,188.25051c-1.77862.70714-5.09926-1.007-3.12123-1.93972S572.38709,187.54336,570.60848,188.25051Z"/><path class="fa" d="M588.28082,362.38731s1.9903,1.20218,1.72316,2.91262,4.41466,1.97571,4.58371-.2728-1.20808-2.2206-1.20808-2.2206l-2.94746-3.39275Z"/><path class="fb" d="M596.903,363.86376c-.96682-.51579-1.95663-.98722-2.93745-1.47645-.19208.14465-.39418.2712-.586.41922,1.2.62348.68814,1.661-.21031,2.30628s-2.28105,1.07706-3.16532.18712a31.80424,31.80424,0,0,0-1.974,4.53647c-2.27456,1.02269-5.51168,1.47971-6.06171,4.37384C587.44583,372.18715,596.40922,373.11179,596.903,363.86376Z"/><path class="fc" d="M581.96467,374.21341c-.244.21532-.49542.43371-.75069.65945.39684.23549.52571.70976,1.09413.79208,6.49233-1.81429,10.54732-3.16808,15.0289-7.5479s.534-2.339-.3259-4.34965C593.93174,372.6482,587.51079,372.12807,581.96467,374.21341Z"/><path class="fd" d="M584.32169,260.047s9.46246,28.85944-12.593,50.00265l3.09293,2.22064s28.21237-18.57031,24.18744-53.12577"/><path class="fe" d="M71.47415,245.09114s-27.55511,16.30954-11.61121,48.799l3.60993-2.1058s-11.7323-15.64306,8.724-32.18861"/><path class="ff" d="M71.47415,245.09114s-27.55511,16.30954-11.61121,48.799l3.60993-2.1058s-11.7323-15.64306,8.724-32.18861"/><path class="fg" d="M71.47415,238.77375s-1.979-8.64543-1.2674-12.39387,8.78448,9.41551,8.78448,9.41551-5.465-.94756-2.69715,2.19659"/><path class="fh" d="M93.23576,201.90294s4.99932,2.9903,5.68685,8.48474-3.37557,10.02706-.974,12.82111,1.71941,3.94161.3335,5.39507c0,0,.8612,1.85577.61332,2.6858s-1.60083,1.223-1.12994,2a2.00255,2.00255,0,0,1-.86035,2.401c-.68945.39059-.65264,1.48513-.62308,2.7475s-.64614,2.49091-3.21363,2.38342c-11.93479-.49967-23.43177-12.08072-26.13564-15.83093C63.046,219.5997,73.39353,196.08575,93.23576,201.90294Z"/><path class="fi" d="M80.18861,213.95045c-1.14854,2.0001-2.05215,6.63722-2.05215,6.63722l-2.13,2.59836a33.17954,33.17954,0,0,0-.47983-6.41027c-.56624-2.46257-6.33054-1.36633-5.30125,4.26934s-2.32224,14.57009-2.091,10.6463-8.43079-.88618-12.17612-7.60562,1.56135-12.79328,1.56135-12.79328c-.78072.55725-4.69922-.20539-4.69922-.20539,1.339.1419,3.52755-1.86542,3.52755-1.86542a3.157,3.157,0,0,1-1.66021-.49206c3.871-.085,5.3291-4.6461,4.665-4.84292s-.21188-.934-.21188-.934-1.64515,1.106-4.93182,3.234-5.77382-6.47075-5.21992-11.50983,2.90921-5.06827,7.66289-6.12408,5.62507,7.96849,5.62507,7.96849a1.95487,1.95487,0,0,1,1.42658.0616,1.00355,1.00355,0,0,1,.46174.98877c6.13719-5.83741,18.58215-3.9405,24.8736-1.66875s4.05849,7.25509,4.05849,7.25509-.99087,7.37034-6.41738,8.43178S80.664,213.12254,80.18861,213.95045Z"/><polygon class="am" points="90.521 219.303 92.774 218.555 93.848 218.383 93.109 219.755 93.845 220.43 91.854 220.623 90.521 219.303 90.521 219.303"/><path class="fj" d="M93.41662,218.74775a.70271.70271,0,0,0-.30729,1.007c.30913.76553.73518.67541.73518.67541s.33613-.16978.33823-.43353-.01665-1.12462-.2247-1.172A5.16653,5.16653,0,0,0,93.41662,218.74775Z"/><path class="fk" d="M93.504,217.9673a1.06349,1.06349,0,0,0-.41315-1.18483c-.64489-.35038-.47367-.83089-1.61221.09842a17.3892,17.3892,0,0,1-2.60033,1.6836l.62534.6519s1.21519.02084,1.28819-.0034l1.98213-.658Z"/><path class="fl" d="M89.50365,219.21639l.45456,1.95883a9.30332,9.30332,0,0,0,1.84479.83135c.37022.008,1.12157.28532,1.46007-.04292s1.07341-.89049.99654-1.42878-.61067.24875-.61067.24875l-1.91854-.43936L90.521,219.30293Z"/><path class="fm" d="M90.521,219.30293l2.253-.748,1.56958.35743a.64458.64458,0,0,0,.44714-.4149c.071-.31646-.26474-.83145-.26474-.83145s-.59711.45683-1.02195.30127a3.32865,3.32865,0,0,0-1.44192.17112Z"/><path class="fn" d="M90.521,219.30293a7.2673,7.2673,0,0,0,1.54972.94059c.34969.03829,1.43179.46285,1.77384.1866a1.22238,1.22238,0,0,1,.92232-.13414l-.31309.702s-2.51361.35025-3.00663-.16092A6.24532,6.24532,0,0,1,90.521,219.30293Z"/><path class="fo" d="M62.27708,196.52135l-3.13622,6.4314s-.22917,1.61834.32519,1.655,4.69935-7.036,4.69935-7.036,2.66023-2.34426.84072-2.04645A6.48827,6.48827,0,0,0,62.27708,196.52135Z"/><path class="fp" d="M8.22542,286.80166a11.55,11.55,0,0,0,2.36514,3.99639l2.03767-2.71449a.96246.96246,0,0,1-.27149-1.465s.73213-2.33964-1.47874-2.30349-4.9283-.20685-3.79044,1.13985Z"/><path class="fq" d="M65.579,276.23646a64.82531,64.82531,0,0,1-4.263,13.4508c-13.22688,29.393-37.62695,9.68764-48.68782-1.6037l-2.03767,2.71449c13.9957,15.16983,58.231,51.12783,79.329,5.30311C84.04344,280.54188,70.20828,276.98318,65.579,276.23646Z"/><path class="fr" d="M91.68243,262.40341l.00137-.00136c-1.15533-3.79165,2.66477-7.42057-2.40844-11.568A97.18993,97.18993,0,0,1,76.29408,237.992a32.931,32.931,0,0,0-4.81993.78177,101.86149,101.86149,0,0,1-.7438,19.69385c-1.24932,8.521-5.32016,17.34077-5.46278,17.72181.11985.01681.24447.03665.37042.05744.07388.0122.15015.02615.22612.03982.07511.01352.15007.027.22713.042.078.01521.15807.03225.23795.04908.07905.01667.15813.03335.239.05165.08189.01855.16563.03895.24931.05926.08221.01994.16449.04.24839.06173.08624.02235.17424.04664.26224.07095.08462.02337.16931.04687.25543.07211.09062.02655,5.27528.05508,5.36754.08375.08679.027.1737.0543.2619.08323.09481.03112.191.06426.28736.09776.08842.0307.177.06184.26672.09459.0989.03613.199.07428.29934.113.09009.03471.18045.07.27167.10683.10259.04146.20624.08495.31031.1292.09115.03875.18263.07825.27478.1192.10676.04746.21436.09692.32238.14737q.13791.06437.27693.13191.16514.08035.3321.166.13928.07113.27971.14568.17031.09047.34224.18641.13945.07763.27989.15888.17524.1013.35184.20821.13988.08462.28058.17307.17988.11285.36112.23161c.09286.0609.186.12346.27929.1868q.18375.12478.36858.25561c.09327.06617.18678.13423.28047.20292.12464.09148.24957.18461.37485.28062.09258.071.18546.144.27837.21753.12714.10059.25449.20279.38214.30824.09194.076.18414.15439.2764.233.129.11.25821.22144.3876.33653.09135.08123.1828.16514.27426.249.13058.1197.26119.24075.39195.36583.09065.08674.1814.17638.2721.26576.13193.13.26385.26112.39581.39677.08938.09194.17882.18709.26825.28169.13312.14086.26618.28276.39922.42961.08838.09762.17669.19878.265.29911.13378.15189.26748.3047.401.46291.08715.10323.174.21036.261.31634.13419.16352.26836.3278.40215.498.08582.10915.17133.2225.257.33442.13427.17554.26856.35161.40223.534.08442.11515.16832.23486.25239.35279.13409.188.26812.3763.40139.57146.08259.12093.16456.2468.24684.37052.13392.20148.26781.40308.40081.6121.08.12578.15931.25679.239.38536.13395.21624.2679.43246.40071.65664.07738.13065.15395.2669.23093.4003.1334.23121.26687.46222.399.7018.07486.13581.14873.27759.22315.4161.13275.24715.26558.49394.39676.74986.07158.1396.142.28547.213.42771.13206.26423.26419.52794.39439.80142.06861.144.13583.29462.20388.44121.131.282.262.56338.39089.85514.06437.14576.12731.29836.19115.44655.13031.30245.26081.60424.38885.91709.05976.14609.11794.29924.17725.44762.13469.33729.26963.67348.40156,1.02274.37964-.82461.75415-1.67258,1.12183-2.55075C95.78273,282.22738,94.84444,271.50742,91.68243,262.40341Z"/><path class="an" d="M14.90773,283.88737,16.13,282.64084a9.18274,9.18274,0,0,0-2.8431-1.7306c-1.68345-.62437-6.50734-2.68665-7.781-3.02825s-3.90064-.59321-5.14149.00259l3.01586,1.36514s7.8285,3.53493,7.93473,3.57626S14.90773,283.88737,14.90773,283.88737Z"/><path class="fs" d="M12.2985,287.76461s-.73014-1.66-1.57853-1.83722a9.25878,9.25878,0,0,0-1.90432-.13526l-.4205.60676-1.28142.38821a11.17054,11.17054,0,0,0-1.5859-3.06318C4.7166,282.88849,3.11,281.43785,3.11,281.43785L0,278.82135l.36445-.93677a6.01954,6.01954,0,0,1,1.83562.23327,21.58337,21.58337,0,0,1,4.31747,1.46568,37.67968,37.67968,0,0,0,4.15123,2.31c1.22916.456,3.96458,1.5202,4.239,1.99388C14.90773,283.88737,14.21378,287.16435,12.2985,287.76461Z"/><path class="an" d="M94.98226,358.28629l-1.739.25489A9.18261,9.18261,0,0,0,94.81,361.47776c1.13143,1.39418,4.23449,5.6243,5.15706,6.56651s3.10832,2.69179,4.47968,2.81037l-1.90143-2.70991s-4.94011-7.02683-5.01052-7.11647S94.98226,358.28629,94.98226,358.28629Z"/><path class="ft" d="M104.49613,355.62219s-2.57229,1.90142-2.62955,3.81631-2.57583,2.14337-3.42645.24523a3.14317,3.14317,0,0,1,.76133-3.40727l1.94553-1.13741Z"/><path class="fu" d="M99.20146,356.27646s-.21625,1.80057.4239,2.38483a9.25908,9.25908,0,0,0,1.57046,1.08554l.67076-.30833,1.30063.31792a11.17087,11.17087,0,0,0-.19364,3.44393c.2732,1.132.918,3.19835.918,3.19835l1.34564,3.835-.79044.62094a6.01958,6.01958,0,0,1-1.46145-1.13494,21.58436,21.58436,0,0,1-2.97074-3.45883,37.67659,37.67659,0,0,0-2.398-4.101c-.826-1.018-2.63921-3.32618-2.63435-3.87356C94.98226,358.28629,97.24726,355.81851,99.20146,356.27646Z"/><path class="fv" d="M98.47613,324.15329c-15.80474-12.0642-10.58939-22.94094-8.55655-28.05213-7.49453-27.93185-20.12674-19.27654-24.652-19.91175a14.15487,14.15487,0,0,1-2.92645,4.99816c-3.52352,3.51382-16.90837,24.41956,25.66881,45.80395,28.581,14.35479,13.13706,28.14753,13.13706,28.14753l3.34914.48314S120.63961,341.0713,98.47613,324.15329Z"/><path class="fw" d="M78.99123,246.6601s.14676,32.63985,21.1185,57.759L96.564,306.37449S73.411,288.33043,72.49772,268.47014"/><path class="fx" d="M100.10973,304.41911l3.52371,3.91076s.90248,3.30911,0,4.66284-4.06119,2.85787-4.51243,1.95538-.30083-4.96366-.90248-6.01656-1.65456-2.557-1.65456-2.557Z"/><path class="am" d="M98.04931,232.37823a25.93407,25.93407,0,0,1-6.59942-1.662s1.02444,2.68416,5.204,3.79555C96.65389,234.51175,97.68841,234.35684,98.04931,232.37823Z"/></g></svg>