<svg xmlns="http://www.w3.org/2000/svg" xmlns:xlink="http://www.w3.org/1999/xlink" viewBox="0 0 431.63454 847.56905"><defs><style>.a{isolation:isolate;}.b{opacity:0.1;mix-blend-mode:multiply;}.c{fill:url(#a);}.d{fill:url(#b);}.e{fill:url(#c);}.f{fill:url(#d);}.g{fill:url(#e);}.h{fill:url(#f);}.i{fill:url(#g);}.j{fill:url(#h);}.k{fill:url(#i);}.l{fill:url(#j);}.m{fill:url(#k);}.n{fill:url(#l);}.o{fill:url(#m);}.p{fill:url(#n);}.q{fill:url(#o);}.r{fill:url(#p);}.s{fill:url(#q);}.t{fill:url(#r);}.u{fill:url(#s);}.v{fill:url(#t);}.w{fill:url(#u);}.x{fill:url(#v);}.y{fill:url(#w);}.z{fill:url(#x);}.aa{fill:url(#y);}.ab{fill:url(#z);}.ac{fill:#ccefff;}.ad{fill:url(#aa);}.ae{fill:url(#ab);}.af{fill:url(#ac);}.ag{fill:url(#ad);}.ah{fill:url(#ae);}.ai{fill:url(#af);}.aj{fill:url(#ag);}.ak{fill:url(#ah);}.al{fill:url(#ai);}.am{fill:url(#aj);}.an{fill:url(#ak);}.ao{fill:url(#al);}.ap{fill:url(#am);}.aq{fill:url(#an);}.ar{fill:url(#ao);}.as{fill:url(#ap);}.at{fill:url(#aq);}.au{fill:url(#ar);}.av{fill:url(#as);}.aw{fill:url(#at);}.ax{fill:url(#au);}.ay{fill:url(#av);}.az{fill:url(#aw);}.ba{fill:url(#ax);}.bb{fill:url(#ay);}.bc{fill:url(#az);}.bd{fill:url(#ba);}.be{fill:url(#bb);}.bf{fill:url(#bc);}.bg{fill:url(#bd);}.bh{fill:url(#be);}.bi{fill:url(#bf);}.bj{fill:url(#bg);}.bk{fill:url(#bh);}.bl{fill:url(#bi);}.bm{fill:url(#bj);}.bn{fill:url(#bk);}.bo{fill:url(#bl);}.bp{fill:url(#bm);}.bq{fill:url(#bn);}.br{fill:url(#bo);}.bs{fill:url(#bp);}.bt{fill:url(#bq);}.bu{fill:url(#br);}.bv{fill:url(#bs);}.bw{fill:url(#bt);}.bx{fill:url(#bu);}.by{fill:url(#bv);}.bz{fill:url(#bw);}.ca{fill:url(#bx);}.cb{fill:url(#by);}.cc{fill:url(#bz);}.cd{fill:url(#ca);}.ce{fill:url(#cb);}.cf{fill:url(#cc);}.cg{fill:url(#cd);}.ch{fill:url(#ce);}.ci{fill:url(#cf);}.cj{fill:url(#cg);}.ck{fill:url(#ch);}.cl{fill:url(#ci);}.cm{fill:url(#cj);}.cn{fill:url(#ck);}.co{fill:url(#cl);}.cp{fill:url(#cm);}.cq{fill:url(#cn);}.cr{fill:url(#co);}.cs{fill:url(#cp);}.ct{fill:url(#cq);}.cu{fill:url(#cr);}.cv{fill:url(#cs);}.cw{fill:url(#ct);}.cx{fill:url(#cu);}.cy{fill:url(#cv);}.cz{fill:url(#cw);}.da{fill:url(#cx);}.db{fill:url(#cy);}.dc{fill:url(#cz);}.dd{fill:url(#da);}.de{fill:url(#db);}.df{fill:url(#dc);}.dg{fill:url(#dd);}.dh{fill:url(#de);}.di{fill:url(#df);}.dj{fill:url(#dg);}.dk{fill:url(#dh);}.dl{fill:url(#di);}.dm{fill:url(#dj);}.dn{fill:url(#dk);}.do{fill:url(#dl);}.dp{fill:url(#dm);}.dq{fill:url(#dn);}.dr{fill:url(#do);}.ds{fill:url(#dp);}.dt{fill:url(#dq);}.du{fill:url(#dr);}.dv{fill:url(#ds);}.dw{fill:url(#dt);}.dx{fill:url(#du);}.dy{fill:url(#dv);}.dz{fill:url(#dw);}.ea{fill:url(#dx);}.eb{fill:url(#dy);}.ec{fill:url(#dz);}.ed{fill:url(#ea);}.ee{fill:url(#eb);}.ef{fill:url(#ec);}.eg{fill:url(#ed);}.eh{fill:url(#ee);}.ei{fill:url(#ef);}.ej{fill:url(#eg);}.ek{fill:url(#eh);}.el{fill:url(#ei);}.em{fill:url(#ej);}.en{fill:url(#ek);}.eo{fill:url(#el);}.ep{fill:url(#em);}.eq{fill:url(#en);}.er{fill:url(#eo);}.es{fill:url(#ep);}.et{fill:url(#eq);}.eu{fill:url(#er);}.ev{fill:url(#es);}.ew{fill:url(#et);}.ex{fill:url(#eu);}.ey{fill:url(#ev);}.ez{fill:url(#ew);}.fa{fill:url(#ex);}.fb{fill:url(#ey);}.fc{fill:url(#ez);}.fd{fill:url(#fa);}.fe{fill:url(#fb);}.ff{fill:url(#fc);}.fg{fill:url(#fd);}.fh{fill:url(#fe);}.fi{fill:url(#ff);}.fj{fill:url(#fg);}.fk{fill:url(#fh);}.fl{fill:#efefe6;}.fm{fill:url(#fi);}.fn{fill:url(#fj);}.fo{fill:url(#fk);}.fp{fill:url(#fl);}.fq{fill:url(#fm);}.fr{fill:url(#fn);}.fs{fill:url(#fo);}.ft{fill:url(#fp);}.fu{fill:url(#fq);}.fv{fill:url(#fr);}.fw{fill:url(#fs);}.fx{fill:url(#ft);}.fy{fill:url(#fu);}.fz{fill:url(#fv);}.ga{fill:url(#fw);}.gb{fill:url(#fx);}.gc{fill:url(#fy);}.gd{fill:url(#fz);}.ge{fill:url(#ga);}.gf{fill:url(#gb);}.gg{fill:url(#gc);}.gh{fill:url(#gd);}.gi{fill:url(#ge);}.gj{fill:url(#gf);}.gk{fill:url(#gg);}.gl{fill:url(#gh);}.gm{fill:url(#gi);}.gn{fill:url(#gj);}</style><linearGradient id="a" x1="100.89033" y1="165.74471" x2="92.81163" y2="160.54753" gradientTransform="translate(276.99119 517.55807) rotate(-9.80498)" gradientUnits="userSpaceOnUse"><stop offset="0" stop-color="#d1864a"/><stop offset="0.99949" stop-color="#e8c26b"/></linearGradient><linearGradient id="b" x1="97.38034" y1="161.81468" x2="48.67857" y2="170.4963" gradientTransform="translate(276.99119 517.55807) rotate(-9.80498)" gradientUnits="userSpaceOnUse"><stop offset="0" stop-color="#256280"/><stop offset="1" stop-color="#1a4559"/></linearGradient><linearGradient id="c" x1="14.72523" y1="72.79695" x2="19.17191" y2="74.42475" xlink:href="#a"/><linearGradient id="d" x1="21.61516" y1="64.77622" x2="33.01752" y2="68.9503" xlink:href="#b"/><linearGradient id="e" x1="22.2" y1="84.2165" x2="37.19653" y2="84.2165" gradientTransform="translate(276.99119 517.55807) rotate(-9.80498)" gradientUnits="userSpaceOnUse"><stop offset="0" stop-color="#ff6378"/><stop offset="1" stop-color="#80313c"/></linearGradient><linearGradient id="f" x1="77.48693" y1="74.68219" x2="98.84689" y2="126.6925" xlink:href="#b"/><linearGradient id="g" x1="39.00272" y1="242.29273" x2="28.39933" y2="235.47136" xlink:href="#a"/><linearGradient id="h" x1="44.26557" y1="56.7062" x2="46.11139" y2="56.7062" gradientTransform="translate(276.99119 517.55807) rotate(-9.80498)" gradientUnits="userSpaceOnUse"><stop offset="0" stop-color="#3dffd3"/><stop offset="1" stop-color="#1e806a"/></linearGradient><linearGradient id="i" x1="12.94954" y1="136.52804" x2="8.07937" y2="157.27923" xlink:href="#b"/><linearGradient id="j" x1="147.14177" y1="-85.45157" x2="205.23502" y2="-85.45157" gradientTransform="translate(171.7535 767.61297) rotate(-2.22041)" xlink:href="#e"/><linearGradient id="k" x1="40.36248" y1="155.43548" x2="56.66698" y2="228.27638" xlink:href="#b"/><linearGradient id="l" x1="137.05104" y1="-151.96412" x2="210.31453" y2="-151.96412" gradientTransform="translate(171.7535 767.61297) rotate(-2.22041)" xlink:href="#h"/><linearGradient id="m" x1="39.92417" y1="104.97666" x2="77.72097" y2="157.70161" xlink:href="#e"/><linearGradient id="n" x1="30.56886" y1="251.26245" x2="27.2623" y2="241.71709" xlink:href="#b"/><linearGradient id="o" x1="30.17617" y1="251.39848" x2="26.86961" y2="241.85312" gradientTransform="translate(276.99119 517.55807) rotate(-9.80498)" gradientUnits="userSpaceOnUse"><stop offset="0" stop-color="#e5f7ff"/><stop offset="1" stop-color="#80d6ff"/></linearGradient><linearGradient id="p" x1="6618.98764" y1="-1285.70668" x2="6615.68107" y2="-1295.25204" gradientTransform="translate(5022.38314 -4260.57181) rotate(144.25466)" xlink:href="#b"/><linearGradient id="q" x1="6618.59495" y1="-1285.57065" x2="6615.28839" y2="-1295.11601" gradientTransform="translate(5022.38314 -4260.57181) rotate(144.25466)" xlink:href="#o"/><linearGradient id="r" x1="-15.16101" y1="9.83075" x2="16.93748" y2="9.83075" gradientTransform="translate(276.99119 517.55807) rotate(-9.80498)" gradientUnits="userSpaceOnUse"><stop offset="0" stop-color="#6f6d61"/><stop offset="1" stop-color="#3b3b32"/></linearGradient><linearGradient id="s" x1="45.95642" y1="50.07784" x2="-1.67134" y2="25.99639" xlink:href="#a"/><linearGradient id="t" x1="-3520.83371" y1="26.88402" x2="-3526.45487" y2="27.50054" gradientTransform="matrix(-0.98539, 0.1703, 0.1703, 0.98539, -3188.92395, 1116.53561)" gradientUnits="userSpaceOnUse"><stop offset="0" stop-color="#e0b984"/><stop offset="1" stop-color="#f5e1be"/></linearGradient><linearGradient id="u" x1="-3527.94245" y1="22.56295" x2="-3519.10611" y2="22.56295" gradientTransform="matrix(-0.98539, 0.1703, 0.1703, 0.98539, -3188.92395, 1116.53561)" xlink:href="#r"/><linearGradient id="v" x1="-3524.56298" y1="28.48014" x2="-3519.07366" y2="28.48014" gradientTransform="matrix(-0.98539, 0.1703, 0.1703, 0.98539, -3188.92395, 1116.53561)" xlink:href="#r"/><linearGradient id="w" x1="-3522.40946" y1="29.40493" x2="-3520.00558" y2="29.40493" gradientTransform="matrix(-0.98539, 0.1703, 0.1703, 0.98539, -3188.92395, 1116.53561)" xlink:href="#r"/><linearGradient id="x" x1="34.81915" y1="33.49333" x2="73.18315" y2="33.49333" xlink:href="#r"/><linearGradient id="y" x1="-6.41089" y1="14.57778" x2="87.27769" y2="14.57778" xlink:href="#o"/><linearGradient id="z" x1="20.78846" y1="22.36345" x2="34.92288" y2="22.36345" xlink:href="#r"/><linearGradient id="aa" x1="85.6869" y1="62.69059" x2="77.75142" y2="73.63861" xlink:href="#b"/><linearGradient id="ab" x1="97.42727" y1="80.42301" x2="94.36259" y2="84.65114" xlink:href="#b"/><linearGradient id="ac" x1="103.14497" y1="90.01312" x2="95.68785" y2="100.30119" xlink:href="#b"/><linearGradient id="ad" x1="104.2423" y1="105.49751" x2="100.8429" y2="110.18742" xlink:href="#b"/><linearGradient id="ae" x1="93.53943" y1="110.82418" x2="90.68085" y2="98.03997" xlink:href="#b"/><linearGradient id="af" x1="92.31457" y1="86.19307" x2="86.25106" y2="94.55848" xlink:href="#o"/><linearGradient id="ag" x1="86.24115" y1="83.36289" x2="90.2031" y2="83.36289" xlink:href="#e"/><linearGradient id="ah" x1="64.65692" y1="60.30224" x2="67.29756" y2="66.73205" xlink:href="#b"/><linearGradient id="ai" x1="89.66802" y1="125.01478" x2="92.30648" y2="131.43928" xlink:href="#b"/><linearGradient id="aj" x1="18.08782" y1="72.10867" x2="21.22432" y2="73.93499" xlink:href="#a"/><linearGradient id="ak" x1="16.78694" y1="75.80891" x2="27.77009" y2="79.82953" xlink:href="#b"/><radialGradient id="al" cx="72.7619" cy="-116.28674" r="48.13871" gradientTransform="translate(137.63713 252.05175) rotate(-4.88939)" xlink:href="#h"/><linearGradient id="am" x1="69.9311" y1="-57.10721" x2="73.76745" y2="-57.10721" gradientTransform="translate(137.63713 252.05175) rotate(-4.88939)" xlink:href="#e"/><linearGradient id="an" x1="69.9289" y1="-57.45568" x2="72.3844" y2="-57.45568" gradientTransform="translate(137.63713 252.05175) rotate(-4.88939)" xlink:href="#e"/><linearGradient id="ao" x1="73.17776" y1="-61.62306" x2="72.64241" y2="-60.12778" gradientTransform="translate(137.63713 252.05175) rotate(-4.88939)" xlink:href="#b"/><linearGradient id="ap" x1="4800.04947" y1="-625.87599" x2="4751.7321" y2="-490.92057" gradientTransform="matrix(-1.64003, 0.14029, 0.14017, 1.63861, 8155.88808, 546.17972)" xlink:href="#b"/><radialGradient id="aq" cx="114.32162" cy="-229.21145" r="59.63295" gradientTransform="translate(137.63713 252.05175) rotate(-4.88939)" xlink:href="#e"/><linearGradient id="ar" x1="119.10443" y1="-128.1041" x2="122.94078" y2="-128.1041" gradientTransform="translate(137.63713 252.05175) rotate(-4.88939)" xlink:href="#e"/><linearGradient id="as" x1="119.10222" y1="-128.45257" x2="121.55773" y2="-128.45257" gradientTransform="translate(137.63713 252.05175) rotate(-4.88939)" xlink:href="#e"/><linearGradient id="at" x1="122.35108" y1="-132.61995" x2="121.81574" y2="-131.12467" gradientTransform="translate(137.63713 252.05175) rotate(-4.88939)" xlink:href="#b"/><linearGradient id="au" x1="4790.08008" y1="-661.5206" x2="4733.63249" y2="-503.85666" gradientTransform="matrix(-1.64003, 0.14029, 0.14017, 1.63861, 8155.88808, 546.17972)" xlink:href="#b"/><radialGradient id="av" cx="241.0588" cy="152.66751" r="52.6671" gradientTransform="matrix(1, 0, 0, 1, 0, 0)" xlink:href="#h"/><linearGradient id="aw" x1="133.41899" y1="-10.7395" x2="132.47222" y2="-8.09508" gradientTransform="translate(137.63713 252.05175) rotate(-4.88939)" xlink:href="#o"/><linearGradient id="ax" x1="132.39025" y1="-10.90746" x2="131.39347" y2="-8.12335" gradientTransform="translate(137.63713 252.05175) rotate(-4.88939)" xlink:href="#o"/><linearGradient id="ay" x1="133.15122" y1="-11.7148" x2="132.61587" y2="-10.21952" gradientTransform="translate(137.63713 252.05175) rotate(-4.88939)" xlink:href="#b"/><linearGradient id="az" x1="4775.17453" y1="-591.92293" x2="4737.71674" y2="-487.29946" gradientTransform="matrix(-1.64003, 0.14029, 0.14017, 1.63861, 8155.88808, 546.17972)" xlink:href="#b"/><radialGradient id="ba" cx="282.34942" cy="219.5795" r="35.71498" gradientTransform="matrix(1, 0, 0, 1, 0, 0)" xlink:href="#e"/><radialGradient id="bb" cx="92.5117" cy="-35.12083" r="48.75364" gradientTransform="translate(137.63713 252.05175) rotate(-4.88939)" xlink:href="#e"/><radialGradient id="bc" cx="250.68657" cy="-159.7585" r="49.01561" gradientTransform="translate(137.63713 252.05175) rotate(-4.88939)" xlink:href="#e"/><linearGradient id="bd" x1="148.09524" y1="50.1709" x2="151.93158" y2="50.1709" gradientTransform="translate(137.63713 252.05175) rotate(-4.88939)" xlink:href="#e"/><linearGradient id="be" x1="148.09303" y1="49.95027" x2="150.54853" y2="49.95027" gradientTransform="translate(137.63713 252.05175) rotate(-4.88939)" xlink:href="#e"/><linearGradient id="bf" x1="96.90482" y1="21.70038" x2="96.01819" y2="24.17683" gradientTransform="translate(137.63713 252.05175) rotate(-4.88939)" xlink:href="#o"/><linearGradient id="bg" x1="95.7745" y1="21.5298" x2="94.86932" y2="24.05806" gradientTransform="translate(137.63713 252.05175) rotate(-4.88939)" xlink:href="#o"/><linearGradient id="bh" x1="150.96525" y1="46.8753" x2="150.42991" y2="48.37058" gradientTransform="translate(137.63713 252.05175) rotate(-4.88939)" xlink:href="#b"/><linearGradient id="bi" x1="4763.41383" y1="-557.11509" x2="4735.78359" y2="-479.94097" gradientTransform="matrix(1.64602, 0, 0, -1.6446, -7512.09467, -460.18918)" xlink:href="#b"/><radialGradient id="bj" cx="345.23823" cy="140.17445" r="63.63194" gradientTransform="matrix(1, 0, 0, 1, 0, 0)" xlink:href="#o"/><linearGradient id="bk" x1="195.62617" y1="-2.11802" x2="199.46252" y2="-2.11802" gradientTransform="translate(137.63713 252.05175) rotate(-4.88939)" xlink:href="#e"/><linearGradient id="bl" x1="195.62396" y1="-2.46649" x2="198.07947" y2="-2.46649" gradientTransform="translate(137.63713 252.05175) rotate(-4.88939)" xlink:href="#e"/><linearGradient id="bm" x1="198.87282" y1="-6.63386" x2="198.33748" y2="-5.13859" gradientTransform="translate(137.63713 252.05175) rotate(-4.88939)" xlink:href="#b"/><linearGradient id="bn" x1="4752.69639" y1="-582.80105" x2="4719.62019" y2="-490.41581" gradientTransform="matrix(-1.64003, 0.14029, 0.14017, 1.63861, 8155.88808, 546.17972)" xlink:href="#b"/><linearGradient id="bo" x1="96.85063" y1="20.73312" x2="96.31529" y2="22.22839" gradientTransform="translate(137.63713 252.05175) rotate(-4.88939)" xlink:href="#b"/><linearGradient id="bp" x1="4784.31057" y1="-576.96225" x2="4749.79943" y2="-480.56905" gradientTransform="matrix(-1.64003, 0.14029, 0.14017, 1.63861, 8155.88808, 546.17972)" xlink:href="#b"/><radialGradient id="bq" cx="215.1131" cy="-28.47547" r="39.37352" gradientTransform="translate(137.63713 252.05175) rotate(-4.88939)" xlink:href="#o"/><linearGradient id="br" x1="697.00976" y1="726.90577" x2="695.51765" y2="731.07338" gradientTransform="matrix(0.98429, 0.17653, -0.17653, 0.98429, -221.50507, -569.33113)" xlink:href="#h"/><linearGradient id="bs" x1="695.58134" y1="726.66093" x2="694.04506" y2="730.95191" gradientTransform="matrix(0.98429, 0.17653, -0.17653, 0.98429, -221.50507, -569.33113)" xlink:href="#h"/><linearGradient id="bt" x1="195.35819" y1="32.94011" x2="194.82284" y2="34.43539" gradientTransform="translate(137.63713 252.05175) rotate(-4.88939)" xlink:href="#b"/><linearGradient id="bu" x1="4750.21683" y1="-560.67653" x2="4722.97705" y2="-484.593" gradientTransform="matrix(-1.64003, 0.14029, 0.14017, 1.63861, 8155.88808, 546.17972)" xlink:href="#b"/><radialGradient id="bv" cx="135.4963" cy="-141.12478" r="49.10335" gradientTransform="translate(137.63713 252.05175) rotate(-4.88939)" xlink:href="#o"/><linearGradient id="bw" x1="602.52077" y1="635.02417" x2="601.02866" y2="639.19179" gradientTransform="matrix(0.98429, 0.17653, -0.17653, 0.98429, -221.50507, -569.33113)" xlink:href="#h"/><linearGradient id="bx" x1="601.09235" y1="634.77934" x2="599.55607" y2="639.07031" gradientTransform="matrix(0.98429, 0.17653, -0.17653, 0.98429, -221.50507, -569.33113)" xlink:href="#h"/><linearGradient id="by" x1="127.98271" y1="-80.33364" x2="127.44737" y2="-78.83836" gradientTransform="translate(137.63713 252.05175) rotate(-4.88939)" xlink:href="#b"/><linearGradient id="bz" x1="4783.37661" y1="-631.30895" x2="4735.20701" y2="-496.76628" gradientTransform="matrix(-1.64003, 0.14029, 0.14017, 1.63861, 8155.88808, 546.17972)" xlink:href="#b"/><radialGradient id="ca" cx="311.57048" cy="29.00737" r="44.99458" gradientTransform="matrix(1, 0, 0, 1, 0, 0)" xlink:href="#h"/><linearGradient id="cb" x1="635.21693" y1="568.21412" x2="633.72482" y2="572.38173" gradientTransform="matrix(0.98429, 0.17653, -0.17653, 0.98429, -221.50507, -569.33113)" xlink:href="#h"/><linearGradient id="cc" x1="633.78851" y1="567.96928" x2="632.25223" y2="572.26026" gradientTransform="matrix(0.98429, 0.17653, -0.17653, 0.98429, -221.50507, -569.33113)" xlink:href="#h"/><linearGradient id="cd" x1="176.91251" y1="-136.35593" x2="176.37716" y2="-134.86066" gradientTransform="translate(137.63713 252.05175) rotate(-4.88939)" xlink:href="#b"/><linearGradient id="ce" x1="4772.31528" y1="-658.40547" x2="4718.32587" y2="-507.60748" gradientTransform="matrix(-1.64003, 0.14029, 0.14017, 1.63861, 8155.88808, 546.17972)" xlink:href="#b"/><radialGradient id="cf" cx="248.99259" cy="-94.54048" r="62.68278" gradientTransform="translate(137.63713 252.05175) rotate(-4.88939)" xlink:href="#h"/><linearGradient id="cg" x1="733.02319" y1="667.69004" x2="731.53108" y2="671.85766" gradientTransform="matrix(0.98429, 0.17653, -0.17653, 0.98429, -221.50507, -569.33113)" xlink:href="#h"/><linearGradient id="ch" x1="731.59477" y1="667.44521" x2="730.05849" y2="671.73618" gradientTransform="matrix(0.98429, 0.17653, -0.17653, 0.98429, -221.50507, -569.33113)" xlink:href="#h"/><linearGradient id="ci" x1="245.51847" y1="-14.88682" x2="244.98313" y2="-13.39154" gradientTransform="translate(137.63713 252.05175) rotate(-4.88939)" xlink:href="#b"/><linearGradient id="cj" x1="4737.498" y1="-583.17537" x2="4705.65628" y2="-494.23814" gradientTransform="matrix(-1.64003, 0.14029, 0.14017, 1.63861, 8155.88808, 546.17972)" xlink:href="#b"/><linearGradient id="ck" x1="306.83579" y1="487.18816" x2="272.5328" y2="448.12088" gradientTransform="translate(38.49027 103.66653) rotate(-1.85697)" xlink:href="#e"/><linearGradient id="cl" x1="261.24352" y1="373.9323" x2="255.43227" y2="390.16371" gradientTransform="translate(38.49027 103.66653) rotate(-1.85697)" xlink:href="#a"/><radialGradient id="cm" cx="15.54844" cy="204.96897" r="62.56715" gradientTransform="matrix(1, 0, 0, 1, 0, 0)" xlink:href="#e"/><linearGradient id="cn" x1="-97.76436" y1="25.82622" x2="-93.92801" y2="25.82622" gradientTransform="translate(137.63713 252.05175) rotate(-4.88939)" xlink:href="#e"/><linearGradient id="co" x1="-97.76657" y1="25.47775" x2="-95.31106" y2="25.47775" gradientTransform="translate(137.63713 252.05175) rotate(-4.88939)" xlink:href="#e"/><linearGradient id="cp" x1="-94.5177" y1="21.31037" x2="-95.05305" y2="22.80565" gradientTransform="translate(137.63713 252.05175) rotate(-4.88939)" xlink:href="#b"/><linearGradient id="cq" x1="4901.92893" y1="-575.44812" x2="4853.61156" y2="-440.4927" gradientTransform="matrix(-1.64003, 0.14029, 0.14017, 1.63861, 8155.88808, 546.17972)" xlink:href="#b"/><radialGradient id="cr" cx="-53.37384" cy="-146.27802" r="59.63295" gradientTransform="translate(137.63713 252.05175) rotate(-4.88939)" xlink:href="#o"/><linearGradient id="cs" x1="-48.59104" y1="-45.17068" x2="-44.75469" y2="-45.17068" gradientTransform="translate(137.63713 252.05175) rotate(-4.88939)" xlink:href="#e"/><linearGradient id="ct" x1="-48.59324" y1="-45.51914" x2="-46.13774" y2="-45.51914" gradientTransform="translate(137.63713 252.05175) rotate(-4.88939)" xlink:href="#e"/><linearGradient id="cu" x1="-45.34438" y1="-49.68652" x2="-45.87972" y2="-48.19125" gradientTransform="translate(137.63713 252.05175) rotate(-4.88939)" xlink:href="#b"/><linearGradient id="cv" x1="4891.95954" y1="-611.09273" x2="4835.51195" y2="-453.42879" gradientTransform="matrix(-1.64003, 0.14029, 0.14017, 1.63861, 8155.88808, 546.17972)" xlink:href="#b"/><radialGradient id="cw" cx="-20.34134" cy="10.41462" r="12.81724" gradientTransform="translate(137.63713 252.05175) rotate(-4.88939)" xlink:href="#o"/><linearGradient id="cx" x1="-34.27647" y1="72.19393" x2="-35.22324" y2="74.83835" gradientTransform="translate(137.63713 252.05175) rotate(-4.88939)" xlink:href="#o"/><linearGradient id="cy" x1="-35.30522" y1="72.02597" x2="-36.302" y2="74.81008" gradientTransform="translate(137.63713 252.05175) rotate(-4.88939)" xlink:href="#o"/><linearGradient id="cz" x1="-34.54425" y1="71.21863" x2="-35.07959" y2="72.71391" gradientTransform="translate(137.63713 252.05175) rotate(-4.88939)" xlink:href="#b"/><linearGradient id="da" x1="4877.05398" y1="-541.49506" x2="4839.5962" y2="-436.87159" gradientTransform="matrix(-1.64003, 0.14029, 0.14017, 1.63861, 8155.88808, 546.17972)" xlink:href="#b"/><radialGradient id="db" cx="121.63359" cy="302.16076" r="41.98838" gradientTransform="matrix(1, 0, 0, 1, 0, 0)" xlink:href="#e"/><radialGradient id="dc" cx="-67.77263" cy="13.80257" r="34.25851" gradientTransform="translate(137.63713 252.05175) rotate(-4.88939)" xlink:href="#o"/><radialGradient id="dd" cx="82.9911" cy="-76.82507" r="49.01561" gradientTransform="translate(137.63713 252.05175) rotate(-4.88939)" xlink:href="#o"/><linearGradient id="de" x1="-19.60023" y1="133.10433" x2="-15.76388" y2="133.10433" gradientTransform="translate(137.63713 252.05175) rotate(-4.88939)" xlink:href="#e"/><linearGradient id="df" x1="-19.60243" y1="132.8837" x2="-17.14693" y2="132.8837" gradientTransform="translate(137.63713 252.05175) rotate(-4.88939)" xlink:href="#e"/><linearGradient id="dg" x1="-70.79065" y1="104.63381" x2="-71.67728" y2="107.11026" gradientTransform="translate(137.63713 252.05175) rotate(-4.88939)" xlink:href="#o"/><linearGradient id="dh" x1="-71.92096" y1="104.46323" x2="-72.82615" y2="106.99149" gradientTransform="translate(137.63713 252.05175) rotate(-4.88939)" xlink:href="#o"/><linearGradient id="di" x1="-16.73021" y1="129.80873" x2="-17.26555" y2="131.30401" gradientTransform="translate(137.63713 252.05175) rotate(-4.88939)" xlink:href="#b"/><linearGradient id="dj" x1="4865.29328" y1="-506.68722" x2="4837.66304" y2="-429.5131" gradientTransform="matrix(1.64602, 0, 0, -1.6446, -7839.80676, -280.33103)" xlink:href="#b"/><radialGradient id="dk" cx="167.3709" cy="235.46051" r="61.01285" gradientTransform="matrix(1, 0, 0, 1, 0, 0)" xlink:href="#e"/><linearGradient id="dl" x1="27.93071" y1="80.81541" x2="31.76705" y2="80.81541" gradientTransform="translate(137.63713 252.05175) rotate(-4.88939)" xlink:href="#e"/><linearGradient id="dm" x1="27.9285" y1="80.46694" x2="30.384" y2="80.46694" gradientTransform="translate(137.63713 252.05175) rotate(-4.88939)" xlink:href="#e"/><linearGradient id="dn" x1="31.17736" y1="76.29957" x2="30.64202" y2="77.79484" gradientTransform="translate(137.63713 252.05175) rotate(-4.88939)" xlink:href="#b"/><linearGradient id="do" x1="4854.57585" y1="-532.37319" x2="4821.49965" y2="-439.98794" gradientTransform="matrix(-1.64003, 0.14029, 0.14017, 1.63861, 8155.88808, 546.17972)" xlink:href="#b"/><linearGradient id="dp" x1="-70.84483" y1="103.66655" x2="-71.38018" y2="105.16182" gradientTransform="translate(137.63713 252.05175) rotate(-4.88939)" xlink:href="#b"/><linearGradient id="dq" x1="4886.19003" y1="-526.53438" x2="4851.67889" y2="-430.14118" gradientTransform="matrix(-1.64003, 0.14029, 0.14017, 1.63861, 8155.88808, 546.17972)" xlink:href="#b"/><radialGradient id="dr" cx="47.41764" cy="54.45795" r="39.37352" gradientTransform="translate(137.63713 252.05175) rotate(-4.88939)" xlink:href="#h"/><linearGradient id="ds" x1="556.61663" y1="850.55646" x2="555.12453" y2="854.72407" gradientTransform="matrix(0.98429, 0.17653, -0.17653, 0.98429, -221.50507, -569.33113)" xlink:href="#h"/><linearGradient id="dt" x1="555.18821" y1="850.31163" x2="553.65194" y2="854.6026" gradientTransform="matrix(0.98429, 0.17653, -0.17653, 0.98429, -221.50507, -569.33113)" xlink:href="#h"/><linearGradient id="du" x1="27.66272" y1="115.87354" x2="27.12738" y2="117.36882" gradientTransform="translate(137.63713 252.05175) rotate(-4.88939)" xlink:href="#b"/><linearGradient id="dv" x1="4852.09629" y1="-510.24866" x2="4824.85651" y2="-434.16513" gradientTransform="matrix(-1.64003, 0.14029, 0.14017, 1.63861, 8155.88808, 546.17972)" xlink:href="#b"/><radialGradient id="dw" cx="-32.19916" cy="-58.19135" r="49.10335" gradientTransform="translate(137.63713 252.05175) rotate(-4.88939)" xlink:href="#h"/><linearGradient id="dx" x1="462.12765" y1="758.67486" x2="460.63554" y2="762.84248" gradientTransform="matrix(0.98429, 0.17653, -0.17653, 0.98429, -221.50507, -569.33113)" xlink:href="#h"/><linearGradient id="dy" x1="460.69922" y1="758.43003" x2="459.16295" y2="762.721" gradientTransform="matrix(0.98429, 0.17653, -0.17653, 0.98429, -221.50507, -569.33113)" xlink:href="#h"/><linearGradient id="dz" x1="-39.71275" y1="2.59979" x2="-40.2481" y2="4.09507" gradientTransform="translate(137.63713 252.05175) rotate(-4.88939)" xlink:href="#b"/><linearGradient id="ea" x1="4885.25607" y1="-580.88108" x2="4837.08647" y2="-446.33841" gradientTransform="matrix(-1.64003, 0.14029, 0.14017, 1.63861, 8155.88808, 546.17972)" xlink:href="#b"/><radialGradient id="eb" cx="168.00615" cy="124.29344" r="68.82032" gradientTransform="matrix(1, 0, 0, 1, 0, 0)" xlink:href="#e"/><linearGradient id="ec" x1="494.82381" y1="691.86481" x2="493.3317" y2="696.03242" gradientTransform="matrix(0.98429, 0.17653, -0.17653, 0.98429, -221.50507, -569.33113)" xlink:href="#h"/><linearGradient id="ed" x1="493.39539" y1="691.61998" x2="491.85911" y2="695.91095" gradientTransform="matrix(0.98429, 0.17653, -0.17653, 0.98429, -221.50507, -569.33113)" xlink:href="#h"/><linearGradient id="ee" x1="9.21704" y1="-53.4225" x2="8.6817" y2="-51.92723" gradientTransform="translate(137.63713 252.05175) rotate(-4.88939)" xlink:href="#b"/><linearGradient id="ef" x1="4874.19474" y1="-607.9776" x2="4820.20533" y2="-457.17961" gradientTransform="matrix(-1.64003, 0.14029, 0.14017, 1.63861, 8155.88808, 546.17972)" xlink:href="#b"/><radialGradient id="eg" cx="81.29713" cy="-11.60705" r="62.68278" gradientTransform="translate(137.63713 252.05175) rotate(-4.88939)" xlink:href="#o"/><linearGradient id="eh" x1="592.63007" y1="791.34073" x2="591.13796" y2="795.50835" gradientTransform="matrix(0.98429, 0.17653, -0.17653, 0.98429, -221.50507, -569.33113)" xlink:href="#h"/><linearGradient id="ei" x1="591.20165" y1="791.0959" x2="589.66537" y2="795.38688" gradientTransform="matrix(0.98429, 0.17653, -0.17653, 0.98429, -221.50507, -569.33113)" xlink:href="#h"/><linearGradient id="ej" x1="77.82301" y1="68.04661" x2="77.28766" y2="69.54189" gradientTransform="translate(137.63713 252.05175) rotate(-4.88939)" xlink:href="#b"/><linearGradient id="ek" x1="4839.37746" y1="-532.7475" x2="4807.53573" y2="-443.81027" gradientTransform="matrix(-1.64003, 0.14029, 0.14017, 1.63861, 8155.88808, 546.17972)" xlink:href="#b"/><linearGradient id="el" x1="-20.45627" y1="320.00235" x2="-38.87824" y2="371.45683" gradientTransform="translate(137.63713 252.05175) rotate(-4.88939)" xlink:href="#h"/><linearGradient id="em" x1="-596.57677" y1="-1361.76487" x2="-587.40549" y2="-1360.21647" gradientTransform="matrix(0.80744, -0.58995, 0.58995, 0.80744, 1370.61983, 1502.80749)" gradientUnits="userSpaceOnUse"><stop offset="0" stop-color="#957a53"/><stop offset="1" stop-color="#725d3e"/></linearGradient><linearGradient id="en" x1="-596.45322" y1="-1362.49666" x2="-587.28194" y2="-1360.94826" gradientTransform="matrix(0.80744, -0.58995, 0.58995, 0.80744, 1370.61983, 1502.80749)" xlink:href="#h"/><linearGradient id="eo" x1="-585.67541" y1="-1376.40728" x2="-489.58318" y2="-1376.40728" gradientTransform="matrix(0.80744, -0.58995, 0.58995, 0.80744, 1370.61983, 1502.80749)" xlink:href="#e"/><linearGradient id="ep" x1="-457.93055" y1="-1202.63133" x2="-460.81188" y2="-1197.37713" gradientTransform="translate(1224.13559 1481.09703) rotate(-32.5813)" xlink:href="#em"/><linearGradient id="eq" x1="-464.76083" y1="-1192.72307" x2="-461.0831" y2="-1196.7364" gradientTransform="translate(1224.13559 1481.09703) rotate(-32.5813)" xlink:href="#h"/><linearGradient id="er" x1="-466.15827" y1="-1185.42278" x2="-468.02277" y2="-1184.34137" gradientTransform="translate(1224.13559 1481.09703) rotate(-32.5813)" xlink:href="#o"/><linearGradient id="es" x1="-495.21907" y1="-898.28096" x2="-487.23386" y2="-898.28096" gradientTransform="translate(1218.42852 743.9594) rotate(-60.5513)" xlink:href="#b"/><linearGradient id="et" x1="-461.62949" y1="-1197.12409" x2="-462.2831" y2="-1195.93221" gradientTransform="translate(1224.13559 1481.09703) rotate(-32.5813)" xlink:href="#o"/><linearGradient id="eu" x1="-462.03374" y1="-1196.2667" x2="-462.6205" y2="-1195.19672" gradientTransform="translate(1224.13559 1481.09703) rotate(-32.5813)" xlink:href="#o"/><linearGradient id="ev" x1="1302.40562" y1="298.2561" x2="1300.54112" y2="299.33751" gradientTransform="translate(-115.10815 -567.49048) rotate(68.78692)" xlink:href="#o"/><linearGradient id="ew" x1="370.90567" y1="1241.56697" x2="378.89088" y2="1241.56697" gradientTransform="matrix(0.7568, 0.65364, -0.65364, 0.7568, 608.69226, -427.78565)" xlink:href="#b"/><linearGradient id="ex" x1="-493.49628" y1="-1154.91503" x2="-499.88263" y2="-1158.72228" gradientTransform="matrix(0.89808, -0.43983, 0.43983, 0.89808, 1066.64473, 1425.60149)" xlink:href="#em"/><linearGradient id="ey" x1="-433.93796" y1="-735.74042" x2="-366.45777" y2="-735.74042" gradientTransform="translate(722.49831 1314.54587) rotate(-13.87358)" xlink:href="#e"/><linearGradient id="ez" x1="-441.57656" y1="-761.35863" x2="-388.36856" y2="-761.35863" gradientTransform="translate(722.49831 1314.54587) rotate(-13.87358)" xlink:href="#h"/><linearGradient id="fa" x1="-434.39591" y1="-761.35863" x2="-395.25098" y2="-761.35863" gradientTransform="translate(722.49831 1314.54587) rotate(-13.87358)" xlink:href="#h"/><linearGradient id="fb" x1="-443.99291" y1="-761.35863" x2="-395.50646" y2="-761.35863" gradientTransform="translate(722.49831 1314.54587) rotate(-13.87358)" xlink:href="#h"/><linearGradient id="fc" x1="-479.28957" y1="-1192.65097" x2="-500.4952" y2="-1168.20213" gradientTransform="matrix(0.89808, -0.43983, 0.43983, 0.89808, 1066.64473, 1425.60149)" xlink:href="#em"/><linearGradient id="fd" x1="-482.10514" y1="-1216.15785" x2="-517.71136" y2="-1193.06945" gradientTransform="matrix(0.89808, -0.43983, 0.43983, 0.89808, 1066.64473, 1425.60149)" xlink:href="#r"/><linearGradient id="fe" x1="-3246.7933" y1="-1252.58087" x2="-3240.8359" y2="-1252.58087" gradientTransform="matrix(0.77521, -0.6317, 0.6317, 0.77521, 3426.27413, -506.79158)" xlink:href="#r"/><linearGradient id="ff" x1="-3246.7933" y1="-1250.89064" x2="-3243.57908" y2="-1250.89064" gradientTransform="matrix(0.77521, -0.6317, 0.6317, 0.77521, 3426.27413, -506.79158)" xlink:href="#r"/><linearGradient id="fg" x1="-3249.03771" y1="-1249.51905" x2="-3243.5628" y2="-1249.51905" gradientTransform="matrix(0.77521, -0.6317, 0.6317, 0.77521, 3426.27413, -506.79158)" xlink:href="#em"/><linearGradient id="fh" x1="-3247.84624" y1="-1252.89953" x2="-3242.33218" y2="-1252.89953" gradientTransform="matrix(0.77521, -0.6317, 0.6317, 0.77521, 3426.27413, -506.79158)" xlink:href="#em"/><linearGradient id="fi" x1="-3245.32882" y1="-1251.83572" x2="-3243.63449" y2="-1251.83572" gradientTransform="matrix(0.77521, -0.6317, 0.6317, 0.77521, 3426.27413, -506.79158)" gradientUnits="userSpaceOnUse"><stop offset="0" stop-color="#769497"/><stop offset="1" stop-color="#576f71"/></linearGradient><linearGradient id="fj" x1="-474.49462" y1="-1182.64377" x2="-474.05968" y2="-1182.64377" gradientTransform="translate(594.82445 1754.73207)" xlink:href="#r"/><linearGradient id="fk" x1="-476.92359" y1="-1186.8954" x2="-470.04671" y2="-1186.8954" gradientTransform="matrix(0.89808, -0.43983, 0.43983, 0.89808, 1066.64473, 1425.60149)" xlink:href="#r"/><linearGradient id="fl" x1="75.30869" y1="-991.78946" x2="84.46876" y2="-991.78946" gradientTransform="matrix(-0.99267, -0.12082, -0.12082, 0.99267, 91.92198, 1581.38598)" xlink:href="#em"/><linearGradient id="fm" x1="-415.05651" y1="-783.27431" x2="-436.65468" y2="-745.15988" gradientTransform="translate(722.49831 1314.54587) rotate(-13.87358)" xlink:href="#h"/><linearGradient id="fn" x1="-425.78302" y1="-827.52353" x2="-425.4654" y2="-816.93619" gradientTransform="translate(722.49831 1314.54587) rotate(-13.87358)" xlink:href="#h"/><linearGradient id="fo" x1="-428.7909" y1="-832.46703" x2="-416.50959" y2="-824.52652" gradientTransform="translate(722.49831 1314.54587) rotate(-13.87358)" xlink:href="#h"/><linearGradient id="fp" x1="-420.94887" y1="-830.64018" x2="-434.71241" y2="-833.60464" gradientTransform="translate(722.49831 1314.54587) rotate(-13.87358)" xlink:href="#h"/><linearGradient id="fq" x1="-589.35741" y1="-1362.23239" x2="-589.07824" y2="-1358.84719" gradientTransform="matrix(0.80744, -0.58995, 0.58995, 0.80744, 1370.61983, 1502.80749)" xlink:href="#o"/><linearGradient id="fr" x1="-590.48962" y1="-1362.33705" x2="-590.22166" y2="-1359.08792" gradientTransform="matrix(0.80744, -0.58995, 0.58995, 0.80744, 1370.61983, 1502.80749)" xlink:href="#o"/><linearGradient id="fs" x1="-531.77869" y1="-1437.27852" x2="-515.51356" y2="-1415.07882" gradientTransform="matrix(0.80744, -0.58995, 0.58995, 0.80744, 1370.61983, 1502.80749)" xlink:href="#h"/><linearGradient id="ft" x1="-553.34594" y1="-1413.07655" x2="-556.76036" y2="-1408.05418" xlink:href="#em"/><linearGradient id="fu" x1="-553.05444" y1="-1411.07944" x2="-555.25793" y2="-1409.37224" xlink:href="#em"/><linearGradient id="fv" x1="-15.06532" y1="310.33802" x2="-18.02641" y2="318.60865" gradientTransform="translate(137.63713 252.05175) rotate(-4.88939)" xlink:href="#em"/><linearGradient id="fw" x1="-15.02612" y1="310.71591" x2="-16.50508" y2="314.84678" gradientTransform="translate(137.63713 252.05175) rotate(-4.88939)" xlink:href="#em"/><linearGradient id="fx" x1="-17.25971" y1="312.83413" x2="-18.51297" y2="316.33463" gradientTransform="translate(137.63713 252.05175) rotate(-4.88939)" xlink:href="#em"/><linearGradient id="fy" x1="-7.17133" y1="319.00029" x2="-10.63554" y2="328.67618" gradientTransform="translate(137.63713 252.05175) rotate(-4.88939)" xlink:href="#b"/><linearGradient id="fz" x1="-11.80245" y1="315.54489" x2="-12.21434" y2="316.69535" gradientTransform="translate(137.63713 252.05175) rotate(-4.88939)" xlink:href="#b"/><linearGradient id="ga" x1="-8.46638" y1="318.88802" x2="-10.89613" y2="325.67455" gradientTransform="translate(137.63713 252.05175) rotate(-4.88939)" xlink:href="#b"/><linearGradient id="gb" x1="-11.01153" y1="316.36559" x2="-11.38916" y2="317.42034" gradientTransform="translate(137.63713 252.05175) rotate(-4.88939)" xlink:href="#b"/><linearGradient id="gc" x1="-9.46553" y1="317.82215" x2="-12.30476" y2="325.75241" gradientTransform="translate(137.63713 252.05175) rotate(-4.88939)" xlink:href="#b"/><linearGradient id="gd" x1="-11.42062" y1="317.08031" x2="-13.40637" y2="322.62669" gradientTransform="translate(137.63713 252.05175) rotate(-4.88939)" xlink:href="#b"/><linearGradient id="ge" x1="357.52507" y1="572.28767" x2="354.14032" y2="581.74162" gradientTransform="matrix(1, 0, 0, 1, 0, 0)" xlink:href="#b"/><linearGradient id="gf" x1="362.96628" y1="595.96406" x2="355.48395" y2="616.86298" gradientTransform="matrix(1, 0, 0, 1, 0, 0)" xlink:href="#b"/><linearGradient id="gg" x1="47.57742" y1="229.78581" x2="55.4589" y2="229.78581" gradientTransform="translate(210.94596 346.44405) rotate(-7.1801)" xlink:href="#a"/><linearGradient id="gh" x1="293.80683" y1="487.89553" x2="307.75827" y2="487.89553" gradientTransform="matrix(1, 0, 0, 1, 0, 0)" xlink:href="#b"/><linearGradient id="gi" x1="294.81262" y1="486.31503" x2="307.50238" y2="486.31503" gradientTransform="matrix(1, 0, 0, 1, 0, 0)" xlink:href="#b"/><linearGradient id="gj" x1="298.57113" y1="482.98484" x2="305.97488" y2="482.98484" gradientTransform="matrix(1, 0, 0, 1, 0, 0)" xlink:href="#b"/></defs><g class="a"><ellipse class="b" cx="144.75511" cy="843.11274" rx="47.83531" ry="4.45631"/><ellipse class="b" cx="370.73325" cy="843.11274" rx="59.19903" ry="4.45631"/><path class="c" d="M405.54074,660.244l-.93805,7.66356-4.2615-.35732s.80206-.9881-.60934-3.54272-4.39171-6.1224-.07825-6.653,5.61016,1.28675,5.61016,1.28675Z"/><path class="d" d="M313.52194,668.23921s8.923,28.61506,48.53529,31.45529,42.54546-31.78692,42.54546-31.78692-.72645-.01843-4.2615-.35732c-7.26987,25.69961-47.73066,16.62932-39.07226,6.662,13.773-15.85507-18.85053-22.98561-18.85053-22.98561Z"/><path class="e" d="M313.95014,587.44936s-3.11524-3.57131-5.8403-3.01979-4.51426.45666-3.88728,2.68577,1.47235,4.4199,4.33209,3.20044,3.47749-.35923,3.47749-.35923Z"/><polygon class="f" points="308.269 584.765 335.02 574.38 335.503 577.177 309.879 585.806 308.269 584.765"/><path class="g" d="M328.3863,596.52605c-.35031-.31008-14.43616-9.07669-14.43616-9.07669l-1.918,2.50719,14.547,13.683Z"/><path class="h" d="M354.725,572.21934s25.39741,36.29562,25.44363,44.02351-3.43157,19.93275,12.15305,18.099,16.71821-10.19534,10.3301-24.778-21.75849-35.134-21.75849-35.134L366.3429,563.70953Z"/><path class="i" d="M353.81,742.74673l2.83928,5.1631,2.081,2.3574a18.0388,18.0388,0,0,0-1.95427,1.74765c-.3474.47665-5.69993.98506-5.69993.98506l-1.06288-2.19322.76781-2.22666s1.48487-1.7404-2.32321-4.90837S353.81,742.74673,353.81,742.74673Z"/><path class="j" d="M330.1511,565.22733c.69892.336,1.37226.68222,2.05059,1.02654A7.20859,7.20859,0,0,0,330.1511,565.22733Z"/><path class="k" d="M304.93391,647.8322c1.63464,8.13077,5.21521,16.68654,10.4114,25.37171a101.81709,101.81709,0,0,1,6.15281-28.4735A74.43387,74.43387,0,0,0,304.93391,647.8322Z"/><path class="l" d="M321.49812,644.73041a101.81709,101.81709,0,0,0-6.15281,28.4735c6.7736,11.3212,16.28939,22.85872,27.80871,33.95612,2.25311-11.18952,9.28372-24.789,25.24569-40.47147a89.8959,89.8959,0,0,0,4.21409-15.88209C351.15973,644.07671,333.42415,643.64219,321.49812,644.73041Z"/><path class="m" d="M372.6138,650.80647c-21.45407-6.72976-39.18965-7.16428-51.11568-6.07606a101.81709,101.81709,0,0,0-6.15281,28.4735c-2.805,44.22752,33.11245,70.46778,33.11245,70.46778l5.35221-.925s-15.24635-12.79026-10.656-35.5867c2.25311-11.18952,9.28372-24.789,25.24569-40.47147a56.42,56.42,0,0,0,10.48117-13.78388C376.75519,652.13837,374.67285,651.45232,372.6138,650.80647Z"/><path class="n" d="M324.5506,637.12416c-1.13655,2.5769-2.14294,5.10944-3.05248,7.60625,11.926-1.08822,29.66161-.6537,51.11568,6.07606,3.958-22.14718,3.78677-62.10331-40.41211-84.5526C337.22623,569.6764,348.10649,583.72778,324.5506,637.12416Z"/><path class="o" d="M338.20175,556.52711l-8.05065,8.70022a7.20859,7.20859,0,0,1,2.05059,1.02654c-.67833-.34432-1.35167-.69057-2.05059-1.02654,0,0,17.40047,16.1014-14.24771,45.54288-10.75638,10.00637-13.81911,22.88751-10.96948,37.062a74.43387,74.43387,0,0,1,16.56421-3.10179c11.926-1.08822,29.66161-.6537,51.11568,6.07606,2.059.64585,4.14139,1.3319,6.26708,2.09821C402.76283,607.83715,338.20175,556.52711,338.20175,556.52711Z"/><path class="p" d="M360.274,751.41035l-2.62311-3.67362-1.00165.1731s1.71913,2.38537-1.82321,2.58487-4.04507-1.91464-4.04507-1.91464l-5.91548,3.98c-9.73025,1.40647-10.88457,5.87042-10.88457,5.87042S361.12836,755.596,360.274,751.41035Z"/><path class="q" d="M333.98092,758.43043l-1.18819.68686,1.1642,1.51838,25.17138-4.3501c6.14445-1.06188,1.1457-4.87522,1.1457-4.87522C361.12836,755.596,333.98092,758.43043,333.98092,758.43043Z"/><path class="r" d="M395.76605,661.85147l3.9658,2.15607.825-.59382s-2.58937-1.393.50881-3.122,4.47506-.04772,4.47506-.04772l3.57852-6.16661c8.13469-5.52113,7.22-10.04027,7.22-10.04027S393.16683,658.46126,395.76605,661.85147Z"/><path class="s" d="M416.33928,644.03714l.768-1.13741-1.7111-.85615-20.73247,14.92268c-5.06089,3.6427,1.10232,4.88521,1.10232,4.88521C393.16683,658.46126,416.33928,644.03714,416.33928,644.03714Z"/><path class="t" d="M272.23565,530.94048s.57051,6.31874-6.95577,7.8793c0,0,10.76992,3.67524,16.34584-6.16348,0,0,4.29226.77775.69106,3.99877,0,0,12.504-.11583,12.59771-5.44237s2.03485-25.67167-12.831-12.44806S272.23565,530.94048,272.23565,530.94048Z"/><path class="u" d="M278.14805,536.79468s6.44623,11.94035,3.06277,17.7224,4.85621,3.83834,5.70973,5.76976-1.40851,7.16618,1.003,5.80358c5.02321-2.83837,6.23708-.94931,6.2638.10616.05475,2.163-6.08328,5.22131-2.75007,6.46433s.72889,5.94946,6.9063,4.10229,16.23816-25.39859,26.321-17.02235c4.27817,3.554,5.48651,5.48648,5.48651,5.48648l8.05065-8.70022s-3.69072-3.296-1.19838-10.8078-20.98957-20.08506-20.98957-20.08506-29.675-6.30568-30.34477-5.6702S278.14805,536.79468,278.14805,536.79468Z"/><path class="v" d="M284.9862,540.82169s-.27116,2.81572-.68722,2.97353c0,0-.36712,1.15505,4.75878,2.03235"/><path class="w" d="M291.65644,539.87476s-11.74766-6.3609-8.58184.90291C283.0746,540.77767,282.69694,536.70112,291.65644,539.87476Z"/><polygon class="x" points="284.315 543.874 283.519 544.866 289.228 545.666 284.315 543.874"/><polygon class="y" points="286.34 545.269 284.622 545.78 285.46 546.449 286.976 545.283 286.34 545.269"/><path class="z" d="M327.078,526.46005s25.55406,26.10868,30.22681,26.08073c0,0-8.38523,1.10136-11.546-.64725l.70509,4.08A78.98329,78.98329,0,0,1,324.90166,543.268c-11.24783-9.14857-10.44074-13.9684-10.44074-13.9684Z"/><path class="aa" d="M274.95639,525.51833s-1.39054-15.04987,13.917-24.72106,35.73552-7.29668,45.4697,17.489a30.40462,30.40462,0,0,0,3.418,6.32762c13.37137,19.10286,45.57617,22.24106,27.69466,24.63866-19.69687,2.641-42.9049-7.72976-45.30148-19.90339,0,0-42.69251-.28976-46.56253-1.2271S274.95639,525.51833,274.95639,525.51833Z"/><path class="ab" d="M300.08525,529.11607s2.80225,5.175,16.224,11.48789c0,0-3.40122-7.639-1.84834-11.30433Z"/><path class="ac" d="M309.30441,496.18983c-2.29776,1.40735-7.31509-.17449-4.79478-1.9425S311.60216,494.78248,309.30441,496.18983Z"/><path class="ad" d="M349.34032,566.6479s19.32779-10.73436,27.4625-.96615,13.18091,15.34271,6.94965,15.34516-14.6905-11.64365-17.9929-10.858-11.03458,2.05047-11.03458,2.05047Z"/><polygon class="ae" points="381.935 579.837 386.255 586.181 389.595 584.369 385.147 578.53 381.935 579.837"/><polygon class="af" points="387.694 585.933 394.49 603.991 396.472 603.648 388.171 583.594 386.175 584.476 387.694 585.933"/><path class="ag" d="M394.48993,603.99056s-2.56441,1.94738-1.90886,3.8755,7.51154-1.29814,7.51154-1.29814.13531-3.569-1.74258-3.24446Z"/><polygon class="ah" points="378.37 597.751 386.863 594.672 393.242 611.835 384.057 614.496 378.37 597.751"/><path class="ai" d="M379.35955,597.39235s-2.53987-5.50143-.77369-7.094l-1.9852-5.46081,2.94522-1.4183,1.97565,5.83654a11.7592,11.7592,0,0,1,3.97989,5.90963Z"/><polygon class="aj" points="377.149 586.52 380.225 585.222 379.618 582.749 376.057 584.371 377.149 586.52"/><path class="ak" d="M349.34032,566.6479s-.15294-2.61337,1.88866-1.75747,3.54171,3.94081,3.54171,3.94081l1.66592,3.10173-1.71162.28637Z"/><path class="al" d="M384.73306,624.93586l1.09531,6.33786s4.71194.79732,5.97166.33788-.67988-6.08733-.67988-6.08733Z"/><path class="am" d="M310.9,588.21823s-2.12614.28685-2.42074-.95155-1.77548-.01549-1.90926-.55644-.81285-1.67262,1.69848-1.94547,2.82622,1.08293,2.82622,1.08293"/><polygon class="an" points="307.155 586.698 308.906 588.455 328.386 596.526 330.561 594.947 326.753 593.452 308.595 586.655 307.155 586.698"/><path class="ao" d="M239.82536,124.57876c-2.50114-29.23812-22.33667-51.417-44.30275-49.538-21.96679,1.87912-37.74646,27.10466-35.24533,56.34279,2.35494,27.529,20.0778,48.78793,40.47659,49.61141a3.49919,3.49919,0,0,1,3.10439,2.48538l.49844,1.50025,1.13283-.09691.23639-1.56312a3.49922,3.49922,0,0,1,2.63715-2.97653C228.32562,176.06786,242.18028,152.10771,239.82536,124.57876Z"/><path class="ap" d="M203.76347,186.42194s-.32651,3.63617-1.215,3.96391a2.47782,2.47782,0,0,1,3.33462.78465c1.5609,1.94334-.5691-4.8812-.5691-4.8812Z"/><path class="aq" d="M204.66508,186.34481l-.28555,2.94038s-.26368,1.72181-1.05484,1.78949a.6664.6664,0,0,1-.77618-.68883,21.72619,21.72619,0,0,0,1.215-3.96391Z"/><path class="ar" d="M203.58642,185.52307s.11338.65446.5311.61872,2.22195.35454,2.1757-.18611.24105-1.36038-.37835-1.388a13.71892,13.71892,0,0,0-1.86766.15978Z"/><polygon class="as" points="307.061 467.948 307.93 467.874 206.363 185.551 205.495 185.625 307.061 467.948"/><path class="at" d="M282.76851,49.64907c-2.50113-29.23813-22.33666-51.417-44.30275-49.538C216.499,1.99023,200.7193,27.21578,203.22044,56.4539c2.35493,27.529,20.07779,48.78793,40.47658,49.61141a3.49917,3.49917,0,0,1,3.10439,2.48538l.49844,1.50025,1.13284-.09691.23639-1.56312a3.49917,3.49917,0,0,1,2.63715-2.97652C271.26877,101.13817,285.12344,77.178,282.76851,49.64907Z"/><path class="au" d="M246.70663,111.49224s-.32651,3.63617-1.215,3.96391a2.47783,2.47783,0,0,1,3.33462.78465c1.56091,1.94334-.5691-4.8812-.5691-4.8812Z"/><path class="av" d="M247.60824,111.41511l-.28555,2.94038s-.26369,1.72181-1.05485,1.78949a.6664.6664,0,0,1-.77618-.68883,21.72684,21.72684,0,0,0,1.215-3.96391Z"/><path class="aw" d="M246.52958,110.59337s.11338.65446.5311.61872,2.22194.35455,2.17569-.18611.24106-1.36038-.37834-1.388a13.718,13.718,0,0,0-1.86767.15977Z"/><polygon class="ax" points="307.278 467.93 308.147 467.855 249.306 110.621 248.438 110.696 307.278 467.93"/><path class="ay" d="M311.62082,178.20023c-2.06567-24.1476-24.68107-41.9318-50.51157-39.72216-25.83133,2.2097-45.09678,23.57654-43.0311,47.72414,1.94492,22.73607,22.1087,39.82091,46.01983,39.89675a3.8109,3.8109,0,0,1,3.56876,1.96669l.54027,1.228,1.33213-.11395.32384-1.302a3.81089,3.81089,0,0,1,3.18287-2.54425C296.59668,221.19754,313.56574,200.93622,311.62082,178.20023Z"/><path class="az" d="M268.201,230.01048s-.3106,2.6946-1.067,2.94545a2.29353,2.29353,0,0,1,2.82019.54986c1.30547,1.424-.43725-3.60788-.43725-3.60788Z"/><path class="ba" d="M268.96617,229.945l-.26941,2.17917s-.23956,1.277-.911,1.33441-.65174-.50268-.65174-.50268a14.96889,14.96889,0,0,0,1.067-2.94545Z"/><path class="bb" d="M267.59544,230.138s.11338.65445.5311.61872,2.222.35454,2.1757-.18611.24106-1.36038-.37835-1.388a13.71892,13.71892,0,0,0-1.86766.15978Z"/><polygon class="bc" points="306.844 467.967 307.712 467.892 270.372 230.166 269.504 230.24 306.844 467.967"/><path class="bd" d="M327.14285,231.70108c-2.30248-26.91587-21.977-47.2122-43.94305-45.33314-21.96679,1.87912-37.9075,25.2221-35.605,52.138,2.16789,25.34253,19.73713,44.80565,40.1186,45.42662a3.39278,3.39278,0,0,1,3.08583,2.26847l.488,1.37859,1.13283-.0969.2468-1.44147a3.39281,3.39281,0,0,1,2.6557-2.75962C315.30245,279.20791,329.31073,257.04353,327.14285,231.70108Z"/><path class="be" d="M266.70867,204.45673c-3.66372-31.47295-26.27634-54.0555-48.07335-50.74941-21.7977,3.30619-37.98511,31.87581-30.86243,62.72208,6.89475,29.85916,24.96247,39.79315,43.21768,44.19935a4.25846,4.25846,0,0,1,3.29259,2.49466l.61357,1.5862,1.12411-.1705.11561-1.69681a3.90645,3.90645,0,0,1,2.40476-3.35881C257.7126,251.04794,270.24384,234.82546,266.70867,204.45673Z"/><path class="bf" d="M396.48676,99.7501c-3.66371-31.47295-26.27633-54.0555-48.07334-50.74941C326.61571,52.30688,310.4283,80.8765,317.551,111.72277c6.89475,29.85916,24.96248,39.79315,43.21768,44.19935a4.25851,4.25851,0,0,1,3.2926,2.49467l.61356,1.58619,1.12411-.1705.11562-1.69681a3.90642,3.90642,0,0,1,2.40475-3.35881C387.49069,146.34131,400.02193,130.11883,396.48676,99.7501Z"/><path class="bg" d="M290.86953,287.61533s-.43892,2.3221-1.33522,2.55817a3.42848,3.42848,0,0,1,3.30129.395c1.4962,1.187-.41552-3.08581-.41552-3.08581Z"/><path class="bh" d="M291.77114,287.5382l-.3764,1.87843s-.31662,1.103-1.10778,1.17065-.75265-.41378-.75265-.41378a11.66661,11.66661,0,0,0,1.33522-2.55817Z"/><path class="bi" d="M234.67078,265.55226s-.43892,2.3221-1.33522,2.55817a3.42848,3.42848,0,0,1,3.30129.395c1.4962,1.187-.41552-3.08581-.41552-3.08581Z"/><path class="bj" d="M235.57238,265.47513l-.37639,1.87843s-.31662,1.103-1.10778,1.17065-.75265-.41378-.75265-.41378a11.66661,11.66661,0,0,0,1.33522-2.55817Z"/><path class="bk" d="M290.33843,286.9966s.11338.65446.5311.61873,2.22194.35454,2.17569-.18612.24106-1.36038-.37834-1.388a13.71912,13.71912,0,0,0-1.86767.15978Z"/><rect class="bl" x="299.97787" y="286.73172" width="0.87189" height="181.45377" transform="translate(631.90615 727.93869) rotate(175.11061)"/><path class="bm" d="M369.74989,168.65457c-2.50114-29.23812-22.33666-51.417-44.30275-49.538-21.96679,1.87912-37.74646,27.10467-35.24532,56.34279,2.35493,27.529,20.07779,48.78793,40.47658,49.61142a3.49918,3.49918,0,0,1,3.10439,2.48537l.49844,1.50026,1.13284-.09691.23639-1.56312a3.49918,3.49918,0,0,1,2.63715-2.97653C358.25015,220.14367,372.10481,196.18352,369.74989,168.65457Z"/><path class="bn" d="M333.688,230.49774s-.32651,3.63618-1.215,3.96392a2.47782,2.47782,0,0,1,3.33462.78464c1.5609,1.94334-.5691-4.8812-.5691-4.8812Z"/><path class="bo" d="M334.58961,230.42062l-.28554,2.94038s-.26369,1.72181-1.05485,1.78949a.6664.6664,0,0,1-.77618-.68883,21.72674,21.72674,0,0,0,1.215-3.96392Z"/><path class="bp" d="M333.511,229.59887s.11338.65446.5311.61873,2.22194.35454,2.17569-.18612.24106-1.36037-.37834-1.388a13.71912,13.71912,0,0,0-1.86767.15978Z"/><polygon class="bq" points="306.193 468.023 307.061 467.948 336.288 229.627 335.419 229.701 306.193 468.023"/><path class="br" d="M234.19256,265.56186s.11338.65446.5311.61873,2.22195.35454,2.1757-.18612.24106-1.36038-.37834-1.388a13.71894,13.71894,0,0,0-1.86767.15978Z"/><polygon class="bs" points="307.061 467.948 307.93 467.874 236.969 265.59 236.101 265.664 307.061 467.948"/><path class="bt" d="M384.01075,231.6379c6.76717-26.15283-7.15148-51.58328-28.70159-56.23437-21.55079-4.65124-46.02577,12.58082-49.34006,39.39091-3.20824,25.95213,10.54353,39.84734,26.26451,49.42631a3.97556,3.97556,0,0,1,2.28409,3.07429l.0619,1.46113,1.11138.23986.659-1.30554a3.64988,3.64988,0,0,1,3.34873-1.85858C360.446,265.544,377.481,256.87317,384.01075,231.6379Z"/><path class="bu" d="M334.11648,268.59329s-1.45018,4.00552-2.52106,4.11106a2.76218,2.76218,0,0,1,3.41379,1.87708c1.12428,2.65688.84415-5.67663.84415-5.67663Z"/><path class="bv" d="M335.12643,268.77443l-1.19623,3.23265s-.80607,1.86426-1.69231,1.70531a.77283.77283,0,0,1-.64247-1.008,25.80977,25.80977,0,0,0,2.52106-4.11106Z"/><path class="bw" d="M333.38209,269.32841s.11338.65445.5311.61872,2.22194.35454,2.17569-.18612.24106-1.36037-.37834-1.388a13.71912,13.71912,0,0,0-1.86767.15978Z"/><polygon class="bx" points="305.975 468.041 306.844 467.967 336.159 269.357 335.29 269.431 305.975 468.041"/><path class="by" d="M307.22585,124.51891c6.76718-26.15283-7.15147-51.58328-28.70158-56.23437-21.5508-4.65123-46.02577,12.58082-49.34007,39.39091-3.20823,25.95214,10.54354,39.84734,26.26452,49.42632a3.97553,3.97553,0,0,1,2.28409,3.07429l.0619,1.46112,1.11138.23987.659-1.30554a3.64985,3.64985,0,0,1,3.34872-1.85858C283.66113,158.42505,300.6961,149.75418,307.22585,124.51891Z"/><path class="bz" d="M257.33159,161.4743s-1.45018,4.00552-2.52106,4.11107a2.76218,2.76218,0,0,1,3.41378,1.87708c1.12429,2.65688.84416-5.67664.84416-5.67664Z"/><path class="ca" d="M258.34154,161.65544l-1.19623,3.23265s-.80607,1.86426-1.69231,1.70532a.77284.77284,0,0,1-.64247-1.008,25.81071,25.81071,0,0,0,2.52106-4.11107Z"/><path class="cb" d="M256.5972,162.20942s.11338.65446.5311.61872,2.22194.35455,2.17569-.18611.24106-1.36038-.37834-1.388a13.718,13.718,0,0,0-1.86767.15977Z"/><polygon class="cc" points="306.844 467.967 307.712 467.892 259.374 162.238 258.505 162.312 306.844 467.967"/><path class="cd" d="M351.20269,64.53008c6.76717-26.15284-7.15148-51.58329-28.70159-56.23437-21.55079-4.65124-46.02577,12.58081-49.34006,39.3909C269.9528,73.63875,283.70457,87.534,299.42555,97.11293a3.97554,3.97554,0,0,1,2.28409,3.07429l.0619,1.46112,1.11138.23987.659-1.30554a3.64988,3.64988,0,0,1,3.34873-1.85858C327.638,98.43622,344.67294,89.76534,351.20269,64.53008Z"/><path class="ce" d="M301.30842,101.48547s-1.45018,4.00552-2.52106,4.11106a2.76218,2.76218,0,0,1,3.41379,1.87708c1.12428,2.65688.84415-5.67663.84415-5.67663Z"/><path class="cf" d="M302.31837,101.6666l-1.19623,3.23266s-.80607,1.86426-1.69231,1.70531a.77283.77283,0,0,1-.64247-1.008,25.80977,25.80977,0,0,0,2.52106-4.11106Z"/><path class="cg" d="M300.574,102.22058s.11338.65446.5311.61873,2.22194.35454,2.17569-.18612.24106-1.36038-.37834-1.388a13.71912,13.71912,0,0,0-1.86767.15978Z"/><polygon class="ch" points="306.193 468.023 307.061 467.948 303.351 102.249 302.482 102.323 306.193 468.023"/><path class="ci" d="M429.9121,179.70973c6.76718-26.15284-7.15147-51.58329-28.70158-56.23437-21.5508-4.65124-46.02578,12.58081-49.34007,39.3909C348.66222,188.8184,362.414,202.7136,378.135,212.29258a3.97553,3.97553,0,0,1,2.28409,3.07429l.0619,1.46112,1.11138.23987.659-1.30554a3.64986,3.64986,0,0,1,3.34872-1.85858C406.34738,213.61587,423.38235,204.945,429.9121,179.70973Z"/><path class="cj" d="M380.01784,216.66512s-1.45018,4.00552-2.52107,4.11106a2.76218,2.76218,0,0,1,3.41379,1.87708c1.12429,2.65688.84416-5.67663.84416-5.67663Z"/><path class="ck" d="M381.02779,216.84625l-1.19623,3.23265s-.80608,1.86427-1.69231,1.70532a.77284.77284,0,0,1-.64248-1.008,25.81039,25.81039,0,0,0,2.52107-4.11106Z"/><path class="cl" d="M379.28345,217.40023s.11338.65446.5311.61873,2.22194.35454,2.17569-.18612.24106-1.36038-.37834-1.388a13.71912,13.71912,0,0,0-1.86767.15978Z"/><polygon class="cm" points="307.061 467.948 307.93 467.874 382.06 217.428 381.192 217.503 307.061 467.948"/><polygon class="cn" points="347.575 590.81 318.697 482.063 313.937 492.361 336.079 607.619 347.575 590.81"/><path class="co" d="M318.697,482.06257s-8.71462-19.14452-16.10334-14.65954c-5.46075,3.3147-3.16813,12.70292,3.99692,13.42106,5.98922.60029,7.3466,11.53739,7.3466,11.53739Z"/><path class="cp" d="M79.80873,221.50349c-2.50113-29.23812-22.33666-51.417-44.30275-49.538C13.5392,173.84465-2.24048,199.0702.26066,228.30832c2.35493,27.529,20.07779,48.78793,40.47658,49.61142a3.49918,3.49918,0,0,1,3.10439,2.48537l.49844,1.50025,1.13284-.0969.23639-1.56313a3.49917,3.49917,0,0,1,2.63715-2.97652C68.309,272.99259,82.16366,249.03243,79.80873,221.50349Z"/><path class="cq" d="M43.74685,283.34666s-.32651,3.63617-1.215,3.96392a2.47782,2.47782,0,0,1,3.33462.78464c1.56091,1.94334-.5691-4.8812-.5691-4.8812Z"/><path class="cr" d="M44.64846,283.26953l-.28555,2.94038s-.26369,1.72181-1.05485,1.78949a.66639.66639,0,0,1-.77618-.68882,21.72674,21.72674,0,0,0,1.215-3.96392Z"/><path class="cs" d="M43.5698,282.44779s.11338.65446.5311.61873,2.22194.35454,2.17569-.18612.24106-1.36038-.37834-1.388a13.718,13.718,0,0,0-1.86767.15977Z"/><polygon class="ct" points="147.045 564.873 147.913 564.799 46.347 282.476 45.478 282.55 147.045 564.873"/><path class="cu" d="M122.75189,146.57379c-2.50114-29.23812-22.33666-51.417-44.30275-49.538C56.48235,98.915,40.70268,124.1405,43.20381,153.37862c2.35494,27.529,20.0778,48.78793,40.47659,49.61142a3.49919,3.49919,0,0,1,3.10439,2.48537l.49844,1.50025,1.13283-.0969.2364-1.56313a3.49917,3.49917,0,0,1,2.63714-2.97652C111.25215,198.06289,125.10681,174.10273,122.75189,146.57379Z"/><path class="cv" d="M86.69,208.417s-.3265,3.63617-1.215,3.96392a2.47782,2.47782,0,0,1,3.33462.78464c1.5609,1.94334-.5691-4.8812-.5691-4.8812Z"/><path class="cw" d="M87.59161,208.33983l-.28555,2.94038s-.26368,1.72182-1.05484,1.78949a.66639.66639,0,0,1-.77618-.68882A21.72609,21.72609,0,0,0,86.69,208.417Z"/><path class="cx" d="M86.513,207.51809s.11337.65446.53109.61873,2.222.35454,2.1757-.18612.24106-1.36038-.37834-1.388a13.71894,13.71894,0,0,0-1.86767.15978Z"/><polygon class="cy" points="147.261 564.854 148.13 564.78 89.29 207.546 88.421 207.621 147.261 564.854"/><path class="cz" d="M151.6042,275.125c-2.06567-24.1476-24.68107-41.93179-50.51158-39.72216-25.83132,2.20971-45.09677,23.57655-43.0311,47.72414,1.94493,22.73607,22.10871,39.82091,46.01983,39.89675a3.81089,3.81089,0,0,1,3.56877,1.9667l.54027,1.228,1.33212-.114.32385-1.302a3.81089,3.81089,0,0,1,3.18286-2.54426C136.58006,318.12226,153.54912,297.861,151.6042,275.125Z"/><path class="da" d="M108.18435,326.93521s-.3106,2.6946-1.067,2.94544a2.29352,2.29352,0,0,1,2.82019.54987c1.30548,1.424-.43725-3.60788-.43725-3.60788Z"/><path class="db" d="M108.94955,326.86975l-.26941,2.17918s-.23956,1.277-.911,1.3344-.65174-.50268-.65174-.50268a14.96953,14.96953,0,0,0,1.067-2.94544Z"/><path class="dc" d="M107.57882,327.06276s.11338.65446.5311.61873,2.22194.35454,2.17569-.18612.24106-1.36038-.37834-1.388a13.718,13.718,0,0,0-1.86767.15977Z"/><polygon class="dd" points="146.827 564.892 147.696 564.817 110.356 327.091 109.487 327.165 146.827 564.892"/><path class="de" d="M167.12622,328.6258c-2.30248-26.91587-21.977-47.2122-43.943-45.33314-21.96678,1.87912-37.9075,25.22211-35.605,52.138,2.16789,25.34252,19.73714,44.80565,40.1186,45.42661a3.39282,3.39282,0,0,1,3.08584,2.26847l.488,1.3786,1.13284-.09691.2468-1.44147a3.39281,3.39281,0,0,1,2.6557-2.75962C155.28583,376.13263,169.29411,353.96825,167.12622,328.6258Z"/><path class="df" d="M106.692,301.38146C103.02833,269.9085,80.41571,247.326,58.6187,250.632c-21.79771,3.30619-37.98511,31.87581-30.86243,62.72209,6.89474,29.85916,24.96247,39.79314,43.21767,44.19935a4.25847,4.25847,0,0,1,3.2926,2.49466l.61356,1.58619,1.12412-.1705.11561-1.6968a3.9064,3.9064,0,0,1,2.40475-3.35881C97.696,347.97267,110.22721,331.75018,106.692,301.38146Z"/><path class="dg" d="M236.47014,196.67483c-3.66372-31.473-26.27634-54.05551-48.07335-50.74942-21.7977,3.30619-37.98511,31.87581-30.86243,62.72209,6.89474,29.85916,24.96247,39.79314,43.21768,44.19935a4.25844,4.25844,0,0,1,3.29259,2.49466l.61357,1.58619,1.12411-.1705.11561-1.6968a3.90643,3.90643,0,0,1,2.40475-3.35881C227.47406,243.266,240.00531,227.04355,236.47014,196.67483Z"/><path class="dh" d="M130.8529,384.54005s-.43891,2.32211-1.33521,2.55817a3.42849,3.42849,0,0,1,3.30128.395c1.4962,1.187-.41551-3.08581-.41551-3.08581Z"/><path class="di" d="M131.75451,384.46292l-.37639,1.87844s-.31662,1.103-1.10778,1.17065-.75265-.41379-.75265-.41379a11.666,11.666,0,0,0,1.33521-2.55817Z"/><path class="dj" d="M74.65415,362.477s-.43892,2.32211-1.33522,2.55817a3.42851,3.42851,0,0,1,3.30129.395c1.4962,1.187-.41551-3.08581-.41551-3.08581Z"/><path class="dk" d="M75.55576,362.39985l-.37639,1.87844s-.31662,1.103-1.10778,1.17065-.75266-.41379-.75266-.41379a11.66594,11.66594,0,0,0,1.33522-2.55817Z"/><path class="dl" d="M130.32181,383.92133s.11337.65445.53109.61872,2.22195.35454,2.1757-.18612.24106-1.36037-.37834-1.388a13.71912,13.71912,0,0,0-1.86767.15978Z"/><rect class="dm" x="139.96125" y="383.65644" width="0.87189" height="181.45377" transform="translate(320.7163 935.07403) rotate(175.11061)"/><path class="dn" d="M209.73326,265.57929c-2.50113-29.23812-22.33666-51.417-44.30274-49.538-21.96679,1.87912-37.74646,27.10466-35.24533,56.34279,2.35494,27.529,20.0778,48.78793,40.47658,49.61141a3.4992,3.4992,0,0,1,3.1044,2.48538l.49844,1.50025,1.13283-.09691.23639-1.56312a3.4992,3.4992,0,0,1,2.63715-2.97653C198.23353,317.06839,212.08819,293.10824,209.73326,265.57929Z"/><path class="do" d="M173.67138,327.42247s-.32651,3.63617-1.215,3.96391a2.47782,2.47782,0,0,1,3.33462.78465c1.5609,1.94334-.5691-4.8812-.5691-4.8812Z"/><path class="dp" d="M174.573,327.34534l-.28555,2.94038s-.26368,1.72181-1.05484,1.78949a.6664.6664,0,0,1-.77618-.68883,21.727,21.727,0,0,0,1.215-3.96391Z"/><path class="dq" d="M173.49433,326.5236s.11338.65446.5311.61872,2.22194.35454,2.17569-.18611.24106-1.36038-.37834-1.388a13.71776,13.71776,0,0,0-1.86766.15977Z"/><polygon class="dr" points="146.176 564.947 147.045 564.873 176.271 326.552 175.402 326.626 146.176 564.947"/><path class="ds" d="M74.17594,362.48659s.11338.65445.5311.61872,2.22194.35454,2.17569-.18612.24106-1.36037-.37834-1.388a13.71912,13.71912,0,0,0-1.86767.15978Z"/><polygon class="dt" points="147.045 564.873 147.913 564.799 76.953 362.515 76.084 362.589 147.045 564.873"/><path class="du" d="M223.99412,328.56262c6.76718-26.15283-7.15147-51.58328-28.70158-56.23437-21.5508-4.65123-46.02578,12.58082-49.34007,39.39091C142.74424,337.6713,156.496,351.5665,172.217,361.14548a3.97553,3.97553,0,0,1,2.28409,3.07429l.0619,1.46112,1.11138.23987.659-1.30554a3.64985,3.64985,0,0,1,3.34872-1.85858C200.4294,362.46876,217.46437,353.79789,223.99412,328.56262Z"/><path class="dv" d="M174.09986,365.518s-1.45018,4.00551-2.52107,4.11106a2.76218,2.76218,0,0,1,3.41379,1.87708c1.12429,2.65688.84416-5.67664.84416-5.67664Z"/><path class="dw" d="M175.10981,365.69915l-1.19623,3.23265s-.80608,1.86426-1.69231,1.70532a.77284.77284,0,0,1-.64248-1.008,25.81087,25.81087,0,0,0,2.52107-4.11106Z"/><path class="dx" d="M173.36547,366.25313s.11338.65446.5311.61872,2.22194.35455,2.17569-.18611.24106-1.36038-.37834-1.388a13.718,13.718,0,0,0-1.86767.15977Z"/><polygon class="dy" points="145.958 564.966 146.827 564.892 176.142 366.281 175.274 366.356 145.958 564.966"/><path class="dz" d="M147.20923,221.44364c6.76718-26.15284-7.15147-51.58329-28.70159-56.23438-21.55079-4.65123-46.02577,12.58082-49.34006,39.39091-3.20823,25.95214,10.54353,39.84734,26.26452,49.42632a3.97557,3.97557,0,0,1,2.28409,3.07429l.0619,1.46112,1.11138.23987.659-1.30554a3.64985,3.64985,0,0,1,3.34872-1.85858C123.64451,255.34978,140.67948,246.6789,147.20923,221.44364Z"/><path class="ea" d="M97.315,258.399s-1.45018,4.00552-2.52106,4.11106a2.76218,2.76218,0,0,1,3.41379,1.87708c1.12429,2.65688.84416-5.67663.84416-5.67663Z"/><path class="eb" d="M98.32492,258.58016l-1.19624,3.23265s-.80607,1.86427-1.6923,1.70532a.77284.77284,0,0,1-.64248-1.008A25.80977,25.80977,0,0,0,97.315,258.399Z"/><path class="ec" d="M96.58057,259.13414s.11338.65446.5311.61873,2.22195.35454,2.1757-.18612.24106-1.36038-.37835-1.388a13.71892,13.71892,0,0,0-1.86766.15978Z"/><polygon class="ed" points="146.827 564.892 147.696 564.817 99.357 259.162 98.489 259.237 146.827 564.892"/><path class="ee" d="M191.18606,161.4548c6.76718-26.15283-7.15147-51.58328-28.70158-56.23437-21.5508-4.65124-46.02578,12.58082-49.34007,39.39091-3.20823,25.95213,10.54353,39.84734,26.26452,49.42631a3.97558,3.97558,0,0,1,2.28409,3.0743l.0619,1.46112,1.11138.23986.659-1.30553a3.64983,3.64983,0,0,1,3.34872-1.85858C167.62134,195.36094,184.65631,186.69007,191.18606,161.4548Z"/><path class="ef" d="M141.2918,198.41019s-1.45018,4.00552-2.52107,4.11106a2.7622,2.7622,0,0,1,3.41379,1.87709c1.12429,2.65688.84416-5.67664.84416-5.67664Z"/><path class="eg" d="M142.30175,198.59133l-1.19623,3.23265s-.80608,1.86426-1.69231,1.70532a.77285.77285,0,0,1-.64248-1.008,25.81039,25.81039,0,0,0,2.52107-4.11106Z"/><path class="eh" d="M140.55741,199.14531s.11338.65446.5311.61872,2.22194.35454,2.17569-.18611.24106-1.36038-.37834-1.388a13.71912,13.71912,0,0,0-1.86767.15978Z"/><polygon class="ei" points="146.176 564.947 147.045 564.873 143.334 199.173 142.466 199.248 146.176 564.947"/><path class="ej" d="M269.89548,276.63445c6.76717-26.15283-7.15148-51.58328-28.70159-56.23437-21.55079-4.65124-46.02577,12.58082-49.34006,39.39091-3.20823,25.95213,10.54353,39.84734,26.26452,49.42631a3.9756,3.9756,0,0,1,2.28409,3.0743l.06189,1.46112,1.11139.23986.659-1.30553a3.64982,3.64982,0,0,1,3.34872-1.85858C246.33076,310.54059,263.36573,301.86972,269.89548,276.63445Z"/><path class="ek" d="M220.00121,313.58984s-1.45018,4.00552-2.52106,4.11106a2.7622,2.7622,0,0,1,3.41379,1.87709c1.12428,2.65687.84416-5.67664.84416-5.67664Z"/><path class="el" d="M221.01117,313.771l-1.19624,3.23265s-.80607,1.86426-1.6923,1.70532a.77285.77285,0,0,1-.64248-1.00805,25.80977,25.80977,0,0,0,2.52106-4.11106Z"/><path class="em" d="M219.26682,314.325s.11338.65446.5311.61872,2.22194.35454,2.17569-.18611.24106-1.36038-.37834-1.388a13.71892,13.71892,0,0,0-1.86766.15978Z"/><polygon class="en" points="147.045 564.873 147.913 564.799 222.044 314.353 221.175 314.427 147.045 564.873"/><path class="eo" d="M120.06434,634.53616s19.56731-31.04329,25.0638-62.62487l3.23976,1.83876s-2.48385,40.42245-16.54213,66.40492"/><path class="ep" d="M94.29425,748.71083s-.9031.53336-1.97031,1.15422l1.93034,2.9256c1.35038-.56676,2.31973-.95962,2.31973-.95962Z"/><path class="eq" d="M89.08933,751.68963c-.99111.49-1.55566-1.21659-1.55566-1.21659a21.01367,21.01367,0,0,0-3.76733,2.04364c-2.77054,1.72752.21942,5.34861,2.59267,3.91873a79.06412,79.06412,0,0,1,7.3472-3.41393c.08054-.034.25355.11846.332.08539.10517-.04432.115-.2738.216-.31622l-1.93034-2.9256c-.06594.03837-.23746-.07952-.30448-.0406-.07551.04386-.04666.24461-.12308.2889-.30227.17521-.60968.35264-.90692.52305C90.17438,751.1037,89.43579,751.51827,89.08933,751.68963Z"/><path class="er" d="M155.9647,670.23482s9.83882,45.69981-59.39076,81.5963l-2.27979-3.12025s42.75487-27.51433,29.32191-49.19934S155.9647,670.23482,155.9647,670.23482Z"/><polygon class="es" points="188.666 715.131 188.611 720.136 192.39 722.127 193.078 714.041 188.666 715.131"/><path class="et" d="M188.61057,720.1365s-.21281.06092-.18957.23073c.00875.06391.24935.17612.25877.25849.10326.90373.20334,2.82676-.64832,3.75136-1.13556,1.23279.56541,3.51378.82894,3.66256a30.60088,30.60088,0,0,0,4.0445-.51564l.20579-2.92335s-.73433-.36557-.72523-2.67123c.00035-.08928.25914-.0973.26554-.19149.00606-.08917-.24061-.26426-.22874-.35793Z"/><path class="eu" d="M183.84408,728.53881a.29611.29611,0,0,0-.47741.09637c-.20708.34039-1.00784,1.273-1.00784,1.273s-.42287,1.12072-.1015,1.36049,10.28379,3.91616,10.28379,3.91616l7.05759,2.63585a18.04512,18.04512,0,0,0,2.58931.2489c.30009-.096,1.46063-.651,1.16935-1.5216l-.26352-.10434-3.10233-.37111-15.36132-7.72707Z"/><path class="ev" d="M193.11068,724.60065l-.92868,1.57177a3.73237,3.73237,0,0,1-2.13849.24426c-.82617-.29976-1.88833-.23914-2.01206-2.0396s-2.75245,1.32547-2.75245,1.32547l-.0308.09482s-1.496,1.58632-1.53846,2.42067l.13434.32077s6.93623,3.55385,7.05718,3.62011,7.42051,3.99229,7.42051,3.99229,3.23366,1.25063,3.98428,1.07988,1.161-.64107.80791-1.31306-5.28154-4.70424-5.28154-4.70424l-.30341-.889-1.78313-2.24391-.41181-1.26-.67-.18247s-.27937-1.26663-.91639-1.65217Z"/><polygon class="ew" points="188.719 721.046 192.39 722.127 192.428 722.62 188.733 721.462 188.719 721.046"/><polygon class="ex" points="188.73 721.996 192.623 722.94 192.716 723.366 188.677 722.45 188.73 721.996"/><path class="ey" d="M84.52693,746.54605a.2961.2961,0,0,0-.00037-.487c-.29289-.27011-1.04936-1.239-1.04936-1.239s-1.01539-.63548-1.3138-.36768-5.8664,9.3101-5.8664,9.3101L72.32172,760.162a18.04561,18.04561,0,0,0-.75441,2.48945c.035.31312.35031,1.56029,1.26126,1.44634l.15423-.23779.97534-2.96831,10.60339-13.53683Z"/><path class="ez" d="M86.56126,756.40711l-1.35788-1.22028a3.73234,3.73234,0,0,1,.18206-2.14468c.45673-.75087.60666-1.80414,2.39619-1.57055s-.75692-2.95971-.75692-2.95971l-.08689-.0489s-1.26031-1.77934-2.06993-1.98541l-.341.06847s-4.85135,6.09963-4.94014,6.20515-5.37666,6.488-5.37666,6.488-1.86349,2.92371-1.844,3.69325.39963,1.26464,1.128,1.05089,5.653-4.25066,5.653-4.25066l.93142-.1222,2.55136-1.30585,1.31645-.15537.311-.62085a3.08256,3.08256,0,0,0,1.8004-.57275Z"/><path class="fa" d="M122.79815,616.33786c-5.90538-8.72347-4.42821-7.88574-6.22182-11.51628-.776-1.55346,2.0872-1.91107,2.0872-1.91107l-5.93794-4.23824-.66317,2.73195-4.02341-1.76c-11.62123-14.01247-3.33239,2.50666-3.33239,2.50666s7.00862,3.27276,11.39782,13.69079l.00157-.00077Z"/><path class="fb" d="M181.66464,673.9861c-7.2372-6.6461-16.74206-6.90384-25.47989-3.82825-.07132.0251-.14286.04934-.21374.07478l-.00631.00219a56.98558,56.98558,0,0,0-19.5318,11.46013,51.294,51.294,0,0,0-12.81684,17.81658c18.56326,11.88479,40.06273-21.00052,52.52833-16.08394,13.4115,5.28934,12.5212,31.703,12.5212,31.703l4.41253-1.08983S195.4167,686.61505,181.66464,673.9861Z"/><polygon class="fc" points="155.971 670.233 155.971 670.233 155.965 670.235 155.971 670.233"/><polygon class="fd" points="155.971 670.233 155.971 670.233 155.965 670.235 155.971 670.233"/><polygon class="fe" points="155.971 670.233 155.971 670.233 155.965 670.235 155.971 670.233"/><path class="ff" d="M104.80455,547.78875s15.4733,1.86926,17.84847,15.57363,8.427,11.51493,10.59114,13.08786.089,4.29278-.9154,5.40417,2.23046,1.07585,2.53377,2.0114c-2.68149,1.63919-2.97011,2.92559-2.485,4.36858a.86678.86678,0,0,1,.66287.48936c.58848.95508,1.37544,2.80783,1.68147,3.07114.90332.77721,2.79435,5,.11668,7.24063s-21.64714,7.68784-39.06261-.04456S63.46468,552.23766,104.80455,547.78875Z"/><path class="fg" d="M103.28511,551.01082a6.84366,6.84366,0,0,0,2.61942-6.66819c-.66115-4.51232-4.23452-16.23606-15.75935-14.15393s-16.68623-3.59829-23.95065,5.0701S50.09986,543.60559,48.779,552.92525s-9.06284,12.80144-5.64736,21.04047-6.18511,18.36128,4.68918,27.28384,6.26246,17.53083,16.6272,20.35323,9.59768-2.22242,20.07707,1.7828,20.96206-7.47825,20.5723-13.01759.49266-14.48938-4.77891-16.39894-8.84529-6.04446-5.0137-10.55374,6.5716,2.66672,7.68555,3.36014,5.8675-1.30084,3.55353-7.92313-8.01887-8.78424-2.88725-12.53636S110.81755,557.8531,103.28511,551.01082Z"/><path class="fh" d="M118.64468,573.91335c.06842-.0915,2.17418-4.13078,2.17418-4.13078l1.48135-.81394-1.88944,2.11156Z"/><polygon class="fi" points="118.645 573.913 121.907 572.828 121.934 573.235 118.645 573.913"/><path class="fj" d="M121.934,573.23458s2.11271.81619.6696,2.993l-5.06869-.12312,1.10976-2.19109Z"/><polygon class="fk" points="118.645 573.913 120.79 569.484 120.395 569.306 117.601 574.299 118.645 573.913"/><polygon class="fl" points="120.411 571.08 121.432 572.986 118.645 573.913 120.411 571.08"/><path class="fm" d="M119.479,572.57493s.566.87248.79661.79576.54418-.12174.62293-.50761a6.31082,6.31082,0,0,0-.48777-1.78289Z"/><ellipse class="fn" cx="120.54731" cy="572.0883" rx="0.21747" ry="0.43673" transform="translate(-239.33332 111.32523) rotate(-26.09276)"/><ellipse class="fl" cx="120.52298" cy="571.92225" rx="0.09715" ry="0.15982" transform="translate(-239.26277 111.29761) rotate(-26.09276)"/><path class="fo" d="M117.493,570.72715a11.187,11.187,0,0,1,3.84-3.73348c2.43565-1.32545-.76952-2.98295-2.53247.09084S116.456,571.408,117.493,570.72715Z"/><path class="fl" d="M132.50619,586.47845l-.164,2.58685a13.65779,13.65779,0,0,1-2.25624-.29693,3.29389,3.29389,0,0,0-1.68878.03493l-.485-1.05438.92215-.99328,3.29052-1.00679Z"/><path class="fp" d="M135.02023,584.28939c-.608,1.15339-1.47433,2.50912-5.76982,2.74614,0,0-1.50293.3431-1.05469.98213s4.11324,1.26043,4.67364.978c.34554-.17417-.49182-.76122-.49182-.76122s2.56329-.02443,3.7367,1.22817a1.55052,1.55052,0,0,1-1.03346,2.71136c-1.15889-.0826-4.0758-2.33387-5.958-2.86823-2.01238-.57132-1.54823-1.947-.43086-2.4837s3.70709-1.87644,4.42948-3.35016A1.03594,1.03594,0,1,1,135.02023,584.28939Z"/><path class="fq" d="M144.25418,649.72679a3.57711,3.57711,0,0,0-.77493-.89663c-.05219-.04778-.09239-.09085-.14337-.13812q-1.10367-1.22977-2.2803-2.4528c-2.87378-3.72867-1.78171-5.92619-5.79932-9.79684-4.79954-4.62338-9.56089-15.45722-9.68957-15.75194l-10.21064-12.32429-.0017.00042a43.33928,43.33928,0,0,1,.54281,11.27973c-.99077,13.19626-8.03786,34.4081-6.19539,53.093l-.0052.00524s4.58257,55.13878,11.92324,32.06005a54.97165,54.97165,0,0,1,1.99625-5.29307,51.294,51.294,0,0,1,12.81684-17.81658,56.98558,56.98558,0,0,1,19.5318-11.46013l.00631-.00219c.07088-.02544.14242-.04968.21374-.07478C154.62913,663.78207,150.35773,656.72905,144.25418,649.72679Z"/><path class="fr" d="M104.71673,609.68957s-1.31436,1.30152.01147,2.36451,3.65938-.08591,4.29048,1.47583-.24149,3.65846,1.72009,4.64622,1.94346.58328,2.21,1.66252,2.16358,4.45488,2.91542,4.1874,1.83622-9.12338.19043-12.80645S104.71673,609.68957,104.71673,609.68957Z"/><path class="fs" d="M125.56669,620.69046s-7.53938-12.4844-10.47312-13.56382-10.7547.37071-10.37684,2.56293,7.70954,2.83514,9.458,1.58538S125.56669,620.69046,125.56669,620.69046Z"/><path class="ft" d="M106.1822,608.66869s-2.39718,3.20938.5712,2.31265,5.04976-1.4108,6.10811-1.09966,3.13188,1.32955,3.26984-.31685-1.72528-1.04612-2.10887-1.60571-.99936-.73467-2.75243-.54706A36.08056,36.08056,0,0,0,106.1822,608.66869Z"/><polygon class="fu" points="91.121 750.561 92.86 753.381 93.24 753.219 91.539 750.32 91.121 750.561"/><polygon class="fv" points="90.237 751.064 91.697 753.883 92.23 753.652 90.627 750.844 90.237 751.064"/><path class="fw" d="M125.91589,633.05609s-50.98681,14.19153-38.53333,54.38658l4.14218-1.32979s-7.94685-29.71994,34.5887-37.72471"/><path class="fx" d="M87.38256,687.44267l.86722,3.161s-1.19191,1.32979-1.08843,2.36872a3.3258,3.3258,0,0,0,3.90892,2.38887c2.22913-.4486,2.97245-4.00752,1.95337-5.492a12.3891,12.3891,0,0,1-1.4989-3.75636"/><path class="fy" d="M90.50611,689.34846s-1.78726,1.7318-.59294,2.492.02478,1.68566,1.00732,1.96164,1.56115-1.06965,1.94575-2.4865a4.34749,4.34749,0,0,0-.83279-3.083"/><path class="fz" d="M148.3679,573.75005l.39162-3.34085s.804-2.47955,1.71448-3.01568-1.67689-5.39536-2.90995-5.36958-2.01834,2.02557-2.15348,5.80272a23.22978,23.22978,0,0,1-.28243,4.08463Z"/><path class="ga" d="M146.537,563.52639s-.861,2.0461-.23274,2.869,1.037.01091,1.037.01091-.4579.93574.09644,1.1274a.6316.6316,0,0,0,.794-.26716s-.08834,1.06352.2185,1.15681a3.58814,3.58814,0,0,0,2.02382-1.02984c.18735-.39677-1.752-4.81115-2.54068-4.86322S146.537,563.52639,146.537,563.52639Z"/><path class="gb" d="M146.91056,569.98958s1.059-1.129.22459-2.0327.62626-1.56659.44172-2.30791-1.34187-.76186-1.87836.41969-.91865,2.071.01242,3.4059"/><path class="gc" d="M149.33964,568.97158c-.03573.07049,5.89506,4.16644,10.57807,7.67089,1.75613,1.31417,2.557,2.20423,2.80826,2.94158.41877,1.22892-.68914,2.03366-1.44567,3.67073-1.21044,2.6193.30887.81574.30887.81574s3.42744-3.72008,2.27034-5.13531S150.62088,568.862,150.62088,568.862l-1.229-.71653Z"/><polygon class="gd" points="153.977 567.753 149.392 568.145 155.649 568.667 153.977 567.753"/><path class="ge" d="M154.25422,570.0609a32.44156,32.44156,0,0,0-3.63334-1.19892l-1.28124.1096s11.59835,4.66078,11.94845,6.35824-1.54729,4.83437-1.54729,4.83437l.86561.8026s2.19332-4.17238,1.41827-5.77968S154.25422,570.0609,154.25422,570.0609Z"/><polygon class="gf" points="149.392 568.145 157.611 569.239 156.899 570.238 150.621 568.862 149.392 568.145"/><path class="gg" d="M149.3919,568.14545s8.666,5.38862,8.8373,8.32268a6.5031,6.5031,0,0,1-.95472,4.31736l.80021.39787s4.93582-5.7275-6.26471-12.71617Z"/><polygon class="gh" points="150.621 568.862 153.219 576.575 154.122 575.943 151.81 568.467 150.621 568.862"/><path class="gi" d="M361.11924,573.40842l-17.06477,5.12112.96445,2.65382s23.7232-2.75763,21.81748-3.9958S361.11924,573.40842,361.11924,573.40842Z"/><path class="gj" d="M331.61282,584.37169s-7.12578,27.36291,9.39047,33.29182,44.82508,13.61021,44.82508,13.61021l.7119-2.92866s-45.63464-11.52854-48.33852-15.12823-7.574-20.11595-5.45659-23.71565S331.61282,584.37169,331.61282,584.37169Z"/><path class="fl" d="M288.73565,566.24242s.58753,2.80146,1.18182,2.44457a7.63249,7.63249,0,0,0,3.76442-3.56108l.639,1.12715-1.01951-1.52609-2.60084-.1988Z"/><path class="gk" d="M286.37358,564.20841s-.0535,2.1125,1.12676,2.37744,3.80357-2.64132,5.5908-1.588.479,2.45905-.51751,3.205-3.4222,2.23606-2.4993,4.33836,4.48356-5.30278,4.50411-5.58739a2.61006,2.61006,0,0,0-2.1221-2.81611C290.30654,563.78815,286.835,562.79658,286.37358,564.20841Z"/><path class="gl" d="M304.381,480.27737s1.813,6.81776-10.57419,9.19991v1.27048s2.77917,0,3.732-.55583l-2.4929,2.16955h1.143l2.22334-1.93134a5.34932,5.34932,0,0,1-3.36636,4.04966l.50778,1.03388s4.63823-2.14555,4.86008-4.92473,2.34013-2.62036,4.06016-5.39954l-.655,6.273,1.42222-.397V485.0306l1.27049,3.335s1.52792-.22553,1.20068-.47008a29.16022,29.16022,0,0,1-1.73744-3.73839l.61571-3.33305Z"/><path class="gm" d="M307.50238,481.00743s-1.387,7.01209-5.5433,10.08442-7.14646-5.876-7.14646-5.876h.847s2.5737,5.823,4.75421,5.37307,6.64746-9.693,6.64746-9.693Z"/><polygon class="gn" points="305.135 480.277 298.571 484.634 299.1 485.692 305.975 480.672 305.135 480.277"/></g></svg>