<?xml version="1.0" encoding="utf-8"?>
<!-- Generator: Adobe Illustrator 24.1.0, SVG Export Plug-In . SVG Version: 6.00 Build 0)  -->
<svg version="1.1" id="Ebene_1" xmlns="http://www.w3.org/2000/svg" xmlns:xlink="http://www.w3.org/1999/xlink" x="0px" y="0px"
	 viewBox="0 0 500 500" style="enable-background:new 0 0 500 500;" xml:space="preserve">
<style type="text/css">
	.st0{fill:#4AC5FF;}
</style>
<g>
	<path class="st0" d="M174,328.6c-0.1-0.8-1.7-6.4-4.8-16.8l-7-24.4c-7.3-25.3-12.1-41-14.2-47l-1.2-3.4c-0.1,0.3-0.4,0.7-0.7,1.2
		c-0.3,0.5-0.9,1.4-1.7,2.6c-1.6,2.9-2.9,5.2-4,6.8l-2.8,4.6v71.2c0,2.3-0.2,3.8-0.6,4.7c-0.4,0.9-1.3,1.3-2.6,1.3
		c-1.3,0-2.2-0.5-2.7-1.4c-0.5-0.9-0.7-2.6-0.7-5v-60.4c0-7.9,0.2-20.7,0.6-38.4l0.4-38.4c0-2.5,0.1-4.9,0.4-7
		c0.4-1.6,1.1-2.4,2.2-2.4c2,0,3.2,0.5,3.6,1.4c0.5,0.9,0.8,3.3,0.8,7.2l-0.4,33.2l-0.4,24.2h0.2c2.5-5.6,6.1-14,10.8-25.2l7.4-18.6
		c7.5-18.5,12.2-27.8,14.2-27.8c0.9,0,1.7,0.3,2.4,0.8c0.7,0.5,1,1.3,1,2.2c-0.4,2.5-1.5,5.2-3.2,8l-2,3.6c-2.3,5.3-5.6,13.3-10,24
		c-5.3,12.9-8.2,19.7-8.6,20.4c-0.1,0.9-0.1,1.7,0.2,2.4c2.7,6.8,5.7,15.2,9,25.2c3.3,10,6.1,18.7,8.2,26c2.3,8,4.6,16.1,6.9,24.4
		c2.3,8.3,4,14.2,4.9,17.8c0.3,0.8,0.4,1.3,0.4,1.4c0,0.9-0.4,1.7-1.1,2.2c-0.7,0.5-1.6,0.8-2.5,0.8
		C175.2,330,174.4,329.5,174,328.6z"/>
	<path class="st0" d="M187.1,329.1c-1.3-0.6-1.9-1.8-1.9-3.5v-3.8c-0.1-1.1-0.2-2.3-0.2-3.6v-0.4l0.2-29.5l-0.2-83.5
		c0-8.6-0.1-16.1-0.4-22.4c0-1.6,0.3-3,1-4c0.7-1.1,1.5-1.6,2.6-1.6h12.4c1.9,0,3.3,0.1,4.2,0.4c1.3,0.4,2,1.6,2,3.4
		c0,1.1-0.4,2-1.2,2.6c-0.8,0.7-1.7,1.1-2.6,1.2h-3.4l-3.2-0.2l-3.2-0.2c-0.9,0-1.6,0.2-1.9,0.5c-0.3,0.3-0.5,1-0.5,1.9
		c0,6.3,0.1,12.1,0.2,17.2v17.2v25.3c0,0.3,0.1,0.4,0.4,0.4h0.2h0.2c3.3-0.3,6.9-0.4,10.8-0.4c2.1,0,3.2,0.9,3.2,2.8
		c0,1.3-0.2,2.3-0.7,2.7c-0.5,0.5-1.2,0.7-2.3,0.7h-11.4c-0.5,0-0.8,0.3-0.8,1l0.4,29.9c0.3,9.3,0.4,20,0.4,32.1v7.5h8.6h8.4h1.8
		c2.4,0,3.6,0.9,3.6,2.6c0,2.2-0.6,3.4-1.8,3.8c-1.6,0.5-4.9,0.8-9.8,0.8h-8.4C190.6,330,188.4,329.7,187.1,329.1z"/>
	<path class="st0" d="M261.9,329.2c-0.7-0.7-1.1-1.5-1.1-2.5v-26.8c0-1.6-3.4-3.1-10.2-4.5c-6.8-1.4-12.4-2-16.8-2
		c-0.3,0-0.7,1-1.3,3.1s-1,3.6-1.3,4.5c-1.7,7.1-3.5,14.7-5.2,22.7l-1,4.5c-0.3,1.1-0.9,1.6-2,1.6c-1.1,0-2-0.3-2.9-1
		c-0.9-0.7-1.3-1.5-1.3-2.5l0.2-0.4v-0.2l2.2-10.2c1.6-6.4,3-12.7,4.2-18.8c1.3-7,2.3-11.5,3-13.5c1.1-4.5,3.2-15.8,6.4-33.8
		l1.2-6.8c3.5-21,5.9-34.3,7.2-39.7c0.7-3.3,1.9-8.1,3.6-14.5c0.7-2.7,1.6-5.5,2.8-8.2c1.2-2.3,2.2-3.5,3-3.5c2.1,0,3.7,0.7,4.6,2
		c0.7,1.2,1.7,8,3.1,20.3s2.6,24.7,3.7,37.3l2.6,34c0,5.9,0.4,14.7,1.2,26.6c0.8,12,1.2,21,1.2,26.8v0.8c0,1.5-0.2,2.9-0.6,4.1
		c-0.5,1.1-1.8,1.6-3.8,1.6C263.6,330.2,262.7,329.9,261.9,329.2z M260.6,288.6c0-8.5-0.5-20-1.4-34.7c-0.9-14.7-1.9-27.6-3-38.8
		c-0.3-4.8-0.8-10-1.6-15.8l-0.8-8c0,0.1-0.1-0.6-0.4-2.3l-0.4-2.5c-1.1,3-2.1,7.2-3.1,12.5s-2,11.6-3.1,18.8
		c-3.2,20.4-5.9,35.6-8.2,45.9l-1.8,7c-2,6.8-3,12-3,15.6v1.2c5.9,1.9,12.6,2.9,20.2,2.9h1.2c0.4,0.1,0.9,0.2,1.4,0.2
		C259.3,290.7,260.6,290,260.6,288.6z"/>
	<path class="st0" d="M293.4,328.6c-0.7-1-1-2.3-1-3.7v-18v-18l-0.4-32.3c-0.4-14.4-0.6-25.2-0.6-32.3l0.2-5.9v-13.1
		c0-14.5-0.1-21.8-0.4-21.8h-22.6c-1.1,0-2-0.3-2.9-0.8c-0.9-0.5-1.3-1.3-1.3-2.2c0-1.1,0.2-1.8,0.6-2.2c0.4-0.4,1.5-0.7,3.2-1
		c1.9-0.4,4.5-0.6,8-0.6h20l22-0.2c1.6,0,2.7,0.3,3.3,0.8c0.6,0.5,0.9,1.4,0.9,2.6c0,2-1.3,3-3.8,3h-9h-8.8l-1.8,0.2l0.2,11.7v15.7
		v82v16.8l0.2,14.9v0.4c0,1.1-0.1,2-0.2,2.7c-0.1,0.7-0.4,1.3-0.8,1.7c-0.4,0.7-1.1,1-2,1C295.1,330.1,294.1,329.6,293.4,328.6z"/>
	<path class="st0" d="M326.1,329.9c-1.3-0.2-2.6-0.6-4.1-1.3c-1.6-0.8-2.8-1.9-3.6-3.3c0-1.6,0.7-2.3,2.2-2.3c1.5,0,3.3,0.5,5.6,1.4
		c2.1,1,3.9,1.6,5.4,1.6c2.9,0,5.6-1.2,8.1-3.5c2.5-2.3,4.4-5.4,5.7-9.2c2.7-7.4,4-14,4-19.7c0-6.4-0.9-12.8-2.8-19.3
		c-1.9-6.5-4.3-12.6-7.4-18.3c-0.7-1.4-1.8-3.6-3.4-6.4c-3.3-6.5-5.9-11.6-7.6-15.2c-1.7-3.6-3.3-7.7-4.6-12.1
		c-1.9-5.8-2.8-12.1-2.8-18.9c0-4.3,0.7-8.4,2.1-12.4c1.4-4,3.6-7.4,6.7-10.2c3.3-3,7.1-4.5,11.2-4.5c1.6,0,3.5,0.6,5.8,1.9
		c2.3,1.2,3.4,2.4,3.4,3.6c0,1-0.4,1.6-1.2,1.6s-1.9-0.3-3.2-1c-1.2-0.6-2.3-1-3.4-1c-3.1,0-5.8,1.1-8.1,3.3c-2.3,2.2-4,4.9-5.1,8.2
		c-0.9,2.7-1.4,5.7-1.4,9c0,5.1,0.7,10.3,2,15.7c1.3,5.4,3.1,10.4,5.4,15.1l7,14.2l2,4.1c2.8,5.6,5,10.2,6.5,13.8
		c1.5,3.6,2.8,7.7,3.9,12.3c1.5,6.1,2.2,12,2.2,17.5c0,7.5-2,15.2-6,23c-2,3.8-4.7,6.8-8,9.2c-3.3,2.3-7,3.5-11,3.5
		C329.2,330.2,327.4,330.1,326.1,329.9z"/>
</g>
</svg>
